<svg width="550" height="550" viewBox="0 0 550 550" fill="none" xmlns="http://www.w3.org/2000/svg">
<path d="M554 -30H-1V664H554V-30Z" fill="#78506F"/>
<g style="mix-blend-mode:screen">
<path d="M20.2149 -10.2626C19.3963 -9.66574 18.6609 -9.04114 18.0088 -8.26386C17.3844 -7.5421 16.9404 -6.62602 16.2744 -5.95978C14.8869 -4.57178 13.8324 -3.08662 13.652 -1.0879C13.4023 1.57706 17.5509 1.5493 17.8006 -1.0879C17.8978 -2.14278 19.2853 -2.92006 19.8264 -3.73898C20.534 -4.80774 21.2555 -5.91815 22.31 -6.68155C24.4606 -8.2361 22.3933 -11.8449 20.2149 -10.2765V-10.2626Z" fill="#11131F"/>
<path d="M38.9323 -2.87844C36.8094 -3.86392 34.6588 -4.086 32.3417 -4.086C29.6638 -4.086 29.6638 0.0641212 32.3417 0.0641212C33.8679 0.0641212 35.4219 0.0502424 36.8372 0.702602C37.8639 1.17452 39.071 0.994081 39.6815 -0.0469189C40.2088 -0.949119 39.959 -2.40652 38.9323 -2.89232V-2.87844Z" fill="#11131F"/>
<path d="M22.8789 8.61417V16.9283C22.8789 19.6071 27.0275 19.6071 27.0275 16.9283V8.61417C27.0275 5.93533 22.8789 5.93533 22.8789 8.61417Z" fill="#11131F"/>
<path d="M45.1344 10.0577C44.5516 10.3769 44.0521 10.8211 43.5804 11.2791C43.4139 11.4318 43.2613 11.5984 43.0948 11.751C42.1235 12.0564 41.6101 13.3195 41.8599 14.2356C42.1929 15.4292 43.3029 15.8456 44.4129 15.693C45.0789 15.5958 45.6616 15.0545 46.1195 14.5964C46.3415 14.3882 46.5496 14.1662 46.7716 13.958C46.8688 13.8747 46.952 13.7914 47.0491 13.7081C46.7161 13.9857 47.1324 13.6804 47.2018 13.6387C48.1869 13.0974 48.506 11.751 47.951 10.7933C47.3683 9.79396 46.1056 9.50248 45.1066 10.0438L45.1344 10.0577Z" fill="#11131F"/>
<path d="M57.4276 0.202903C56.942 -1.7403 56.2482 -3.57246 55.3741 -5.37686C54.8746 -6.3901 53.4594 -6.6677 52.5297 -6.12638C51.503 -5.52954 51.281 -4.29422 51.7805 -3.28098C52.502 -1.8097 53.0154 -0.282898 53.4177 1.29942C54.0837 3.89498 58.0797 2.79846 57.4276 0.189023V0.202903Z" fill="#11131F"/>
<path d="M77.8516 10.252C77.5603 9.43311 77.1856 8.65583 76.7971 7.89243C76.478 7.25395 76.5474 6.67099 76.5474 5.96311C76.5474 3.28427 72.3988 3.28427 72.3988 5.96311C72.3988 6.82367 72.2878 7.75363 72.593 8.55867C72.9399 9.53027 73.5088 10.4047 73.8695 11.3624C74.258 12.4312 75.2709 13.1391 76.4225 12.8198C77.4493 12.5422 78.2679 11.3347 77.8794 10.2659L77.8516 10.252Z" fill="#11131F"/>
<path d="M64.49 24.6456C63.8795 23.6046 62.6724 23.4241 61.6456 23.8961C61.7428 23.8683 61.6873 23.8961 61.4653 23.9516C61.6873 23.9516 61.6734 23.9516 61.4236 23.9516C60.7854 23.9932 60.2859 24.0349 59.7031 24.3541C59.0371 24.715 58.496 25.2563 57.83 25.6311C56.831 26.1724 56.5258 27.5187 57.0808 28.4765C57.6635 29.4758 58.9261 29.7673 59.9251 29.226C60.5356 28.8929 61.0629 28.4626 61.6317 28.0878C62.3671 28.0184 63.0331 27.8241 63.7269 27.491C64.7536 27.0052 65.0034 25.5617 64.4761 24.6456H64.49Z" fill="#11131F"/>
<path d="M39.1404 31.2386C39.1404 30.142 38.1969 29.1149 37.0591 29.1566C35.5468 29.2121 34.2425 29.8783 33.5071 31.2247C32.9521 32.2379 32.8411 33.39 32.633 34.5004C32.4249 35.6108 32.9244 36.735 34.0899 37.0543C35.1166 37.3319 36.4348 36.7212 36.6429 35.5969C36.7816 34.8751 36.8649 34.1534 37.073 33.4455C37.073 33.4177 37.1008 33.3622 37.1285 33.3067C38.2385 33.2373 39.1543 32.3767 39.1543 31.2386H39.1404Z" fill="#11131F"/>
<path d="M13.3884 32.0159C11.7789 31.5856 10.3775 30.9471 8.68474 30.9055C6.00686 30.8361 6.00686 35.0001 8.68474 35.0556C9.91961 35.0833 11.0712 35.6941 12.2922 36.0133C14.8869 36.7073 15.983 32.696 13.4022 32.002L13.3884 32.0159Z" fill="#11131F"/>
<path d="M4.6055 11.071C3.87013 10.3353 2.84338 10.3214 2.02475 10.8211C0.928628 10.8628 0.0128784 11.7788 0.0128784 12.8892C0.0128784 13.9996 0.956378 14.9712 2.09413 14.9712C3.09313 14.9712 3.84238 14.6659 4.6055 14.0135C5.46575 13.2779 5.35475 11.8205 4.6055 11.071Z" fill="#11131F"/>
<path d="M90.8248 32.1963C89.3679 30.7667 87.7723 29.4758 86.3293 28.0462C84.4284 26.1585 81.4869 29.1011 83.3878 30.9888C84.8446 32.4184 86.4403 33.7092 87.8833 35.1389C89.7841 37.0266 92.7256 34.084 90.8248 32.1963Z" fill="#11131F"/>
<path d="M98.4421 -2.78129C97.6651 -3.55857 96.2776 -3.61409 95.5006 -2.78129C95.0705 -2.32325 94.7375 -1.8097 94.4461 -1.2545C94.3212 -1.01854 94.1964 -0.768696 94.0715 -0.532736C94.016 -0.421696 93.9466 -0.296776 93.8772 -0.185736C93.8495 -0.130216 93.8356 -0.102456 93.8217 -0.0746963C93.8079 -0.0608163 93.794 -0.0469348 93.7662 -0.0191748C93.0031 0.813625 92.9337 2.09058 93.7662 2.92338C94.5432 3.70066 95.9307 3.75618 96.7077 2.92338C97.1379 2.46534 97.4709 1.95179 97.7622 1.39659C97.8871 1.16063 98.012 0.910785 98.1369 0.674825C98.1924 0.563785 98.2617 0.438865 98.3311 0.327825C98.3589 0.272305 98.3727 0.244545 98.3866 0.216785C98.4005 0.202905 98.4144 0.189024 98.4421 0.161264C99.2052 -0.671536 99.2746 -1.94849 98.4421 -2.78129Z" fill="#11131F"/>
<path d="M116.077 17.7194C115.439 16.7201 114.995 15.6097 114.343 14.5964C113.732 13.6387 112.511 13.264 111.499 13.8469C110.555 14.4021 110.139 15.7346 110.749 16.6923C111.388 17.6917 111.832 18.8021 112.484 19.8153C113.094 20.773 114.315 21.1478 115.328 20.5648C116.272 20.0096 116.688 18.6772 116.077 17.7194Z" fill="#11131F"/>
<path d="M64.49 55.473C64.3096 55.0844 64.4206 55.362 64.2958 54.9872C64.268 54.8901 64.1015 54.1544 64.1431 54.3904C64.0738 53.8352 64.0876 53.2661 64.0876 52.7109C64.0876 50.0321 59.9251 50.0321 59.939 52.7109C59.939 54.4459 60.161 55.9866 60.9103 57.5689C61.3959 58.596 62.8389 58.8459 63.7546 58.3184C64.7952 57.7077 64.9895 56.5002 64.5039 55.473H64.49Z" fill="#11131F"/>
<path d="M115.383 36.7767C114.801 35.7774 113.538 35.4859 112.539 36.0272C110.985 36.8739 109.889 38.4701 109.778 40.2467C109.709 41.3849 110.777 42.3287 111.859 42.3287C113.011 42.3287 113.816 41.4265 113.927 40.33C113.927 40.33 113.927 40.33 113.927 40.3161C113.927 40.5521 114.01 40.2606 113.968 40.2467C114.024 40.1634 114.107 40.0524 114.121 40.0246C114.204 39.9414 114.287 39.8581 114.371 39.7887C114.371 39.7887 114.579 39.6499 114.62 39.6221C115.619 39.0808 115.925 37.7344 115.37 36.7767H115.383Z" fill="#11131F"/>
<path d="M129.592 -4.16929C128.787 -4.97433 127.455 -4.97433 126.65 -4.16929L124.569 -2.08729C123.764 -1.28225 123.764 0.0502272 124.569 0.855267C125.374 1.66031 126.706 1.66031 127.51 0.855267L129.592 -1.22673C130.396 -2.03177 130.396 -3.36425 129.592 -4.16929Z" fill="#11131F"/>
<path d="M27.9294 53.4883C26.7084 52.9886 25.529 53.1135 24.2525 53.2939C23.7391 53.3633 21.3665 53.8491 21.1445 53.6965C18.9245 52.1697 16.8571 55.7785 19.0494 57.2914C21.4081 58.9153 24.3496 56.5002 26.8194 57.4996C27.8739 57.9299 29.0949 57.0415 29.3724 56.0422C29.7054 54.8485 28.97 53.9047 27.9155 53.4883H27.9294Z" fill="#11131F"/>
<path d="M95.9863 57.208C95.459 56.3058 94.0576 55.7923 93.1419 56.4585C90.6721 58.2352 86.357 58.3878 85.8853 62.066C85.7465 63.1903 86.9398 64.148 87.9665 64.148C89.2153 64.148 89.8951 63.1903 90.0478 62.066C89.9229 63.0515 89.8119 62.7739 90.5889 62.3575C90.8525 62.2187 91.1023 62.0522 91.3381 61.8856C92.7534 61.4831 94.0576 60.9279 95.2509 60.0534C96.1666 59.3872 96.6106 58.2629 96.0001 57.208H95.9863Z" fill="#11131F"/>
<path d="M41.2216 66.5771V72.4622C41.2216 75.141 45.3702 75.141 45.3702 72.4622V66.5771C45.3702 63.8982 41.2216 63.8982 41.2216 66.5771Z" fill="#11131F"/>
<path d="M70.9974 76.9593H67.8755C67.1817 76.9593 65.7249 77.5561 65.1144 77.2369C62.7279 76.0293 60.6327 79.6104 63.0192 80.8318C64.2125 81.4425 65.3086 81.4842 66.6129 81.2621C68.0559 81.0261 69.5266 81.1094 70.9974 81.1094C73.6752 81.1094 73.6752 76.9593 70.9974 76.9593Z" fill="#11131F"/>
<path d="M15.8859 76.9454C15.2337 78.1391 14.9146 79.1107 14.9146 80.4848V84.2324C14.9146 86.9113 19.0632 86.9113 19.0632 84.2324V81.2621C19.0632 80.2905 19.0355 79.8602 19.4656 79.0552C20.7421 76.6956 17.1485 74.5997 15.872 76.9593L15.8859 76.9454Z" fill="#11131F"/>
<path d="M5.56286 53.4049C5.52124 50.7261 1.37261 50.7261 1.41424 53.4049C1.41424 54.0157 1.46974 54.6125 1.49749 55.2232C1.51136 55.5702 1.49749 55.9033 1.48361 56.2503C1.48361 56.0977 1.48361 56.1532 1.42811 56.3891C1.41424 56.4169 1.40036 56.4447 1.35874 56.5141C-0.0010128 58.832 3.59261 60.914 4.95236 58.6099C5.90974 56.986 5.60449 55.1816 5.57674 53.4049H5.56286Z" fill="#11131F"/>
<path d="M45.4397 98.7787C43.6637 96.2247 41.18 94.8923 38.4605 93.532C36.074 92.3383 33.965 95.9194 36.3654 97.1269C38.3357 98.1124 40.5557 99.0146 41.846 100.888C43.3584 103.081 46.9659 100.999 45.4397 98.7925V98.7787Z" fill="#11131F"/>
<path d="M27.4437 112.978C26.9165 112.076 25.5151 111.548 24.5994 112.228C23.3784 113.131 22.1435 113.963 20.7837 114.657C19.7709 115.171 19.4934 116.573 20.0345 117.503C20.6311 118.516 21.866 118.766 22.8789 118.252C24.2386 117.572 25.4735 116.739 26.6945 115.823C27.5964 115.143 28.0542 114.047 27.4437 112.978Z" fill="#11131F"/>
<path d="M52.0441 125.72C51.392 125.067 50.7676 124.332 49.9768 123.846C48.8806 123.166 47.5903 122.833 46.4386 122.278C45.4119 121.792 44.2048 121.986 43.5943 123.027C43.0531 123.943 43.3168 125.373 44.3435 125.872C45.3148 126.344 46.3276 126.691 47.3128 127.136C48.0481 127.469 48.5338 128.079 49.1165 128.662C51.0174 130.564 53.945 127.621 52.058 125.72H52.0441Z" fill="#11131F"/>
<path d="M7.29724 98.7787C7.29724 98.7787 7.24174 98.7787 7.21399 98.7787C7.08911 98.7509 6.96424 98.7232 6.83936 98.6815C6.47861 98.5844 6.10399 98.515 5.72936 98.4872C4.92461 98.4178 4.16149 98.6538 3.48161 99.0563C1.17836 100.403 3.24574 103.97 5.54899 102.665C5.61836 102.665 5.70161 102.679 5.72936 102.693C6.24274 102.818 6.76999 102.915 7.29724 102.943C8.43499 102.998 9.37849 101.957 9.37849 100.861C9.37849 99.6948 8.43499 98.8342 7.29724 98.7787Z" fill="#11131F"/>
<path d="M22.8095 133.756C21.6995 135.561 21.5191 137.643 20.0206 139.225C18.1891 141.168 21.1167 144.111 22.9621 142.168C23.7669 141.321 24.4745 140.363 25.0156 139.322C25.5984 138.212 25.7371 136.949 26.4031 135.852C27.8045 133.562 24.2109 131.48 22.8095 133.756Z" fill="#11131F"/>
<path d="M69.6099 99.8196C69.4434 99.8196 69.2769 99.8196 69.1104 99.8196C69.0687 99.8196 68.8467 99.8057 68.7496 99.8057C68.7357 99.8057 68.708 99.8058 68.6941 99.7919C67.8616 99.0146 66.9459 98.5566 65.8081 98.4455C64.6842 98.3345 63.7269 99.4726 63.7269 100.528C63.7269 101.749 64.6842 102.498 65.8081 102.61C65.7249 102.61 65.6416 102.61 65.5722 102.596C65.6277 102.623 65.6694 102.651 65.6971 102.665C65.6971 102.679 65.7387 102.721 65.8359 102.804C66.266 103.192 66.6406 103.442 67.1817 103.664C67.9587 103.984 68.8051 103.998 69.6376 103.998C72.3155 103.998 72.3155 99.8474 69.6376 99.8474L69.6099 99.8196Z" fill="#11131F"/>
<path d="M117.132 59.2068C115.703 57.7632 114.371 56.2781 112.206 56.167C111.068 56.1115 110.125 57.1525 110.125 58.249C110.125 59.415 111.068 60.2755 112.206 60.331C111.956 60.2755 111.956 60.2755 112.206 60.331C112.234 60.331 112.262 60.3449 112.276 60.3588C112.373 60.4143 112.456 60.456 112.553 60.5254C112.581 60.5531 112.609 60.5531 112.622 60.567C112.65 60.5948 112.678 60.6225 112.747 60.6919C113.261 61.1361 113.719 61.6774 114.19 62.1632C114.981 62.9682 116.327 62.9544 117.132 62.1632C117.937 61.3582 117.923 60.0257 117.132 59.2206V59.2068Z" fill="#11131F"/>
<path d="M142.676 34.3616C140.719 34.431 139.138 35.4026 137.278 35.819C134.67 36.4158 135.78 40.4133 138.388 39.8303C139.831 39.5111 141.205 38.5672 142.69 38.5256C145.354 38.4284 145.367 34.2783 142.69 34.3755L142.676 34.3616Z" fill="#11131F"/>
<path d="M141.219 5.94923C140.234 7.64259 139.429 9.44699 138.444 11.1403C137.694 12.4312 136.432 13.3056 135.669 14.6103C134.323 16.9283 137.916 19.0242 139.262 16.7062C140.012 15.4154 141.274 14.541 142.037 13.2362C143.022 11.5429 143.827 9.73847 144.812 8.04511C146.158 5.72715 142.565 3.63127 141.219 5.94923Z" fill="#11131F"/>
<path d="M170.578 18.1498C169.746 17.8305 169.163 16.9422 168.636 16.276C168.053 15.5542 167.387 14.9574 166.776 14.2911C165.458 12.8615 163.224 11.7094 161.643 13.5C160.13 15.2072 162.045 17.5946 163.738 17.0116C164.362 17.539 165.111 18.5106 165.458 18.9132C166.652 20.3428 167.706 21.481 169.482 22.1611C170.537 22.5775 171.758 21.7169 172.035 20.7037C172.354 19.5239 171.633 18.5523 170.578 18.1498Z" fill="#11131F"/>
<path d="M170.731 -6.91756C169.718 -7.5144 168.511 -7.11188 167.887 -6.16804C167.581 -5.69612 167.29 -5.2242 166.985 -4.75228C166.943 -4.68288 166.499 -4.08604 166.679 -4.30812C166.596 -4.19708 166.499 -4.09992 166.402 -4.00276C166.374 -3.975 165.889 -3.57248 166.208 -3.80844C165.292 -3.15608 164.848 -2.00404 165.458 -0.963039C165.986 -0.0469589 167.373 0.43884 168.303 -0.213521C169.718 -1.22676 170.537 -2.64252 171.466 -4.07216C172.091 -5.016 171.661 -6.36236 170.717 -6.91756H170.731Z" fill="#11131F"/>
<path d="M191.224 5.40791C190.53 7.75363 190.78 10.141 190.808 12.5422C190.836 15.2211 194.984 15.2211 194.957 12.5422C194.943 10.5296 194.651 8.47539 195.234 6.51831C195.997 3.93663 191.987 2.85399 191.224 5.40791Z" fill="#11131F"/>
<path d="M42.3455 151.689C41.0274 150.398 39.6121 149.718 37.7667 149.691C36.629 149.677 35.6855 150.648 35.6855 151.773C35.6855 152.897 36.629 153.841 37.7667 153.855C37.8361 153.855 38.1969 153.896 38.3079 153.896C38.4189 153.924 38.5576 153.979 38.6131 153.993C38.7241 154.063 38.8629 154.146 38.8906 154.16C39.071 154.313 39.2514 154.479 39.4179 154.632C40.2226 155.423 41.5546 155.437 42.3594 154.632C43.1502 153.841 43.1641 152.48 42.3594 151.689H42.3455Z" fill="#11131F"/>
<path d="M6.25665 130.3H5.90978C4.20315 130.3 3.59265 131.994 4.0644 133.215C3.66203 134.2 3.88403 135.325 4.86915 135.908C5.7849 136.435 7.2279 136.185 7.71353 135.158C8.14365 134.242 8.3379 133.395 8.3379 132.382C8.3379 131.244 7.3944 130.3 6.25665 130.3Z" fill="#11131F"/>
<path d="M21.2277 161.044C19.0632 159.365 17.3427 157.338 14.3596 157.741C13.2357 157.894 12.6391 159.323 12.9027 160.295C13.2357 161.502 14.3319 161.891 15.4557 161.752C15.206 161.78 15.5112 161.849 15.5806 161.877C15.8442 162.002 16.1217 162.169 16.3437 162.349C17.0097 162.876 17.6202 163.459 18.2862 163.987C19.1742 164.681 20.3536 164.861 21.2277 163.987C21.9492 163.265 22.1296 161.738 21.2277 161.044Z" fill="#11131F"/>
<path d="M30.2049 180.865C29.9551 180.379 29.6638 179.907 29.4001 179.435C29.3169 179.283 29.2475 179.144 29.1781 178.991C29.1643 178.95 29.1504 178.936 29.1365 178.922C29.1365 178.922 29.1088 178.811 29.081 178.769C29.2753 177.784 28.4983 176.729 27.5686 176.465C26.3893 176.146 25.418 176.854 25.0156 177.922C24.3496 179.644 25.862 181.545 26.6113 182.989C27.1246 184.002 28.5121 184.279 29.4556 183.738C30.4685 183.141 30.7183 181.906 30.2049 180.893V180.865Z" fill="#11131F"/>
<path d="M9.44786 183.905C8.64311 183.1 7.31111 183.1 6.50636 183.905C5.85424 184.557 5.17436 185.196 4.50836 185.654C3.57874 186.292 3.16249 187.472 3.75911 188.499C4.30024 189.429 5.65999 189.887 6.60349 189.248C7.64411 188.541 8.55986 187.736 9.44786 186.847C10.2526 186.042 10.2526 184.71 9.44786 183.905Z" fill="#11131F"/>
<path d="M20.7283 204.905C20.4785 204.156 20.1316 203.226 20.1039 202.684C20.0761 201.546 19.1881 200.602 18.0226 200.602C16.8571 200.602 15.9136 201.546 15.9414 202.684C15.9691 203.878 16.3299 204.905 16.7045 206.002C17.0653 207.07 18.1198 207.764 19.2575 207.459C20.2981 207.168 21.0751 205.974 20.7144 204.905H20.7283Z" fill="#11131F"/>
<path d="M11.1823 224.087C10.3636 223.241 9.65602 222.394 8.75415 221.672C8.49052 221.353 8.19915 221.075 7.81065 220.826C7.64415 220.728 7.46377 220.645 7.29727 220.562C7.24177 220.534 7.2279 220.534 7.21402 220.52C5.71552 218.577 2.38552 220.59 3.77302 222.797C4.1199 223.338 4.5084 223.713 5.04952 224.06C5.21602 224.157 5.3964 224.24 5.5629 224.323C5.6184 224.365 5.63227 224.365 5.66002 224.379C5.71552 224.448 5.75715 224.518 5.8404 224.601C6.27052 225.031 6.75615 225.35 7.18627 225.808C7.54702 226.211 7.8939 226.627 8.26852 227.016C10.1278 228.945 13.0693 226.003 11.21 224.073L11.1823 224.087Z" fill="#11131F"/>
<path d="M16.2883 242.52C14.9979 242.576 13.9018 242.978 12.7501 243.45C12.6114 243.505 12.5559 243.547 12.5281 243.561C12.5004 243.561 12.4865 243.561 12.4588 243.561C12.1396 243.561 11.8344 243.63 11.5291 243.686C10.655 243.866 10.0306 244.602 9.78088 245.421C9.17038 247.434 11.4736 248.516 12.8889 247.697C13.3329 247.683 13.7075 247.517 14.096 247.35C14.8036 247.059 15.5113 246.698 16.2883 246.67C18.9523 246.573 18.9661 242.409 16.2883 242.52Z" fill="#11131F"/>
<path d="M10.4191 267.046C9.55886 266.519 8.62924 266.241 7.65799 266.019C7.20011 265.922 6.72836 265.713 6.25661 265.713C6.17336 265.713 6.07624 265.713 5.99299 265.713C5.96524 265.7 5.95136 265.686 5.92361 265.658C5.02174 264.964 3.60649 265.519 3.07924 266.407C2.45486 267.476 2.92661 268.559 3.82849 269.253C4.14761 269.489 4.52224 269.642 4.91074 269.739C5.17436 269.78 5.42411 269.822 5.68774 269.85C5.71549 269.85 6.28436 269.975 6.00686 269.891C6.81161 270.141 7.61636 270.197 8.33786 270.641C10.6272 272.043 12.7224 268.448 10.433 267.046H10.4191Z" fill="#11131F"/>
<path d="M92.6424 81.0123C92.4065 80.4571 91.9209 80.0268 91.3381 79.8463C90.8109 79.4577 90.1032 79.305 89.4927 79.4716C88.3134 79.7908 87.8555 80.9151 88.0359 82.0255C88.0636 82.2059 88.1191 82.3586 88.1885 82.5113C88.2162 82.5529 88.244 82.5946 88.2579 82.6501C88.2995 82.7334 88.3411 82.8167 88.3966 82.8861C88.6186 83.2192 88.8961 83.5245 89.1597 83.7744C89.909 84.4545 90.7415 84.857 91.7544 84.9403C92.8782 85.0375 93.8356 83.9132 93.8356 82.8583C93.8356 81.9839 93.3361 81.3454 92.6285 81.0123H92.6424Z" fill="#11131F"/>
<path d="M226.814 5.54671C225.135 4.71391 223.498 4.24198 221.611 4.2281C218.933 4.20034 218.933 8.35046 221.611 8.37822C222.79 8.39211 223.692 8.62807 224.719 9.12775C225.731 9.62743 226.952 9.40534 227.563 8.37822C228.104 7.44826 227.827 6.03251 226.814 5.53283V5.54671Z" fill="#11131F"/>
<path d="M247.585 -3.04504C245.448 -3.01728 243.339 -2.4482 241.965 -0.699323C241.258 0.188997 241.091 1.36879 241.965 2.24324C242.701 2.97887 244.199 3.13155 244.907 2.24324C245.725 1.20224 246.28 1.13284 247.598 1.11896C250.276 1.0912 250.276 -3.05892 247.598 -3.03116L247.585 -3.04504Z" fill="#11131F"/>
<path d="M286.421 2.82625C285.283 1.07737 284.173 -1.18507 281.648 -0.546588C280.552 -0.268988 279.899 0.938572 280.191 2.00733C280.427 2.85401 281.148 3.40921 281.953 3.50637C282.258 3.96441 282.522 4.46409 282.827 4.93601C283.438 5.87985 284.659 6.26849 285.671 5.68553C286.615 5.13033 287.031 3.79785 286.421 2.84013V2.82625Z" fill="#11131F"/>
<path d="M324.868 2.40981C325.076 2.65965 324.757 2.14609 324.757 2.13221C324.716 2.03505 324.646 1.96565 324.591 1.88237C324.535 1.70193 324.48 1.53537 324.383 1.35493C324.272 1.14673 324.105 0.966293 323.952 0.799733C323.661 -0.0191872 322.995 -0.616028 322.024 -0.616028C320.969 -0.616028 319.845 0.327812 319.943 1.46597C319.998 2.03505 320.081 2.45145 320.359 2.95113C320.484 3.11769 320.622 3.29813 320.747 3.46469C320.886 3.70065 321.358 4.53345 321.177 4.24197C321.427 4.63061 321.635 4.99149 321.941 5.35237C322.676 6.21293 324.133 6.10189 324.882 5.35237C325.728 4.50569 325.617 3.27037 324.882 2.40981H324.868Z" fill="#11131F"/>
<path d="M351.037 20.3011C349.996 17.4835 349.025 14.6242 348.608 11.64C348.456 10.5157 347.041 9.91888 346.055 10.1826C344.862 10.5157 344.446 11.6122 344.599 12.7365C345.015 15.7207 345.972 18.58 347.027 21.3976C347.956 23.8822 351.966 22.8134 351.037 20.2872V20.3011Z" fill="#11131F"/>
<path d="M367.811 -0.0192037C367.714 -0.116364 367.617 -0.213525 367.534 -0.310685C367.728 -0.102485 367.617 -0.255164 367.52 -0.393964C367.52 -0.435604 367.464 -0.518883 367.437 -0.588284C367.437 -0.671563 367.381 -0.921404 367.381 -0.963044C367.353 -2.1012 366.452 -3.04504 365.3 -3.04504C364.148 -3.04504 363.191 -2.1012 363.219 -0.963044C363.26 0.563756 363.801 1.82684 364.87 2.93723C365.661 3.75615 367.02 3.72839 367.811 2.93723C368.616 2.13219 368.602 0.813596 367.811 -0.00532341V-0.0192037Z" fill="#11131F"/>
<path d="M380.188 13.9302C379.3 13.958 378.412 14.1106 377.579 14.3882C377.163 14.527 376.775 14.7075 376.372 14.9018C376.247 14.9573 375.567 15.3182 375.692 15.3043C374.568 15.3876 373.611 16.1926 373.611 17.3863C373.611 18.4551 374.555 19.5516 375.692 19.4683C377.357 19.3434 378.537 18.1358 380.188 18.0803C382.866 17.997 382.866 13.833 380.188 13.9302Z" fill="#11131F"/>
<path d="M411.434 15.9151L409.353 13.8331C408.548 13.028 407.216 13.028 406.412 13.8331C405.607 14.6381 405.607 15.9706 406.412 16.7757L408.493 18.8577C409.298 19.6627 410.63 19.6627 411.434 18.8577C412.239 18.0526 412.239 16.7201 411.434 15.9151Z" fill="#11131F"/>
<path d="M408.854 36.2354C408.535 35.0695 407.411 34.5836 406.301 34.778C405.024 35.0139 403.9 35.5969 403.137 36.6656C402.471 37.5817 402.36 38.7893 402.346 39.8997C402.346 41.0379 403.304 41.9817 404.428 41.9817C405.551 41.9817 406.495 41.0379 406.509 39.8997C406.509 39.7748 406.55 39.2751 406.55 39.1779C406.55 39.1224 406.578 39.053 406.592 38.9975C406.606 38.9975 406.62 38.9836 406.634 38.9697C406.647 38.9697 406.661 38.9697 406.675 38.9697C406.911 38.8864 407.161 38.8448 407.411 38.7893C408.521 38.5811 409.145 37.2486 408.867 36.2354H408.854Z" fill="#11131F"/>
<path d="M387.888 30.1143C387.084 29.3092 385.752 29.3092 384.947 30.1143C383.726 31.3357 382.685 32.5572 382.602 34.3477C382.56 35.4858 383.587 36.4297 384.683 36.4297C385.849 36.4297 386.709 35.4858 386.765 34.3477V34.3199C386.765 34.3199 386.792 34.2505 386.82 34.1811C386.709 34.5142 386.834 34.2644 386.917 34.1117C386.959 34.0701 387.181 33.7786 387.195 33.7786C387.417 33.5288 387.666 33.2928 387.902 33.0568C388.707 32.2518 388.707 30.9193 387.902 30.1143H387.888Z" fill="#11131F"/>
<path d="M432.538 25.8393C432.08 28.1711 430.832 30.2115 430.734 32.6266C430.623 35.3054 434.786 35.2915 434.883 32.6266C434.966 30.6556 436.16 28.8651 436.534 26.9497C437.048 24.3263 433.038 23.2159 432.524 25.8393H432.538Z" fill="#11131F"/>
<path d="M436.548 2.63192C436.271 1.61868 435.05 0.785878 433.995 1.17452C432.594 1.70196 431.414 2.52088 430.679 3.86724C430.193 4.75556 429.985 5.96312 429.347 6.24072C428.306 6.68488 428.084 8.1978 428.598 9.08612C429.222 10.1549 430.401 10.2798 431.442 9.83564C432.51 9.39148 433.232 8.32272 433.731 7.32336C434.217 6.33788 434.134 5.5606 435.105 5.19972C436.16 4.7972 436.881 3.81172 436.562 2.6458L436.548 2.63192Z" fill="#11131F"/>
<path d="M461.287 17.6501C459.442 15.7624 457.832 13.7082 454.974 13.5832C452.296 13.4722 452.31 17.6223 454.974 17.7334C456.195 17.7889 457.43 19.6488 458.36 20.5926C460.233 22.5081 463.174 19.5655 461.301 17.6501H461.287Z" fill="#11131F"/>
<path d="M451.228 47.159C450.784 46.4511 450.687 45.4656 450.395 44.5356C450.062 43.453 448.952 42.7729 447.842 43.0782C446.774 43.3697 446.052 44.5495 446.385 45.6322C446.774 46.8814 446.927 48.1167 447.634 49.241C448.231 50.1987 449.48 50.5734 450.479 49.9905C451.436 49.4353 451.824 48.1028 451.228 47.1451V47.159Z" fill="#11131F"/>
<path d="M427.196 54.5848C426.558 52.5028 426.586 50.3652 426.572 48.2138C426.572 45.535 422.409 45.535 422.409 48.2138C422.409 50.7261 422.437 53.2662 423.173 55.6952C423.95 58.2491 427.959 57.1664 427.182 54.5848H427.196Z" fill="#11131F"/>
<path d="M449.785 64.4951C449.258 64.4951 448.73 64.4951 448.203 64.4396C448.148 64.4396 448.12 64.4396 448.078 64.4396C447.939 64.4118 447.801 64.384 447.662 64.3563C447.523 64.3285 447.384 64.2869 447.246 64.2314C447.593 64.3424 447.038 64.1064 447.01 64.0926C444.721 62.6907 442.625 66.2856 444.915 67.6875C446.358 68.5758 448.12 68.6591 449.771 68.6591C452.449 68.6591 452.449 64.509 449.771 64.509L449.785 64.4951Z" fill="#11131F"/>
<path d="M468.044 39.1224C466.032 41.1072 462.994 44.5772 466.393 46.8952C467.323 47.5337 468.696 47.0756 469.238 46.1457C469.654 45.4378 469.584 44.6605 469.182 44.0359C469.182 44.0359 469.182 44.0082 469.196 44.0082C469.251 43.911 469.321 43.8277 469.376 43.7444C469.39 43.7167 469.404 43.7167 469.446 43.6612C469.917 43.0921 470.459 42.5924 470.972 42.0788C472.887 40.1912 469.945 37.2486 468.03 39.1363L468.044 39.1224Z" fill="#11131F"/>
<path d="M477.743 10.9044C477.743 10.9044 477.743 10.8766 477.729 10.8628C477.674 10.6962 477.632 10.5158 477.59 10.3492C477.59 10.3076 477.549 10.1271 477.535 10.0438C477.535 9.93279 477.507 9.82175 477.507 9.69683C477.493 9.37759 477.479 9.05835 477.479 8.73911C477.479 6.06027 473.317 6.06027 473.331 8.73911C473.331 11.1542 473.83 14.1939 476.591 14.9018C479.172 15.5542 480.268 11.6123 477.743 10.9183V10.9044Z" fill="#11131F"/>
<path d="M498.056 0.327801C497.112 -0.199638 496.336 -0.921398 495.35 -1.39332C494.24 -1.93464 493.033 -2.0318 491.812 -2.0318C489.134 -2.0318 489.134 2.11832 491.812 2.11832C492.575 2.11832 493.214 2.11832 493.88 2.52084C494.587 2.95112 495.226 3.50632 495.961 3.90884C498.306 5.21356 500.401 1.61864 498.056 0.313921V0.327801Z" fill="#11131F"/>
<path d="M507.533 21.3421C507.116 20.0652 506.756 18.7743 506.187 17.5529C505.909 16.956 505.881 16.1371 505.757 15.4986C505.604 14.6936 505.299 13.9302 504.896 13.2223C503.578 10.8905 499.985 12.9864 501.317 15.3182C501.872 16.3037 501.899 17.539 502.149 18.6355C502.427 19.8847 503.134 21.2033 503.537 22.4525C504.355 24.9926 508.365 23.9099 507.546 21.3421H507.533Z" fill="#11131F"/>
<path d="M490.3 35.3332C490.3 35.3332 490.217 35.2777 490.189 35.2499C490.161 35.2222 490.133 35.1944 490.064 35.125C490.036 35.0972 489.925 34.9584 489.87 34.889C489.814 34.8058 489.773 34.7364 489.731 34.6531C489.731 34.6392 489.551 34.2089 489.523 34.1395C489.162 33.0708 488.108 32.3768 486.97 32.6821C485.929 32.9736 485.152 34.1673 485.513 35.236C486.054 36.8045 486.831 37.9426 488.205 38.9004C489.134 39.5527 490.508 39.0669 491.049 38.1508C491.66 37.1098 491.229 35.9578 490.3 35.3054V35.3332Z" fill="#11131F"/>
<path d="M493.144 55.0567C492.34 54.2516 491.007 54.2516 490.203 55.0567C489.911 55.3481 489.606 55.6396 489.301 55.9033C489.551 55.6951 488.996 56.0977 489.01 56.0977C488.926 56.1393 488.912 56.1532 488.871 56.1671C488.815 56.1809 488.774 56.1948 488.76 56.1948C487.691 56.3197 486.831 57.1248 486.831 58.2491C486.831 59.3733 487.775 60.4005 488.912 60.3311C490.661 60.22 491.951 59.1929 493.144 57.9853C493.949 57.1803 493.949 55.8478 493.144 55.0428V55.0567Z" fill="#11131F"/>
<path d="M476.439 70.7271C476.397 68.0483 472.235 68.0483 472.276 70.7271C472.304 72.129 472.595 73.2394 472.623 74.5441C472.665 77.223 476.827 77.223 476.772 74.5441C476.744 73.1423 476.453 72.0319 476.425 70.7271H476.439Z" fill="#11131F"/>
<path d="M517.647 39.5527C517.647 38.4562 516.704 37.4291 515.566 37.4707C512.916 37.5956 511.473 39.8303 511.404 42.3148C511.376 43.453 512.375 44.3968 513.485 44.3968C514.595 44.3968 515.538 43.453 515.566 42.3148C515.566 42.2177 515.566 42.1344 515.566 42.0372C515.566 42.0095 515.566 41.9817 515.58 41.9401C515.608 41.8429 515.636 41.7596 515.663 41.6625C515.663 41.6486 515.677 41.6347 515.691 41.5931C516.76 41.482 517.62 40.6492 517.62 39.5388L517.647 39.5527Z" fill="#11131F"/>
<path d="M528.234 4.6445C527.055 4.32526 526.097 5.04702 525.681 6.1019C525.487 6.60158 524.543 7.54542 524.294 7.82302C523.322 8.85014 522.892 10.1132 522.851 11.5151C522.753 14.1939 526.916 14.1939 526.999 11.5151C527.013 10.9183 527.582 10.2937 527.804 10.0299C528.553 9.09998 529.247 8.35046 529.705 7.2123C530.121 6.15742 529.261 4.93598 528.248 4.65838L528.234 4.6445Z" fill="#11131F"/>
<path d="M549.907 6.29625C548.866 4.15873 548.172 1.85465 547.132 -0.282866C545.966 -2.69799 542.387 -0.588226 543.552 1.81301C544.593 3.95053 545.287 6.25461 546.327 8.39213C547.493 10.8073 551.072 8.69749 549.907 6.29625Z" fill="#11131F"/>
<path d="M544.038 29.4203C543.663 29.0455 543.288 28.6708 542.942 28.2683C542.65 27.9213 542.484 27.5049 542.137 27.1856C541.845 26.8941 541.526 26.6304 541.221 26.3528C541.055 26.1863 540.791 25.9225 540.749 25.8393C540.333 24.7844 539.376 24.0626 538.196 24.3819C537.197 24.6595 536.337 25.8809 536.739 26.9358C537.197 28.1017 537.905 28.9623 538.835 29.7951C539.584 30.4613 540.278 31.5439 541.082 32.3629C542.969 34.2644 545.911 31.3219 544.024 29.4203H544.038Z" fill="#11131F"/>
<path d="M536.06 54.7791C535.199 53.5437 534.977 52.1141 534.963 50.6289C534.936 47.9501 530.773 47.9501 530.815 50.6289C530.843 52.7803 531.217 55.0705 532.48 56.8749C533.132 57.8049 534.284 58.2352 535.324 57.6245C536.24 57.0831 536.726 55.709 536.073 54.7791H536.06Z" fill="#11131F"/>
<path d="M513.554 62.3992C513.277 61.8718 512.999 61.3721 512.833 60.803C512.888 60.8585 512.888 60.5254 512.944 60.3588C513.069 59.9008 513.124 59.415 513.152 58.9431C513.221 57.8049 512.153 56.8611 511.071 56.8611C509.877 56.8611 509.059 57.8049 508.989 58.9431C508.962 59.2762 508.823 59.6232 508.74 59.9563C508.587 60.5809 508.684 61.1639 508.781 61.7885C508.934 62.7462 509.531 63.6484 509.961 64.4951C511.196 66.8824 514.775 64.7727 513.54 62.3992H513.554Z" fill="#11131F"/>
<path d="M501.65 77.0981C501.358 76.0433 500.165 75.2937 499.097 75.6407C497.001 76.3347 494.31 77.1259 494.116 79.7215C494.018 80.8457 495.128 81.8035 496.197 81.8035C497.113 81.8035 497.779 81.2621 498.084 80.4987C498.278 80.3738 498.486 80.2628 498.708 80.1795C498.791 80.1517 498.916 80.0962 498.958 80.0823C499.11 80.0268 499.263 79.9713 499.416 79.9158C499.679 79.8325 499.943 79.7492 500.207 79.652C501.289 79.2912 501.969 78.2363 501.664 77.0981H501.65Z" fill="#11131F"/>
<path d="M487.788 98.5704C487.553 97.4739 487.483 96.3635 487.317 95.267C487.109 93.879 486.47 92.7408 485.846 91.4916C484.653 89.0904 481.059 91.2002 482.266 93.5875C482.696 94.462 483.168 95.2531 483.293 96.2386C483.446 97.3906 483.529 98.5427 483.792 99.6808C484.375 102.29 488.385 101.18 487.802 98.5704H487.788Z" fill="#11131F"/>
<path d="M506.214 96.0165H504.133C501.455 96.0165 501.455 100.167 504.133 100.167H506.214C508.892 100.167 508.892 96.0165 506.214 96.0165Z" fill="#11131F"/>
<path d="M526.736 91.7692C525.695 90.7282 524.682 89.8122 524.155 88.5352C523.725 87.4942 522.795 86.7586 521.602 87.0778C520.617 87.3554 519.715 88.5907 520.145 89.6317C520.991 91.6443 522.268 93.1711 523.794 94.6979C525.695 96.5995 528.623 93.6569 526.736 91.7554V91.7692Z" fill="#11131F"/>
<path d="M534.27 72.1152C534.089 72.1152 533.923 72.1152 533.743 72.1152C533.673 72.1152 533.451 72.0874 533.312 72.0874C533.285 72.0874 533.257 72.0735 533.215 72.0596C532.868 71.4767 532.258 71.0742 531.495 71.0742C530.426 71.0742 529.33 72.018 529.414 73.1562C529.622 75.7378 532.105 76.2653 534.256 76.2792C536.934 76.2792 536.934 72.129 534.256 72.129L534.27 72.1152Z" fill="#11131F"/>
<path d="M529.719 161.155C528.137 159.962 526.555 158.935 524.724 158.171C523.683 157.741 522.434 158.629 522.171 159.629C521.838 160.822 522.573 161.752 523.628 162.183C525.084 162.793 526.375 163.806 527.637 164.75C528.539 165.43 529.955 164.903 530.482 164.001C531.106 162.946 530.648 161.835 529.733 161.155H529.719Z" fill="#11131F"/>
<path d="M510.377 120.196C509.42 119.585 508.407 119.099 507.311 118.766C506.076 118.405 504.716 118.53 503.439 118.53C500.762 118.53 500.762 122.68 503.439 122.68C504.203 122.68 505.035 122.583 505.798 122.68C506.714 122.805 507.519 123.291 508.282 123.777C510.543 125.234 512.625 121.639 510.377 120.182V120.196Z" fill="#11131F"/>
<path d="M531.897 119.557C531.231 118.474 530.912 117.225 530.177 116.17C529.233 114.81 527.943 113.88 526.292 113.686C525.168 113.547 524.21 114.727 524.21 115.768C524.21 116.906 525.029 117.586 526.028 117.794C525.973 117.794 526.028 117.85 526.236 117.947C526.236 117.947 526.514 118.238 526.555 118.266C526.833 118.53 526.985 118.891 527.166 119.238C527.568 120.043 527.832 120.889 528.317 121.667C529.733 123.943 533.326 121.847 531.897 119.571V119.557Z" fill="#11131F"/>
<path d="M545.425 93.5043C544.634 92.7131 543.275 92.6854 542.484 93.5043C542.137 93.8652 541.832 94.2677 541.526 94.6702C541.401 94.8368 541.29 95.0033 541.166 95.1699C541.166 95.1699 541.166 95.1837 541.152 95.1976C541.138 95.2115 541.124 95.2254 541.096 95.2531C540.333 96.0859 540.278 97.3629 541.096 98.1957C541.873 98.973 543.261 99.0285 544.038 98.1957C544.593 97.585 544.967 96.9465 545.425 96.4607C546.202 95.6418 546.244 94.3371 545.425 93.5181V93.5043Z" fill="#11131F"/>
<path d="M70.9974 552.974H67.8755C67.1817 552.974 65.7249 552.377 65.1144 552.682C62.7279 553.89 60.6327 550.309 63.0192 549.088C64.2125 548.477 65.3086 548.435 66.6129 548.657C68.0559 548.893 69.5266 548.81 70.9974 548.81C73.6752 548.81 73.6752 552.96 70.9974 552.96V552.974Z" fill="#11131F"/>
<path d="M15.8859 552.988C15.2337 551.794 14.9146 550.823 14.9146 549.448V545.701C14.9146 543.022 19.0632 543.022 19.0632 545.701V548.671C19.0632 549.643 19.0355 550.059 19.4656 550.878C20.7421 553.238 17.1485 555.334 15.872 552.974L15.8859 552.988Z" fill="#11131F"/>
<path d="M45.4397 531.155C43.6637 533.709 41.18 535.041 38.4605 536.401C36.074 537.595 33.965 534.014 36.3654 532.806C38.3357 531.821 40.5557 530.919 41.846 529.045C43.3584 526.852 46.9659 528.934 45.4397 531.141V531.155Z" fill="#11131F"/>
<path d="M27.4437 516.955C26.9165 517.858 25.5151 518.385 24.5994 517.705C23.3784 516.803 22.1435 515.97 20.7837 515.276C19.7709 514.762 19.4934 513.36 20.0345 512.43C20.6311 511.417 21.866 511.167 22.8789 511.681C24.2386 512.361 25.4735 513.194 26.6945 514.11C27.5964 514.79 28.0542 515.901 27.4437 516.955Z" fill="#11131F"/>
<path d="M52.0441 504.214C51.392 504.866 50.7676 505.602 49.9768 506.087C48.8806 506.767 47.5903 507.101 46.4386 507.656C45.4119 508.142 44.2048 507.947 43.5943 506.906C43.0531 505.99 43.3168 504.561 44.3435 504.061C45.3148 503.589 46.3276 503.242 47.3128 502.798C48.0481 502.465 48.5338 501.854 49.1165 501.271C51.0174 499.369 53.945 502.312 52.058 504.214H52.0441Z" fill="#11131F"/>
<path d="M7.29724 531.155C7.29724 531.155 7.24174 531.155 7.21399 531.155C7.08911 531.182 6.96424 531.21 6.83936 531.252C6.47861 531.349 6.10399 531.418 5.72936 531.446C4.92461 531.515 4.16149 531.28 3.48161 530.877C1.17836 529.531 3.24574 525.963 5.54899 527.268C5.61836 527.268 5.70161 527.254 5.72936 527.24C6.24274 527.116 6.76999 527.018 7.29724 526.991C8.43499 526.935 9.37849 527.976 9.37849 529.073C9.37849 530.239 8.43499 531.099 7.29724 531.155Z" fill="#11131F"/>
<path d="M22.8095 496.177C21.6995 494.373 21.5191 492.304 20.0206 490.708C18.1891 488.765 21.1167 485.823 22.9621 487.766C23.7669 488.612 24.4745 489.57 25.0156 490.611C25.5984 491.721 25.7371 492.985 26.4031 494.081C27.8045 496.371 24.2109 498.453 22.8095 496.177Z" fill="#11131F"/>
<path d="M69.6099 530.114C69.4434 530.114 69.2769 530.114 69.1104 530.114C69.0687 530.114 68.8467 530.127 68.7496 530.127C68.7357 530.127 68.708 530.127 68.6941 530.127C67.8616 530.905 66.9459 531.363 65.8081 531.474C64.6842 531.585 63.7269 530.447 63.7269 529.392C63.7269 528.17 64.6842 527.421 65.8081 527.31C65.7249 527.31 65.6416 527.31 65.5722 527.324C65.6277 527.296 65.6694 527.268 65.6971 527.254C65.6971 527.254 65.7387 527.199 65.8359 527.115C66.266 526.727 66.6406 526.477 67.1817 526.255C67.9587 525.936 68.8051 525.922 69.6376 525.922C72.3155 525.922 72.3155 530.072 69.6376 530.072L69.6099 530.114Z" fill="#11131F"/>
<path d="M42.3455 478.244C41.0274 479.535 39.6121 480.215 37.7667 480.243C36.629 480.257 35.6855 479.285 35.6855 478.161C35.6855 477.036 36.629 476.093 37.7667 476.079C37.8361 476.079 38.1969 476.037 38.3079 476.037C38.4189 476.009 38.5576 475.954 38.6131 475.94C38.7241 475.871 38.8629 475.787 38.8906 475.773C39.071 475.621 39.2514 475.468 39.4179 475.301C40.2226 474.51 41.5546 474.496 42.3594 475.301C43.1502 476.093 43.1641 477.453 42.3594 478.244H42.3455Z" fill="#11131F"/>
<path d="M6.25665 499.633H5.90978C4.20315 499.633 3.59265 497.94 4.0644 496.718C3.66203 495.733 3.88403 494.608 4.86915 494.026C5.7849 493.498 7.2279 493.748 7.71353 494.775C8.14365 495.691 8.3379 496.538 8.3379 497.551C8.3379 498.689 7.3944 499.633 6.25665 499.633Z" fill="#11131F"/>
<path d="M21.2277 468.889C19.0632 470.568 17.3427 472.595 14.3596 472.192C13.2357 472.04 12.6391 470.624 12.9027 469.638C13.2357 468.431 14.3319 468.028 15.4557 468.181C15.206 468.153 15.5112 468.084 15.5806 468.056C15.8442 467.931 16.1217 467.765 16.3437 467.584C17.0097 467.057 17.6202 466.474 18.2862 465.946C19.1742 465.252 20.3536 465.072 21.2277 465.946C21.9492 466.668 22.1296 468.195 21.2277 468.889Z" fill="#11131F"/>
<path d="M30.2049 449.068C29.9551 449.554 29.6638 450.026 29.4001 450.512C29.3169 450.651 29.2475 450.803 29.1781 450.956C29.1643 450.998 29.1504 451.011 29.1365 451.025C29.1365 451.025 29.1088 451.136 29.081 451.192C29.2753 452.177 28.4983 453.232 27.5686 453.496C26.3893 453.815 25.418 453.093 25.0156 452.052C24.3496 450.331 25.862 448.43 26.6113 446.986C27.1246 445.987 28.5121 445.695 29.4556 446.237C30.4685 446.834 30.7183 448.069 30.2049 449.082V449.068Z" fill="#11131F"/>
<path d="M9.44786 446.029C8.64311 446.834 7.31111 446.834 6.50636 446.029C5.85424 445.376 5.17436 444.738 4.50836 444.28C3.57874 443.641 3.16249 442.461 3.75911 441.434C4.30024 440.504 5.65999 440.046 6.60349 440.685C7.64411 441.393 8.55986 442.198 9.44786 443.086C10.2526 443.891 10.2526 445.224 9.44786 446.029Z" fill="#11131F"/>
<path d="M20.7283 425.028C20.4785 425.778 20.1316 426.708 20.1039 427.249C20.0761 428.387 19.1881 429.331 18.0226 429.331C16.8571 429.331 15.9136 428.387 15.9414 427.249C15.9691 426.055 16.3299 425.028 16.7045 423.932C17.0653 422.863 18.1198 422.169 19.2575 422.474C20.2981 422.766 21.0751 423.959 20.7144 425.028H20.7283Z" fill="#11131F"/>
<path d="M11.1823 405.86C10.3636 406.707 9.65602 407.553 8.75415 408.275C8.49052 408.594 8.19915 408.872 7.81065 409.122C7.64415 409.233 7.46377 409.302 7.29727 409.385C7.24177 409.413 7.2279 409.413 7.21402 409.427C5.71552 411.37 2.38552 409.358 3.77302 407.151C4.1199 406.609 4.5084 406.235 5.04952 405.888C5.21602 405.79 5.3964 405.707 5.5629 405.624C5.6184 405.582 5.63227 405.582 5.66002 405.568C5.71552 405.499 5.75715 405.43 5.8404 405.346C6.27052 404.916 6.75615 404.597 7.18627 404.139C7.54702 403.736 7.8939 403.32 8.26852 402.931C10.1278 401.002 13.0693 403.944 11.21 405.874L11.1823 405.86Z" fill="#11131F"/>
<path d="M16.2883 387.413C14.9979 387.358 13.9018 386.955 12.7501 386.483C12.6114 386.428 12.5559 386.386 12.5281 386.372H12.4588C12.1396 386.372 11.8344 386.303 11.5291 386.247C10.655 386.067 10.0306 385.331 9.78088 384.512C9.17038 382.5 11.4736 381.417 12.8889 382.236C13.3329 382.25 13.7075 382.416 14.096 382.583C14.8036 382.875 15.5113 383.235 16.2883 383.263C18.9523 383.36 18.9661 387.524 16.2883 387.427V387.413Z" fill="#11131F"/>
<path d="M10.4191 362.887C9.55886 363.415 8.62924 363.692 7.65799 363.914C7.20011 364.012 6.72836 364.22 6.25661 364.22C6.17336 364.22 6.07624 364.22 5.99299 364.22C5.96524 364.234 5.95136 364.248 5.92361 364.275C5.02174 364.969 3.60649 364.414 3.07924 363.526C2.45486 362.457 2.92661 361.374 3.82849 360.68C4.14761 360.444 4.52224 360.292 4.91074 360.195C5.17436 360.153 5.42411 360.111 5.68774 360.084C5.71549 360.084 6.28436 359.959 6.00686 360.042C6.81161 359.792 7.61636 359.737 8.33786 359.292C10.6272 357.891 12.7224 361.485 10.433 362.887H10.4191Z" fill="#11131F"/>
<path d="M92.6424 548.935C92.4065 549.49 91.9209 549.92 91.3381 550.101C90.8109 550.489 90.1032 550.642 89.4927 550.476C88.3134 550.156 87.8555 549.032 88.0359 547.922C88.0636 547.741 88.1191 547.589 88.1885 547.436C88.2162 547.394 88.244 547.353 88.2579 547.297C88.2995 547.214 88.3411 547.131 88.3966 547.061C88.6186 546.728 88.8961 546.423 89.1597 546.187C89.909 545.493 90.7415 545.104 91.7544 545.021C92.8782 544.924 93.8356 546.048 93.8356 547.103C93.8356 547.977 93.3361 548.616 92.6285 548.949L92.6424 548.935Z" fill="#11131F"/>
<path d="M361.901 524.575C361.082 523.979 360.347 523.354 359.694 522.577C359.07 521.855 358.626 520.939 357.96 520.273C356.573 518.871 355.518 517.386 355.338 515.401C355.088 512.736 359.237 512.764 359.486 515.401C359.583 516.456 360.971 517.233 361.512 518.052C362.22 519.121 362.941 520.231 363.996 520.994C366.146 522.549 364.079 526.158 361.901 524.575Z" fill="#11131F"/>
<path d="M390.344 504.352C389.762 504.033 389.262 503.589 388.79 503.131C388.624 502.978 388.471 502.812 388.305 502.659C387.333 502.354 386.82 501.09 387.07 500.16C387.403 498.967 388.513 498.55 389.623 498.703C390.289 498.8 390.872 499.342 391.33 499.8C391.552 500.008 391.76 500.23 391.982 500.438C392.079 500.521 392.162 500.605 392.259 500.688C391.926 500.41 392.342 500.716 392.412 500.757C393.397 501.299 393.716 502.645 393.161 503.603C392.578 504.602 391.316 504.894 390.317 504.352H390.344Z" fill="#11131F"/>
<path d="M400.764 520.995C400.279 522.938 399.599 524.77 398.711 526.574C398.211 527.587 396.796 527.865 395.867 527.324C394.84 526.727 394.618 525.492 395.117 524.478C395.839 523.007 396.352 521.48 396.755 519.898C397.421 517.302 401.417 518.399 400.764 521.008V520.995Z" fill="#11131F"/>
<path d="M385.28 546.589C384.545 547.325 383.06 547.464 382.338 546.589C381.215 545.215 380.035 543.883 378.981 542.467C378.148 541.356 376.858 540.163 376.622 538.747C376.192 536.124 380.188 534.999 380.632 537.637C380.687 537.997 380.868 538.15 381.117 538.428C381.561 538.927 381.936 539.441 382.311 539.996C383.185 541.301 384.309 542.439 385.294 543.647C386.001 544.521 386.154 545.729 385.294 546.589H385.28Z" fill="#11131F"/>
<path d="M420.855 541.62C418.719 542.134 416.804 542.286 414.75 541.412C414.75 541.412 414.764 541.412 414.778 541.412C414.306 541.245 413.849 541.051 413.377 540.996C412.253 540.857 411.296 540.149 411.296 538.914C411.296 537.886 412.239 536.693 413.377 536.832C414.404 536.956 415.361 537.331 416.346 537.595C417.595 537.942 418.469 537.9 419.745 537.595C422.354 536.97 423.45 540.968 420.855 541.606V541.62Z" fill="#11131F"/>
<path d="M420.911 509.918C420.62 510.737 420.245 511.514 419.856 512.278C419.537 512.916 419.607 513.499 419.607 514.207C419.607 516.886 415.458 516.886 415.458 514.207C415.458 513.346 415.347 512.417 415.652 511.611C415.999 510.64 416.568 509.765 416.929 508.808C417.317 507.753 418.33 507.031 419.482 507.35C420.509 507.628 421.313 508.836 420.925 509.904L420.911 509.918Z" fill="#11131F"/>
<path d="M512.639 494.789C512.639 495.886 511.695 496.913 510.557 496.871C509.045 496.816 507.741 496.149 507.005 494.803C506.45 493.79 506.339 492.638 506.131 491.527C505.923 490.417 506.423 489.293 507.574 488.973C508.601 488.696 509.919 489.306 510.127 490.431C510.266 491.152 510.349 491.874 510.557 492.582C510.557 492.61 510.585 492.665 510.613 492.721C511.723 492.79 512.639 493.651 512.639 494.789Z" fill="#11131F"/>
<path d="M486.873 494.012C485.263 494.442 483.862 495.08 482.169 495.122C479.491 495.178 479.491 491.027 482.169 490.972C483.404 490.944 484.556 490.334 485.777 490C488.371 489.306 489.467 493.318 486.887 494.012H486.873Z" fill="#11131F"/>
<path d="M357.613 538.622C357.336 539.649 356.406 540.135 355.421 540.079C355.421 540.079 355.421 540.079 355.407 540.079C355.296 540.177 355.185 540.301 355.074 540.413C354.991 540.496 354.922 540.593 354.838 540.69C355.13 540.343 354.769 540.801 354.741 540.843C354.589 541.065 354.436 541.301 354.283 541.523C353.659 542.467 352.466 542.869 351.439 542.272C350.509 541.717 350.065 540.371 350.69 539.427C351.994 537.456 353.52 535.541 356.156 536.054C357.266 536.276 357.891 537.581 357.599 538.608L357.613 538.622Z" fill="#11131F"/>
<path d="M546.993 493.151C545.536 494.581 543.941 495.872 542.498 497.301C540.597 499.189 537.655 496.246 539.556 494.359C541.013 492.915 542.609 491.638 544.052 490.208C545.952 488.321 548.894 491.263 546.993 493.151Z" fill="#11131F"/>
<path d="M443.638 517.191C442.861 517.969 441.474 518.024 440.697 517.191C440.267 516.733 439.934 516.22 439.642 515.665C439.517 515.429 439.393 515.179 439.282 514.929C439.226 514.818 439.157 514.693 439.087 514.582C439.059 514.526 439.046 514.499 439.032 514.471C439.018 514.457 439.004 514.443 438.976 514.415C438.213 513.583 438.144 512.306 438.976 511.473C439.753 510.695 441.141 510.64 441.918 511.473C442.348 511.931 442.681 512.444 442.972 513C443.097 513.236 443.222 513.485 443.347 513.721C443.402 513.832 443.472 513.957 443.541 514.068C443.569 514.124 443.583 514.152 443.597 514.179C443.61 514.193 443.624 514.207 443.652 514.235C444.415 515.068 444.471 516.345 443.652 517.177L443.638 517.191Z" fill="#11131F"/>
<path d="M436.992 540.038C435.952 540.648 434.8 540.218 434.148 539.288C434.134 539.26 434.12 539.247 434.106 539.233C434.092 539.205 434.078 539.191 434.051 539.163C433.87 538.955 433.69 538.747 433.51 538.539C433.107 538.067 432.719 537.581 432.358 537.081C431.595 536.026 431.29 534.819 431.525 533.542C431.72 532.431 433.066 531.807 434.078 532.084C435.105 532.376 435.577 533.278 435.535 534.264C435.535 534.291 435.535 534.319 435.535 534.333C435.549 534.361 435.563 534.389 435.591 534.444C435.785 534.819 436.007 535.096 436.146 535.263C436.673 535.901 437.242 536.512 437.728 537.192C438.38 538.122 437.894 539.496 436.978 540.038H436.992Z" fill="#11131F"/>
<path d="M461.218 531.363C461.218 531.46 461.218 531.557 461.218 531.654C461.218 534.333 457.055 534.333 457.055 531.654C457.055 530.544 457.263 529.642 458.013 528.795C458.762 527.948 460.191 528.031 460.954 528.795C461.676 529.517 461.703 530.544 461.218 531.363Z" fill="#11131F"/>
<path d="M310.702 528.337C310.702 528.434 310.702 528.531 310.702 528.628C310.702 531.307 306.539 531.307 306.539 528.628C306.539 527.518 306.747 526.616 307.497 525.769C308.246 524.922 309.675 525.006 310.438 525.769C311.16 526.491 311.187 527.518 310.702 528.337Z" fill="#11131F"/>
<path d="M461.273 496.677C460.621 497.676 460.191 498.786 459.539 499.8C458.929 500.757 457.708 501.132 456.695 500.549C455.751 499.994 455.335 498.661 455.945 497.704C456.597 496.704 457.028 495.594 457.68 494.581C458.29 493.637 459.511 493.248 460.524 493.831C461.468 494.386 461.884 495.719 461.273 496.677Z" fill="#11131F"/>
<path d="M383.171 516.247C382.533 517.247 382.089 518.357 381.437 519.37C380.826 520.328 379.605 520.703 378.592 520.12C377.649 519.565 377.233 518.232 377.843 517.275C378.481 516.275 378.925 515.165 379.577 514.152C380.188 513.208 381.409 512.819 382.422 513.402C383.365 513.957 383.782 515.29 383.171 516.247Z" fill="#11131F"/>
<path d="M537.974 470.555C537.794 470.943 537.905 470.666 537.78 471.04C537.752 471.137 537.586 471.873 537.614 471.637C537.544 472.192 537.558 472.761 537.558 473.317C537.558 475.995 533.396 475.995 533.396 473.317C533.396 471.582 533.618 470.041 534.367 468.459C534.852 467.432 536.295 467.182 537.211 467.709C538.252 468.32 538.446 469.527 537.96 470.555H537.974Z" fill="#11131F"/>
<path d="M460.58 477.633C459.997 478.633 458.734 478.924 457.735 478.383C456.181 477.536 455.085 475.94 454.974 474.163C454.905 473.025 455.973 472.081 457.055 472.081C458.207 472.081 459.012 472.984 459.123 474.08C459.123 474.08 459.123 474.08 459.123 474.094C459.123 473.858 459.206 474.149 459.164 474.163C459.22 474.247 459.303 474.358 459.317 474.385C459.4 474.469 459.483 474.552 459.567 474.621C459.567 474.621 459.775 474.76 459.816 474.788C460.815 475.329 461.121 476.676 460.566 477.633H460.58Z" fill="#11131F"/>
<path d="M474.802 518.579C473.997 519.384 472.665 519.384 471.86 518.579L469.779 516.497C468.974 515.692 468.974 514.36 469.779 513.555C470.583 512.75 471.916 512.75 472.72 513.555L474.802 515.637C475.606 516.442 475.606 517.774 474.802 518.579Z" fill="#11131F"/>
<path d="M501.414 472.539C500.193 473.039 499.013 472.914 497.737 472.734C497.223 472.664 494.851 472.178 494.629 472.331C492.409 473.858 490.341 470.249 492.534 468.736C494.892 467.112 497.834 469.527 500.304 468.528C501.358 468.098 502.593 468.986 502.857 469.985C503.19 471.179 502.454 472.123 501.414 472.539Z" fill="#11131F"/>
<path d="M522.559 455.661C522.032 456.563 520.631 457.077 519.715 456.411C517.245 454.62 512.93 454.481 512.458 450.803C512.32 449.679 513.513 448.721 514.54 448.721C515.788 448.721 516.468 449.679 516.621 450.803C516.496 449.818 516.385 450.095 517.162 450.512C517.426 450.651 517.675 450.817 517.911 450.984C519.326 451.386 520.631 451.941 521.824 452.816C522.74 453.482 523.184 454.606 522.573 455.661H522.559Z" fill="#11131F"/>
<path d="M479.047 472.623C479.006 475.301 474.857 475.301 474.899 472.623C474.899 472.012 474.954 471.415 474.982 470.804C474.982 470.457 474.982 470.124 474.968 469.777C474.968 469.93 474.968 469.874 474.913 469.638C474.899 469.611 474.885 469.583 474.843 469.513C473.483 467.195 477.077 465.113 478.437 467.418C479.38 469.041 479.089 470.846 479.061 472.623H479.047Z" fill="#11131F"/>
<path d="M439.836 491.971C438.407 493.415 437.075 494.9 434.911 495.011C433.773 495.067 432.83 494.026 432.83 492.929C432.83 491.763 433.773 490.903 434.911 490.847C434.661 490.903 434.675 490.903 434.911 490.847C434.939 490.847 434.966 490.833 434.98 490.819C435.077 490.764 435.161 490.722 435.258 490.653C435.285 490.625 435.313 490.625 435.327 490.611C435.355 490.583 435.383 490.556 435.452 490.486C435.965 490.042 436.423 489.501 436.895 489.015C437.686 488.21 439.032 488.21 439.836 489.015C440.641 489.82 440.627 491.152 439.836 491.957V491.971Z" fill="#11131F"/>
<path d="M472.29 542.05C469.612 542.05 469.612 537.9 472.29 537.9C474.968 537.9 474.968 542.05 472.29 542.05Z" fill="#11131F"/>
<path d="M335.247 532.584C335.205 535.263 331.043 535.263 331.098 532.584C331.126 531.182 331.417 530.072 331.445 528.767C331.487 526.088 335.649 526.088 335.594 528.767C335.566 530.169 335.275 531.279 335.247 532.584Z" fill="#11131F"/>
<path d="M236.179 535.957C234.167 533.972 231.129 530.502 234.528 528.184C235.472 527.546 236.831 528.004 237.373 528.934C237.789 529.642 237.719 530.419 237.331 531.044C237.331 531.044 237.331 531.071 237.345 531.071C237.4 531.168 237.47 531.252 237.525 531.335C237.539 531.363 237.553 531.363 237.595 531.418C238.066 531.987 238.607 532.487 239.121 533.001C241.022 534.888 238.094 537.831 236.179 535.943V535.957Z" fill="#11131F"/>
<path d="M258.421 539.746C258.421 539.746 258.338 539.802 258.31 539.83C258.282 539.857 258.254 539.885 258.185 539.955C258.157 539.982 258.046 540.121 257.991 540.19C257.935 540.26 257.894 540.343 257.852 540.426C257.852 540.44 257.672 540.871 257.644 540.94C257.283 542.009 256.229 542.703 255.091 542.384C254.05 542.092 253.273 540.898 253.634 539.83C254.175 538.261 254.952 537.123 256.326 536.165C257.255 535.513 258.629 535.999 259.17 536.915C259.781 537.956 259.351 539.108 258.421 539.76V539.746Z" fill="#11131F"/>
<path d="M285.768 535.527C285.768 536.623 284.825 537.65 283.687 537.609C281.037 537.484 279.594 535.235 279.525 532.765C279.497 531.626 280.496 530.683 281.606 530.683C282.716 530.683 283.659 531.626 283.687 532.765C283.687 532.862 283.687 532.945 283.687 533.042C283.687 533.07 283.687 533.098 283.701 533.139C283.729 533.237 283.757 533.32 283.784 533.417C283.784 533.431 283.798 533.459 283.812 533.472C284.881 533.584 285.741 534.416 285.741 535.527H285.768Z" fill="#11131F"/>
<path d="M312.173 545.659C311.798 546.034 311.423 546.409 311.076 546.811C310.771 547.158 310.619 547.575 310.272 547.894C309.98 548.185 309.661 548.449 309.356 548.727C309.189 548.893 308.926 549.157 308.884 549.24C308.468 550.295 307.511 551.017 306.331 550.684C305.332 550.406 304.472 549.185 304.888 548.13C305.346 546.964 306.054 546.103 306.969 545.27C307.719 544.604 308.412 543.522 309.217 542.717C311.104 540.815 314.046 543.758 312.159 545.659H312.173Z" fill="#11131F"/>
<path d="M43.1502 396.338C41.1384 394.353 38.0997 390.883 41.4991 388.565C42.4426 387.927 43.8024 388.385 44.3435 389.315C44.7597 390.023 44.6904 390.8 44.288 391.425C44.288 391.425 44.288 391.452 44.3019 391.452C44.3574 391.55 44.4267 391.633 44.4822 391.716C44.4961 391.744 44.51 391.744 44.5516 391.799C45.0234 392.368 45.5645 392.868 46.0779 393.382C47.9926 395.269 45.0511 398.212 43.1364 396.324L43.1502 396.338Z" fill="#11131F"/>
<path d="M52.8489 424.57C52.8489 424.57 52.8489 424.598 52.835 424.612C52.7795 424.778 52.7379 424.959 52.6962 425.125C52.6962 425.167 52.6546 425.347 52.6407 425.444C52.6407 425.556 52.613 425.667 52.613 425.791C52.5991 426.111 52.5852 426.43 52.5852 426.749C52.5852 429.428 48.4227 429.428 48.4366 426.749C48.4366 424.334 48.9361 421.294 51.6972 420.586C54.278 419.934 55.3741 423.876 52.8489 424.584V424.57Z" fill="#11131F"/>
<path d="M46.7716 456.383C46.3692 454.856 45.7865 453.399 45.3841 451.886C44.7042 449.29 48.7141 448.194 49.394 450.775C49.7964 452.302 50.3791 453.76 50.7815 455.273C51.4614 457.868 47.4515 458.965 46.7716 456.383Z" fill="#11131F"/>
<path d="M68.5276 441.684C67.5841 442.212 66.8071 442.933 65.822 443.405C64.712 443.947 63.5049 444.044 62.2839 444.044C59.606 444.044 59.606 439.894 62.2839 439.894C63.047 439.894 63.6852 439.894 64.3512 439.491C65.0589 439.061 65.6971 438.506 66.4325 438.103C68.7774 436.798 70.8725 440.393 68.5276 441.698V441.684Z" fill="#11131F"/>
<path d="M67.6813 467.529C66.5019 467.848 65.5445 467.126 65.1283 466.085C64.3513 464.128 63.7269 462.115 63.6714 459.992C63.602 457.313 67.7506 457.313 67.82 459.992C67.8616 461.713 68.4999 463.392 69.1243 464.975C69.5405 466.03 68.6803 467.251 67.6674 467.529H67.6813Z" fill="#11131F"/>
<path d="M86.2599 449.679C85.2054 450.775 84.3313 451.858 82.7079 452.025C81.584 452.136 80.6266 450.998 80.6266 449.943C80.6266 448.888 81.2788 448.263 82.1251 447.986C82.1251 447.986 82.1251 447.986 82.139 447.986C82.2916 447.847 82.4304 447.708 82.583 447.555C82.8328 447.292 83.0548 447 83.3045 446.75C84.0815 445.931 85.4551 445.959 86.246 446.75C87.0646 447.569 87.023 448.874 86.246 449.693L86.2599 449.679Z" fill="#11131F"/>
<path d="M36.1434 414.202C36.1434 414.202 36.0601 414.257 36.0324 414.285C36.0046 414.313 35.9769 414.341 35.9075 414.41C35.8797 414.438 35.7687 414.576 35.7132 414.646C35.6577 414.715 35.6161 414.799 35.5745 414.882C35.5745 414.896 35.3941 415.326 35.3664 415.395C35.0056 416.464 33.9511 417.158 32.8134 416.853C31.7727 416.561 30.9957 415.368 31.3565 414.299C31.8976 412.73 32.6746 411.592 34.0482 410.635C34.9779 409.982 36.3515 410.468 36.8926 411.384C37.5031 412.425 37.073 413.577 36.1434 414.229V414.202Z" fill="#11131F"/>
<path d="M33.5904 369.688C33.5904 370.785 32.6469 371.812 31.5091 371.77C28.859 371.646 27.416 369.397 27.3605 366.926C27.3327 365.788 28.3179 364.844 29.4417 364.844C30.5656 364.844 31.4952 365.788 31.523 366.926C31.523 367.024 31.523 367.107 31.523 367.204C31.523 367.232 31.523 367.259 31.5369 367.301C31.5646 367.398 31.5924 367.482 31.6201 367.579C31.6201 367.593 31.634 367.62 31.6479 367.634C32.7162 367.745 33.5765 368.578 33.5765 369.688H33.5904Z" fill="#11131F"/>
<path d="M10.766 321.372C9.58666 321.691 8.62928 320.97 8.21303 319.929C8.01878 319.429 7.07528 318.485 6.82553 318.208C5.85428 317.18 5.42416 315.917 5.38253 314.515C5.28541 311.837 9.44791 311.837 9.53116 314.515C9.54503 315.098 10.1139 315.737 10.322 316.001C11.0713 316.931 11.7789 317.68 12.2229 318.818C12.6392 319.873 11.7789 321.095 10.766 321.372Z" fill="#11131F"/>
<path d="M8.82351 294.39C7.20014 294.362 5.67389 293.945 4.31414 293.071C3.37064 292.46 2.98214 291.239 3.56489 290.226C4.11989 289.282 5.45189 288.865 6.40926 289.476C6.58964 289.601 6.77001 289.712 6.96426 289.809C7.06139 289.865 7.15851 289.906 7.25564 289.948C7.28339 289.948 7.32501 289.976 7.42214 290.003C8.10201 290.239 8.17139 290.212 8.83739 290.226C9.97514 290.239 10.9186 291.155 10.9186 292.308C10.9186 293.46 9.97514 294.403 8.83739 294.39H8.82351Z" fill="#11131F"/>
<path d="M219.169 548.296C218.128 550.434 217.434 552.738 216.394 554.876C215.228 557.291 211.648 555.181 212.8 552.78C213.841 550.642 214.534 548.338 215.575 546.201C216.74 543.785 220.32 545.895 219.155 548.296H219.169Z" fill="#11131F"/>
<path d="M20.7283 340.263C20.3536 340.638 19.979 341.012 19.6321 341.415C19.3269 341.762 19.1604 342.178 18.8274 342.498C18.536 342.789 18.2169 343.053 17.9116 343.33C17.7451 343.483 17.4815 343.761 17.4399 343.844C17.0236 344.899 16.0663 345.621 14.8869 345.288C13.8879 345.01 13.0276 343.788 13.43 342.734C13.8879 341.568 14.5955 340.707 15.5251 339.874C16.2744 339.208 16.9681 338.125 17.7729 337.32C19.6599 335.419 22.6014 338.361 20.7144 340.263H20.7283Z" fill="#11131F"/>
<path d="M501.65 552.835C501.358 553.89 500.165 554.64 499.097 554.279C497.001 553.585 494.31 552.794 494.116 550.198C494.018 549.06 495.128 548.116 496.197 548.116C497.113 548.116 497.779 548.657 498.084 549.421C498.278 549.546 498.486 549.657 498.708 549.74C498.791 549.768 498.916 549.823 498.958 549.837C499.11 549.893 499.263 549.948 499.416 550.004C499.679 550.101 499.943 550.17 500.207 550.267C501.289 550.614 501.969 551.697 501.664 552.821L501.65 552.835Z" fill="#11131F"/>
<path d="M487.788 531.363C487.553 532.459 487.483 533.57 487.317 534.666C487.109 536.054 486.47 537.192 485.846 538.442C484.653 540.843 481.059 538.733 482.266 536.346C482.696 535.471 483.168 534.68 483.293 533.695C483.446 532.543 483.529 531.391 483.792 530.252C484.375 527.643 488.385 528.753 487.802 531.363H487.788Z" fill="#11131F"/>
<path d="M506.214 533.931H504.133C501.455 533.931 501.455 529.781 504.133 529.781H506.214C508.892 529.781 508.892 533.931 506.214 533.931Z" fill="#11131F"/>
<path d="M526.736 538.164C525.695 539.205 524.682 540.121 524.155 541.398C523.725 542.439 522.795 543.175 521.602 542.855C520.617 542.578 519.715 541.343 520.145 540.302C520.991 538.289 522.268 536.762 523.794 535.235C525.695 533.334 528.623 536.276 526.736 538.178V538.164Z" fill="#11131F"/>
<path d="M510.377 509.738C509.42 510.348 508.407 510.834 507.311 511.167C506.076 511.528 504.716 511.417 503.439 511.417C500.762 511.417 500.762 507.253 503.439 507.253C504.203 507.253 505.035 507.35 505.798 507.253C506.714 507.128 507.519 506.642 508.282 506.157C510.543 504.699 512.625 508.294 510.377 509.752V509.738Z" fill="#11131F"/>
<path d="M531.897 510.376C531.231 511.459 530.912 512.708 530.177 513.763C529.233 515.123 527.943 516.053 526.292 516.248C525.168 516.386 524.21 515.207 524.21 514.166C524.21 513.027 525.029 512.333 526.028 512.139C525.973 512.139 526.028 512.084 526.236 511.986C526.236 511.986 526.514 511.695 526.555 511.667C526.833 511.403 526.985 511.043 527.166 510.696C527.568 509.89 527.832 509.044 528.317 508.267C529.733 505.99 533.326 508.086 531.897 510.362V510.376Z" fill="#11131F"/>
<path d="M550.226 273.972C549.643 273.653 549.144 273.209 548.672 272.751C548.505 272.598 548.353 272.431 548.186 272.279C547.215 271.973 546.702 270.71 546.952 269.794C547.285 268.6 548.395 268.184 549.505 268.337C550.171 268.434 550.753 268.975 551.211 269.433C551.433 269.641 551.641 269.864 551.863 270.072C551.96 270.155 552.044 270.238 552.141 270.322C551.808 270.044 552.238 270.349 552.293 270.391C553.278 270.932 553.598 272.279 553.043 273.236C552.46 274.236 551.197 274.527 550.198 273.986L550.226 273.972Z" fill="#11131F"/>
<path d="M547.062 198.978C546.563 200.922 545.883 202.754 545.009 204.558C544.509 205.571 543.094 205.849 542.165 205.308C541.138 204.711 540.916 203.476 541.415 202.462C542.137 200.991 542.65 199.464 543.053 197.882C543.719 195.286 547.715 196.383 547.062 198.992V198.978Z" fill="#11131F"/>
<path d="M533.826 191.497C533.09 192.233 531.606 192.372 530.884 191.497C529.76 190.123 528.581 188.804 527.526 187.375C526.694 186.264 525.404 185.071 525.168 183.655C524.738 181.032 528.734 179.907 529.178 182.544C529.233 182.905 529.413 183.058 529.663 183.336C530.107 183.835 530.482 184.349 530.856 184.904C531.731 186.209 532.854 187.347 533.84 188.555C534.547 189.429 534.7 190.637 533.84 191.497H533.826Z" fill="#11131F"/>
<path d="M548.686 178.394C546.549 178.908 544.634 179.061 542.581 178.186C542.581 178.186 542.595 178.186 542.609 178.186C542.137 178.02 541.679 177.825 541.207 177.77C540.083 177.631 539.126 176.923 539.126 175.688C539.126 174.661 540.069 173.467 541.207 173.606C542.234 173.731 543.191 174.105 544.176 174.369C545.425 174.716 546.299 174.674 547.576 174.369C550.184 173.731 551.28 177.742 548.686 178.38V178.394Z" fill="#11131F"/>
<path d="M548.714 146.665C548.422 147.484 548.048 148.261 547.659 149.038C547.34 149.677 547.409 150.26 547.409 150.967C547.409 153.646 543.261 153.646 543.261 150.967C543.261 150.107 543.15 149.177 543.455 148.372C543.802 147.4 544.371 146.526 544.731 145.568C545.12 144.499 546.133 143.792 547.284 144.111C548.311 144.388 549.13 145.596 548.727 146.665H548.714Z" fill="#11131F"/>
<path d="M491.673 432.121C491.063 433.162 489.856 433.342 488.829 432.87C488.926 432.898 488.871 432.87 488.663 432.815C488.885 432.815 488.871 432.815 488.621 432.815C487.983 432.773 487.483 432.732 486.901 432.412C486.235 432.051 485.693 431.51 485.027 431.135C484.028 430.594 483.723 429.248 484.278 428.29C484.861 427.291 486.123 426.999 487.122 427.54C487.719 427.874 488.26 428.304 488.829 428.679C489.564 428.748 490.23 428.942 490.924 429.275C491.951 429.761 492.201 431.205 491.673 432.121Z" fill="#11131F"/>
<path d="M548.644 369.786C547.035 370.216 545.633 370.854 543.941 370.896C541.263 370.952 541.263 366.802 543.941 366.746C545.175 366.718 546.327 366.108 547.548 365.774C550.143 365.08 551.239 369.092 548.658 369.786H548.644Z" fill="#11131F"/>
<path d="M510.599 391.133C509.822 391.91 508.435 391.966 507.658 391.133C507.227 390.675 506.894 390.161 506.603 389.606C506.478 389.37 506.353 389.12 506.228 388.871C506.173 388.76 506.103 388.635 506.034 388.524C506.006 388.468 505.993 388.44 505.979 388.413C505.965 388.399 505.951 388.385 505.923 388.357C505.16 387.524 505.091 386.247 505.923 385.415C506.7 384.637 508.088 384.582 508.865 385.415C509.295 385.873 509.628 386.386 509.919 386.941C510.044 387.177 510.169 387.427 510.294 387.663C510.349 387.774 510.419 387.899 510.488 388.01C510.516 388.066 510.53 388.093 510.543 388.121C510.557 388.135 510.571 388.149 510.599 388.177C511.362 389.009 511.432 390.286 510.599 391.119V391.133Z" fill="#11131F"/>
<path d="M503.953 413.966C502.912 414.576 501.761 414.146 501.109 413.216C501.095 413.188 501.081 413.188 501.067 413.161C501.053 413.133 501.039 413.119 501.011 413.091C500.831 412.883 500.651 412.675 500.47 412.467C500.068 411.995 499.679 411.509 499.319 411.009C498.555 409.954 498.25 408.747 498.486 407.47C498.68 406.359 500.026 405.735 501.039 406.012C502.066 406.304 502.538 407.206 502.496 408.192C502.496 408.219 502.496 408.247 502.496 408.261C502.51 408.289 502.524 408.316 502.552 408.372C502.746 408.747 502.968 409.024 503.107 409.191C503.634 409.829 504.203 410.44 504.688 411.12C505.34 412.05 504.855 413.424 503.939 413.966H503.953Z" fill="#11131F"/>
<path d="M528.179 405.305C528.179 405.402 528.179 405.499 528.179 405.596C528.179 408.275 524.016 408.275 524.03 405.596C524.03 404.486 524.238 403.583 524.987 402.737C525.737 401.89 527.166 401.973 527.929 402.737C528.65 403.459 528.678 404.486 528.193 405.305H528.179Z" fill="#11131F"/>
<path d="M528.248 370.619C527.596 371.618 527.166 372.728 526.514 373.742C525.903 374.699 524.682 375.074 523.669 374.491C522.726 373.936 522.309 372.603 522.92 371.646C523.572 370.646 524.002 369.536 524.654 368.523C525.265 367.579 526.486 367.19 527.499 367.773C528.442 368.328 528.858 369.661 528.248 370.619Z" fill="#11131F"/>
<path d="M544.163 247.753C543.51 248.752 543.08 249.862 542.428 250.876C541.818 251.833 540.597 252.208 539.584 251.625C538.64 251.07 538.224 249.738 538.835 248.78C539.473 247.78 539.917 246.67 540.569 245.657C541.179 244.713 542.4 244.324 543.413 244.907C544.357 245.462 544.773 246.795 544.163 247.753Z" fill="#11131F"/>
<path d="M527.554 351.575C526.971 352.575 525.709 352.866 524.71 352.325C523.156 351.478 522.06 349.882 521.949 348.105C521.879 346.967 522.948 346.023 524.03 346.023C525.182 346.023 525.986 346.925 526.097 348.022C526.097 348.022 526.097 348.022 526.097 348.036C526.097 347.8 526.181 348.091 526.139 348.105C526.194 348.188 526.278 348.3 526.292 348.327C526.375 348.411 526.458 348.494 526.541 348.563C526.541 348.563 526.749 348.702 526.791 348.73C527.79 349.271 528.095 350.617 527.54 351.575H527.554Z" fill="#11131F"/>
<path d="M541.762 392.521C540.957 393.326 539.625 393.326 538.821 392.521L536.739 390.439C535.935 389.634 535.935 388.302 536.739 387.497C537.544 386.692 538.876 386.692 539.681 387.497L541.762 389.579C542.567 390.384 542.567 391.716 541.762 392.521Z" fill="#11131F"/>
<path d="M547.409 225.919C546.188 226.419 545.009 226.294 543.732 226.114C543.219 226.044 540.846 225.559 540.624 225.711C538.404 227.238 536.337 223.629 538.529 222.116C540.888 220.492 543.83 222.907 546.299 221.908C547.354 221.478 548.589 222.366 548.852 223.366C549.185 224.559 548.45 225.503 547.409 225.919Z" fill="#11131F"/>
<path d="M546.022 346.551C545.98 349.229 541.832 349.229 541.873 346.551C541.873 345.94 541.929 345.343 541.956 344.732C541.956 344.385 541.956 344.052 541.943 343.705C541.943 343.858 541.943 343.802 541.887 343.553C541.873 343.525 541.859 343.497 541.818 343.441C540.458 341.124 544.052 339.042 545.411 341.346C546.355 342.97 546.063 344.774 546.036 346.551H546.022Z" fill="#11131F"/>
<path d="M549.227 127.552C547.798 128.995 546.466 130.481 544.301 130.592C543.164 130.647 542.22 129.606 542.22 128.51C542.22 127.344 543.164 126.483 544.301 126.428C544.052 126.483 544.066 126.483 544.301 126.428C544.329 126.428 544.357 126.414 544.371 126.4C544.468 126.344 544.551 126.303 544.648 126.233C544.676 126.206 544.704 126.206 544.718 126.192C544.745 126.164 544.773 126.136 544.843 126.067C545.356 125.623 545.814 125.081 546.286 124.595C547.076 123.79 548.422 123.804 549.227 124.595C550.032 125.401 550.018 126.733 549.227 127.538V127.552Z" fill="#11131F"/>
<path d="M524.89 437.229C522.212 437.229 522.212 433.065 524.89 433.065C527.568 433.065 527.568 437.229 524.89 437.229Z" fill="#11131F"/>
<path d="M494.171 449.276C493.533 451.358 493.56 453.496 493.547 455.647C493.547 458.326 489.384 458.326 489.384 455.647C489.384 453.135 489.412 450.595 490.147 448.166C490.924 445.612 494.948 446.695 494.157 449.276H494.171Z" fill="#11131F"/>
<path d="M516.746 426.902C516.218 426.902 515.691 426.902 515.164 426.957C515.108 426.957 515.081 426.957 515.039 426.957C514.9 426.985 514.761 427.013 514.637 427.041C514.498 427.082 514.359 427.11 514.22 427.152C514.567 427.041 514.026 427.277 513.984 427.29C511.695 428.692 509.6 425.097 511.889 423.696C513.332 422.807 515.094 422.724 516.746 422.724C519.423 422.724 519.423 426.874 516.746 426.888V426.902Z" fill="#11131F"/>
<path d="M471.236 443.211C470.708 443.211 470.181 443.211 469.654 443.266C469.598 443.266 469.571 443.266 469.529 443.266C469.39 443.294 469.251 443.322 469.127 443.35C468.988 443.391 468.849 443.419 468.71 443.475C469.057 443.364 468.516 443.6 468.474 443.613C466.185 445.015 464.09 441.42 466.379 440.018C467.822 439.13 469.584 439.047 471.236 439.047C473.913 439.047 473.913 443.197 471.236 443.211Z" fill="#11131F"/>
<path d="M550.462 454.426C549.657 455.231 548.325 455.231 547.52 454.426C547.229 454.134 546.924 453.843 546.618 453.579C546.868 453.787 546.313 453.385 546.327 453.385C546.244 453.343 546.23 453.329 546.188 453.316C546.133 453.302 546.091 453.288 546.077 453.288C545.009 453.163 544.149 452.358 544.149 451.234C544.149 450.109 545.092 449.082 546.23 449.152C547.978 449.263 549.269 450.29 550.462 451.497C551.267 452.302 551.267 453.635 550.462 454.44V454.426Z" fill="#11131F"/>
<path d="M543.413 433.148C543.372 435.827 539.209 435.827 539.251 433.148C539.279 431.746 539.57 430.636 539.598 429.345C539.639 426.666 543.802 426.666 543.746 429.345C543.719 430.747 543.427 431.843 543.4 433.148H543.413Z" fill="#11131F"/>
<path d="M546.993 296.874C546.702 297.929 545.508 298.678 544.44 298.317C542.345 297.623 539.667 296.832 539.459 294.237C539.362 293.113 540.472 292.155 541.54 292.155C542.456 292.155 543.122 292.696 543.441 293.459C543.635 293.584 543.843 293.682 544.065 293.779C544.149 293.807 544.274 293.862 544.315 293.876C544.468 293.931 544.62 293.987 544.773 294.042C545.037 294.126 545.3 294.209 545.564 294.306C546.632 294.667 547.326 295.736 547.021 296.86L546.993 296.874Z" fill="#11131F"/>
<path d="M547.506 407.303C547.257 408.4 547.201 409.51 547.035 410.607C546.827 411.995 546.188 413.133 545.564 414.382C544.371 416.783 540.777 414.674 541.984 412.286C542.414 411.412 542.886 410.621 543.011 409.635C543.164 408.483 543.247 407.331 543.51 406.193C544.093 403.583 548.103 404.694 547.52 407.303H547.506Z" fill="#11131F"/>
<path d="M522.753 143.278C521.796 143.889 520.783 144.374 519.687 144.708C518.452 145.068 517.092 144.957 515.816 144.957C513.138 144.957 513.138 140.807 515.816 140.807C516.579 140.807 517.412 140.904 518.175 140.807C519.09 140.682 519.895 140.197 520.658 139.711C522.92 138.253 525.001 141.862 522.753 143.306V143.278Z" fill="#11131F"/>
<path d="M542.928 321.636C542.262 322.719 541.943 323.968 541.207 325.023C540.264 326.383 538.973 327.313 537.322 327.507C536.198 327.646 535.241 326.466 535.241 325.425C535.241 324.287 536.06 323.593 537.059 323.399C537.003 323.399 537.059 323.343 537.267 323.246C537.267 323.246 537.544 322.955 537.586 322.927C537.863 322.663 538.016 322.302 538.196 321.955C538.599 321.15 538.862 320.304 539.348 319.526C540.763 317.25 544.357 319.346 542.928 321.622V321.636Z" fill="#11131F"/>
<path d="M545.425 536.429C544.634 537.22 543.275 537.248 542.484 536.429C542.137 536.068 541.832 535.666 541.526 535.263C541.401 535.096 541.29 534.93 541.166 534.777C541.166 534.777 541.166 534.763 541.152 534.75C541.138 534.736 541.124 534.722 541.096 534.694C540.333 533.861 540.278 532.584 541.096 531.751C541.873 530.974 543.261 530.919 544.038 531.751C544.593 532.362 544.967 533.001 545.425 533.486C546.202 534.305 546.244 535.61 545.425 536.429Z" fill="#11131F"/>
<path d="M112.289 556.902C111.832 554.57 110.583 552.544 110.486 550.115C110.375 547.436 114.537 547.45 114.634 550.115C114.718 552.086 115.911 553.876 116.285 555.792C116.799 558.415 112.789 559.525 112.276 556.902H112.289Z" fill="#11131F"/>
<path d="M130.979 535.582C130.535 536.29 130.438 537.276 130.146 538.206C129.813 539.288 128.703 539.968 127.593 539.649C126.525 539.358 125.804 538.178 126.137 537.095C126.525 535.846 126.678 534.611 127.385 533.486C127.982 532.529 129.231 532.154 130.23 532.737C131.187 533.292 131.576 534.611 130.979 535.582Z" fill="#11131F"/>
<path d="M129.536 518.26C129.009 518.26 128.481 518.26 127.954 518.316C127.899 518.316 127.871 518.316 127.829 518.316C127.691 518.343 127.552 518.371 127.413 518.399C127.274 518.441 127.136 518.468 126.997 518.524C127.344 518.413 126.803 518.649 126.761 518.663C124.472 520.064 122.376 516.47 124.666 515.068C126.109 514.179 127.871 514.096 129.522 514.096C132.2 514.096 132.2 518.246 129.522 518.246L129.536 518.26Z" fill="#11131F"/>
<path d="M147.795 543.619C145.784 541.634 142.745 538.164 146.144 535.846C147.088 535.208 148.448 535.666 148.989 536.595C149.405 537.303 149.336 538.081 148.947 538.705C148.947 538.705 148.947 538.733 148.961 538.733C149.016 538.83 149.086 538.913 149.141 538.997C149.155 539.025 149.169 539.025 149.211 539.08C149.682 539.649 150.224 540.149 150.737 540.662C152.638 542.55 149.71 545.479 147.795 543.605V543.619Z" fill="#11131F"/>
<path d="M170.051 547.408C170.051 547.408 169.968 547.463 169.94 547.491C169.912 547.519 169.885 547.547 169.815 547.616C169.787 547.644 169.676 547.783 169.621 547.852C169.565 547.922 169.524 548.005 169.482 548.088C169.482 548.102 169.302 548.532 169.274 548.602C168.913 549.67 167.859 550.364 166.721 550.045C165.68 549.754 164.903 548.56 165.264 547.491C165.805 545.923 166.582 544.771 167.956 543.827C168.886 543.175 170.259 543.66 170.8 544.576C171.411 545.617 170.981 546.769 170.051 547.422V547.408Z" fill="#11131F"/>
<path d="M172.895 527.685C172.091 528.49 170.759 528.49 169.954 527.685C169.663 527.393 169.357 527.102 169.052 526.838C169.302 527.046 168.747 526.644 168.761 526.644C168.677 526.602 168.664 526.588 168.622 526.574C168.566 526.56 168.525 526.546 168.511 526.546C167.443 526.422 166.582 525.616 166.582 524.492C166.582 523.368 167.526 522.341 168.664 522.41C170.426 522.521 171.702 523.548 172.895 524.756C173.7 525.561 173.7 526.893 172.895 527.698V527.685Z" fill="#11131F"/>
<path d="M156.19 512.014C156.148 514.693 151.986 514.693 152.041 512.014C152.069 510.612 152.36 509.502 152.388 508.197C152.43 505.518 156.592 505.518 156.537 508.197C156.509 509.599 156.218 510.709 156.19 512.014Z" fill="#11131F"/>
<path d="M197.399 543.189C197.399 544.285 196.455 545.312 195.317 545.271C192.667 545.146 191.224 542.897 191.169 540.426C191.141 539.288 192.14 538.344 193.25 538.344C194.36 538.344 195.304 539.288 195.331 540.426C195.331 540.524 195.331 540.607 195.331 540.704C195.331 540.732 195.331 540.76 195.345 540.801C195.373 540.898 195.401 540.982 195.428 541.065C195.428 541.079 195.442 541.107 195.456 541.12C196.525 541.245 197.385 542.064 197.385 543.175L197.399 543.189Z" fill="#11131F"/>
<path d="M215.811 527.962C214.95 529.197 214.728 530.627 214.715 532.112C214.687 534.791 210.524 534.791 210.566 532.112C210.594 529.961 210.968 527.671 212.231 525.866C212.883 524.936 214.035 524.52 215.075 525.117C215.991 525.658 216.477 527.032 215.825 527.962H215.811Z" fill="#11131F"/>
<path d="M193.305 520.342C193.028 520.869 192.75 521.369 192.584 521.938C192.639 521.883 192.639 522.216 192.681 522.382C192.806 522.84 192.861 523.326 192.889 523.798C192.959 524.922 191.89 525.88 190.808 525.88C189.615 525.88 188.81 524.936 188.727 523.798C188.699 523.465 188.56 523.118 188.477 522.785C188.324 522.16 188.421 521.577 188.519 520.953C188.671 519.995 189.268 519.093 189.698 518.246C190.933 515.873 194.513 517.969 193.292 520.342H193.305Z" fill="#11131F"/>
<path d="M524.196 481.769C523.905 482.824 522.712 483.574 521.643 483.213C519.548 482.519 516.871 481.728 516.662 479.132C516.565 477.994 517.675 477.05 518.744 477.05C519.659 477.05 520.325 477.605 520.644 478.355C520.839 478.48 521.047 478.577 521.269 478.674C521.352 478.702 521.477 478.758 521.519 478.771C521.671 478.827 521.824 478.882 521.977 478.938C522.24 479.035 522.504 479.105 522.767 479.202C523.836 479.549 524.53 480.631 524.224 481.756L524.196 481.769Z" fill="#11131F"/>
<path d="M77.921 501.326C77.6713 502.423 77.6158 503.533 77.4493 504.63C77.2411 506.018 76.6029 507.156 75.9785 508.405C74.7853 510.806 71.1916 508.697 72.3988 506.309C72.8289 505.435 73.3006 504.644 73.4255 503.658C73.5781 502.506 73.6614 501.354 73.925 500.216C74.5078 497.607 78.5176 498.717 77.9349 501.326H77.921Z" fill="#11131F"/>
<path d="M96.347 503.894H94.2657C91.5879 503.894 91.5879 499.744 94.2657 499.744H96.347C99.0249 499.744 99.0249 503.894 96.347 503.894Z" fill="#11131F"/>
<path d="M92.573 520.967C91.5324 522.008 90.5195 522.924 89.9923 524.201C89.5621 525.242 88.6325 525.977 87.4393 525.644C86.4541 525.381 85.5523 524.131 85.9824 523.09C86.8288 521.078 88.1053 519.551 89.6315 518.024C91.5324 516.123 94.46 519.065 92.573 520.967Z" fill="#11131F"/>
<path d="M88.5215 480.146C88.3411 480.146 88.1746 480.146 87.9942 480.146C87.9249 480.146 87.7029 480.173 87.5641 480.173C87.5364 480.173 87.5086 480.187 87.467 480.201C87.1062 480.784 86.5096 481.187 85.7465 481.187C84.6781 481.187 83.582 480.243 83.6652 479.105C83.8734 476.523 86.357 475.982 88.5076 475.982C91.1855 475.982 91.1855 480.132 88.5076 480.132L88.5215 480.146Z" fill="#11131F"/>
<path d="M116.022 487.53C114.44 488.723 112.858 489.751 111.027 490.514C109.986 490.958 108.737 490.056 108.474 489.07C108.141 487.877 108.876 486.947 109.931 486.516C111.388 485.906 112.678 484.893 113.941 483.949C114.842 483.269 116.258 483.796 116.785 484.698C117.409 485.767 116.951 486.863 116.036 487.544L116.022 487.53Z" fill="#11131F"/>
<path d="M68.5276 482.519C67.5703 483.13 66.5574 483.616 65.4613 483.949C64.2264 484.31 62.8666 484.199 61.5901 484.199C58.9123 484.199 58.9123 480.035 61.5901 480.035C62.3533 480.035 63.1858 480.132 63.9489 480.035C64.8646 479.91 65.6694 479.424 66.4325 478.938C68.6941 477.481 70.7754 481.076 68.5276 482.533V482.519Z" fill="#11131F"/>
<path d="M133.504 493.873C132.838 494.955 132.519 496.205 131.784 497.26C130.84 498.62 129.55 499.55 127.899 499.744C126.775 499.869 125.818 498.703 125.818 497.662C125.818 496.524 126.636 495.83 127.635 495.636C127.58 495.636 127.635 495.58 127.843 495.483C127.843 495.483 128.121 495.191 128.162 495.164C128.44 494.886 128.593 494.539 128.773 494.192C129.175 493.387 129.439 492.54 129.925 491.763C131.34 489.487 134.933 491.583 133.518 493.859L133.504 493.873Z" fill="#11131F"/>
<path d="M111.942 524.742C111.152 525.533 109.792 525.561 109.001 524.742C108.654 524.381 108.349 523.979 108.044 523.576C107.919 523.409 107.808 523.243 107.683 523.09C107.683 523.09 107.683 523.076 107.669 523.062C107.655 523.049 107.641 523.035 107.613 523.007C106.85 522.174 106.795 520.897 107.613 520.064C108.39 519.287 109.778 519.232 110.555 520.064C111.11 520.675 111.485 521.314 111.942 521.799C112.719 522.618 112.761 523.923 111.942 524.742Z" fill="#11131F"/>
</g>
</svg>
