<svg width="119" height="193" viewBox="0 0 119 193" fill="none" xmlns="http://www.w3.org/2000/svg">
<path d="M17.1123 108.835C16.5964 114.82 11.3265 117.844 9.16455 123.017C6.5112 129.371 8.64862 132.161 11.7933 137.126C17.4931 146.146 9.79105 146.896 9.86475 156.248C9.99987 171.475 22.0014 165.17 30.8827 163.29C46.8888 159.898 43.3264 172.655 53.2396 178.59C61.4576 183.506 69 177.054 74.2452 171.635C78.0164 167.739 79.859 166.485 85.0306 165.207C89.2195 164.163 91.9957 164.691 94.6859 160.758C100.607 152.131 91.148 148.039 87.1066 141.845C80.7435 132.099 89.9074 127.601 94.6859 120.019C101.16 109.733 93.568 101.118 83.5074 101.683C74.5892 102.187 58.276 103.084 55.7455 87.5009C55.2296 84.3548 55.4384 80.8032 51.2742 79.2916C49.149 78.5173 45.6849 79.4882 44.2231 81.0121C41.9997 83.3348 43.093 86.1245 42.2331 88.9142C38.6707 100.417 17.186 94.7394 17.1246 108.848L17.1123 108.835Z" fill="#ACE8E1"/>
<path d="M105.312 76.2931C106.577 71.6968 111.134 70.0869 113.566 66.3632C116.551 61.7792 115.286 59.2967 113.554 54.9586C110.397 47.0933 116.527 47.6217 117.817 40.2972C119.905 28.3764 109.623 31.5717 102.412 31.7561C89.416 32.0879 94.0348 22.6373 87.1557 16.5786C81.4437 11.5522 74.626 15.4971 69.7493 18.975C66.2483 21.4698 64.6269 22.1826 60.4011 22.4406C56.9739 22.6496 54.8856 21.8385 52.22 24.5176C46.3482 30.3919 53.1413 34.9636 55.4138 40.3833C58.9762 48.9121 51.1759 51.112 46.3482 56.3473C39.8009 63.4383 44.4933 71.279 52.4288 72.2867C59.4675 73.1838 72.3412 74.8429 72.071 87.3782C72.0218 89.9098 71.3462 92.6503 74.3804 94.4446C75.9281 95.354 78.778 95.096 80.1416 94.1128C82.2176 92.6135 81.763 90.2785 82.844 88.2261C87.2908 79.7587 103.248 87.2921 105.336 76.2808L105.312 76.2931Z" fill="#ACE8E1"/>
<path d="M84.8955 169.902C85.3009 171.278 85.522 172.04 85.522 172.04C84.9446 172.139 84.3427 172.225 83.7162 172.311C81.3945 172.618 78.7412 172.851 75.8667 172.999C62.8703 173.712 45.5498 172.999 36.0174 172.47C33.2289 172.323 31.1161 172.188 29.9614 172.114C29.3226 172.065 28.9664 172.04 28.9664 172.04C28.8558 171.352 28.7453 170.639 28.647 169.902C28.647 169.902 66.3344 172.593 84.8832 169.902H84.8955Z" fill="#FFCF03"/>
<path d="M67.3785 94.457C70.3389 119.417 82.021 160.169 84.8832 169.902C66.3466 172.593 28.647 169.902 28.647 169.902C25.9936 151.259 26.5218 120.265 30.6738 103.822C34.6661 101.315 39.4078 100.147 43.9037 102.642C48.5471 105.223 52.2569 108.209 56.8019 103.588C60.4134 99.9135 62.0349 95.8334 67.3785 94.4447V94.457Z" fill="#0E5E8E"/>
<path style="mix-blend-mode:hard-light" d="M67.3785 94.457C70.3389 119.417 82.021 160.169 84.8832 169.902C66.3466 172.593 28.647 169.902 28.647 169.902C25.9936 151.259 26.5218 120.265 30.6738 103.822C34.6661 101.315 39.4078 100.147 43.9037 102.642C48.5471 105.223 52.2569 108.209 56.8019 103.588C60.4134 99.9135 62.0349 95.8334 67.3785 94.4447V94.457Z" fill="url(#paint0_linear_81707_1740)"/>
<g style="mix-blend-mode:multiply">
<path d="M70.9408 146.023C67.489 135.516 65.1059 124.738 63.3493 113.825C62.5386 108.836 61.6541 103.686 61.1259 98.537C60.4994 99.2498 59.8975 99.9994 59.2833 100.774C60.782 118.151 65.0814 135.7 72.7957 151.369C72.157 149.6 71.5428 147.818 70.9531 146.036L70.9408 146.023Z" fill="#9DC9E3"/>
</g>
<g style="mix-blend-mode:multiply">
<path d="M37.1107 101.351C36.4842 101.437 35.8577 101.572 35.2435 101.744C34.2362 109.438 32.885 117.069 32.2339 124.824C31.4723 133.869 30.9687 142.926 30.6861 151.984C30.4896 157.981 30.379 164.003 30.5142 170.012C31.5583 170.074 33.0078 170.16 34.789 170.271C33.9045 161.287 33.6711 152.242 33.9414 143.197C34.3468 129.457 34.8013 115.14 37.1352 101.351H37.1107Z" fill="#9DC9E3"/>
</g>
<g style="mix-blend-mode:multiply">
<path d="M39.678 151.148C39.5183 136.229 40.7713 121.432 41.3364 106.574C39.6043 118.729 39.1867 131.215 38.9164 143.209C38.7199 152.377 38.9533 161.496 39.8746 170.541C39.9728 170.541 40.0834 170.541 40.1817 170.553C40.022 164.089 39.7517 157.625 39.678 151.161V151.148Z" fill="#9DC9E3"/>
</g>
<g style="mix-blend-mode:multiply">
<path d="M79.2203 168.759C65.8676 150.116 58.6077 127.085 56.2 104.153C53.8169 106.255 51.6427 106.292 49.4193 105.505C49.9598 111.502 50.5862 117.487 50.3651 123.546C50.0334 132.726 49.0507 141.833 48.1294 150.964C47.4538 157.588 46.8273 164.2 46.0412 170.787C48.3505 170.873 50.8073 170.947 53.3133 170.996C56.0403 154.663 55.1805 138.318 55.1805 121.973C58.1286 139.08 64.8725 155.609 74.0978 170.836C76.0878 170.75 78.0164 170.615 79.8467 170.467C79.6379 169.902 79.4291 169.337 79.2203 168.759Z" fill="#9DC9E3"/>
</g>
<g style="mix-blend-mode:multiply">
<path d="M36.2754 107.926C39.4692 106.882 42.749 106.415 46.0288 107.41C50.4142 108.737 55.549 111.171 58.8902 105.481C59.6887 104.129 60.3766 102.715 61.1628 101.351C62.4157 99.1515 64.0249 96.9885 65.9044 94.9485C61.7032 96.6567 60.0695 100.282 56.8142 103.588C52.2691 108.209 48.5594 105.222 43.916 102.642C39.42 100.147 34.6784 101.314 30.6861 103.821C30.0474 106.365 29.4946 109.266 29.0155 112.412C31.0792 110.396 33.5606 108.811 36.2876 107.926H36.2754Z" fill="#79AAC7"/>
</g>
<path d="M49.0998 81.7988C48.7559 81.9831 48.3996 82.1798 48.0434 82.4132C48.0434 82.4132 40.8818 81.1966 33.8062 81.2212C51.7409 67.0268 63.8038 50.5344 63.8038 50.5344C65.8061 50.4975 67.833 50.8662 69.7861 51.6158C70.2038 51.7756 70.646 51.9354 71.0882 52.0951C71.0636 52.3532 70.4986 60.1447 65.8921 70.4064C64.7128 73.0364 63.2756 75.8138 61.4944 78.6895C59.8729 79.2303 58.1163 80.0537 56.2368 81.258C56.2368 81.258 54.3205 80.0782 51.2004 80.9508C52.7973 78.837 50.5002 79.6481 49.0876 81.7988H49.0998Z" fill="#0E5E8E"/>
<path style="mix-blend-mode:hard-light" d="M49.0998 81.7988C48.7559 81.9831 48.3996 82.1798 48.0434 82.4132C48.0434 82.4132 40.8818 81.1966 33.8062 81.2212C51.7409 67.0268 63.8038 50.5344 63.8038 50.5344C65.8061 50.4975 67.833 50.8662 69.7861 51.6158C70.2038 51.7756 70.646 51.9354 71.0882 52.0951C71.0636 52.3532 70.4986 60.1447 65.8921 70.4064C64.7128 73.0364 63.2756 75.8138 61.4944 78.6895C59.8729 79.2303 58.1163 80.0537 56.2368 81.258C56.2368 81.258 54.3205 80.0782 51.2004 80.9508C52.7973 78.837 50.5002 79.6481 49.0876 81.7988H49.0998Z" fill="url(#paint1_linear_81707_1740)"/>
<g style="mix-blend-mode:multiply">
<path d="M40.2922 81.4914C41.1152 81.5528 41.926 81.6265 42.663 81.7003C45.8692 78.4927 48.7313 74.683 51.3724 70.8241C47.8223 74.5601 44.0388 78.0995 40.2922 81.4914Z" fill="#9DC9E3"/>
</g>
<g style="mix-blend-mode:multiply">
<path d="M58.8534 62.0494C58.2883 62.9342 57.7232 63.8191 57.1336 64.6916C55.4507 67.1741 53.731 69.8286 51.9252 72.4463C54.8365 68.7103 57.4653 64.8022 59.7992 60.7467C59.4921 61.1768 59.1727 61.6193 58.8534 62.0494Z" fill="#9DC9E3"/>
</g>
<g style="mix-blend-mode:multiply">
<path d="M59.1728 68.956C63.5213 63.5487 66.4203 57.5883 69.3808 51.4804C68.4472 51.1486 67.5013 50.9028 66.5554 50.743C61.7769 62.2091 54.5417 72.8518 45.7095 82.0689C45.9797 82.1058 46.2377 82.1426 46.4711 82.1795C50.9793 78.0379 55.3524 73.7243 59.1728 68.9683V68.956Z" fill="#9DC9E3"/>
</g>
<g style="mix-blend-mode:multiply">
<path d="M61.2733 71.0576C58.4234 74.4495 55.3893 77.6324 52.2446 80.7171C54.7505 80.3238 56.2492 81.2455 56.2492 81.2455C58.1286 80.0412 59.873 79.2055 61.5067 78.677C63.2756 75.8013 64.7251 73.0239 65.9044 70.3939C68.6069 64.3598 69.9213 59.1982 70.5477 55.9047C67.9435 61.226 65.1919 66.4121 61.2856 71.0576H61.2733Z" fill="#9DC9E3"/>
</g>
<g style="mix-blend-mode:multiply">
<path d="M61.6541 53.9139C63.8161 53.705 65.9659 54.086 67.8944 55.0814C68.7789 55.5361 69.6019 56.0769 70.4004 56.6422C70.9654 53.8894 71.0883 52.2057 71.1006 52.0828C70.6583 51.9353 70.2161 51.7756 69.7985 51.6035C67.8453 50.8539 65.8184 50.4852 63.8161 50.522C63.8161 50.522 62.8703 51.8124 61.1136 53.9877C61.2856 53.9508 61.4576 53.9139 61.6541 53.8894V53.9139Z" fill="#79AAC7"/>
</g>
<g style="mix-blend-mode:multiply">
<path d="M59.5659 75.482C54.4066 75.4206 49.8983 78.1366 44.8865 78.9599C42.8965 79.2918 40.8696 79.2672 38.8673 79.0583C38.2163 78.9968 37.602 78.8125 37.0001 78.6158C35.956 79.4884 34.8996 80.3487 33.8186 81.2089C40.8942 81.1721 48.0557 82.401 48.0557 82.401C48.412 82.1675 48.7682 81.9709 49.1122 81.7865C50.5248 79.6359 52.8219 78.8248 51.225 80.9386C54.3452 80.066 56.2615 81.2458 56.2615 81.2458C58.1409 80.0414 59.8853 79.2057 61.519 78.6773C62.0595 77.7924 62.5632 76.9199 63.0545 76.0473C61.9613 75.6909 60.8065 75.482 59.5781 75.4697L59.5659 75.482Z" fill="#79AAC7"/>
</g>
<path d="M80.1784 87.2922C83.9251 87.4028 87.2049 86.0878 87.0943 87.1938C86.91 89.0127 83.6917 89.111 80.1784 89.8115C74.8226 90.893 71.641 93.3509 67.3908 94.4569C62.0472 95.8333 60.438 99.9257 56.8142 103.6C52.2691 108.221 48.5594 105.235 43.916 102.654C39.4201 100.159 34.6784 101.327 30.6861 103.834C29.3472 104.682 28.0819 105.677 26.9395 106.734C22.2593 111.109 18.5741 121.42 10.5526 119.835C2.76458 118.298 3.04711 108.479 5.23366 102.814C6.49892 99.5202 7.93615 96.9517 7.34651 93.2894C6.92886 90.684 5.40563 89.3076 3.88241 87.2553C1.08166 83.4701 -1.51027 77.7432 1.04481 73.1716C3.72272 68.3787 10.4175 68.6122 14.1518 69.4356C14.8889 80.8525 18.3038 92.2325 19.7165 93.2894C21.5345 94.6413 41.6066 93.695 56.2369 81.258C58.1163 80.0537 59.8607 79.218 61.4944 78.6895C69.0737 76.1948 74.0241 79.9799 76.7635 80.7542C81.4805 82.0937 84.7235 81.3318 86.2099 82.0323C86.6275 82.2166 86.9101 82.5239 87.0452 83.0277C87.3891 84.269 85.5097 84.9572 81.1857 84.8834C75.5596 84.7851 73.238 87.0955 80.1661 87.3044L80.1784 87.2922Z" fill="#503463"/>
<path style="mix-blend-mode:hard-light" d="M82.8072 87.1691C81.9842 87.2552 81.0997 87.3166 80.1784 87.292C76.7389 87.1937 75.5842 86.5669 75.9773 85.9771C75.2034 86.0139 74.4295 86.0877 73.6679 86.2228C69.1719 87.0708 64.8848 88.8651 61.0891 91.4213C56.3351 94.6166 52.2568 101.486 46.2008 102.334C45.2427 102.47 44.2968 102.457 43.3632 102.359C43.5475 102.445 43.7317 102.531 43.916 102.642C48.5594 105.222 52.2691 108.209 56.8142 103.588C60.4257 99.9133 62.0472 95.8332 67.3908 94.4445C71.641 93.3384 74.8226 90.8805 80.1784 89.7991C82.4264 89.3567 84.5515 89.1477 85.8413 88.5824C84.8095 88.1523 83.8391 87.6238 82.8195 87.1691H82.8072Z" fill="url(#paint2_linear_81707_1740)"/>
<path style="mix-blend-mode:hard-light" d="M25.834 100.27C20.9204 102.74 17.8616 108.627 12.297 109.868C7.83787 110.863 5.15995 105.8 6.64632 102.089C8.59948 97.1975 13.3534 94.2235 15.3925 89.5043C17.1737 85.3873 13.1077 83.9003 9.98757 82.5607C7.39564 81.4547 4.75459 80.4592 2.77686 78.37C1.10624 76.6003 0.835978 74.6586 1.32734 72.7415C1.24135 72.8766 1.14308 73.0118 1.05709 73.1593C-1.49799 77.731 1.09396 83.4579 3.89471 87.243C5.40564 89.2831 6.92885 90.6718 7.35879 93.2772C7.96071 96.9394 6.51119 99.5079 5.24594 102.801C3.05939 108.467 2.76457 118.286 10.5649 119.822C18.5864 121.408 22.2716 111.097 26.9518 106.722C28.0942 105.653 29.3595 104.669 30.6984 103.822C33.1552 102.273 35.9068 101.253 38.6953 101.265C34.4327 99.8766 30.2685 98.0455 25.8585 100.27H25.834Z" fill="url(#paint3_linear_81707_1740)"/>
<g style="mix-blend-mode:screen">
<path d="M33.5483 96.4355C33.5483 96.7427 33.6834 97.0253 33.9291 97.2097C34.5433 97.689 35.4155 96.8287 34.8013 96.3494C34.6784 96.2511 34.6539 95.6366 34.617 95.4769C34.5433 95.1573 34.4205 94.8624 34.2853 94.5551C33.966 93.8424 32.8972 94.4691 33.2289 95.1696C33.4009 95.5383 33.5483 96.0176 33.5483 96.4231V96.4355Z" fill="#1F262B"/>
<path d="M29.9982 95.5507C30.3053 95.0837 30.6124 94.7519 31.0301 94.3587C31.6074 93.8179 30.7352 92.97 30.1579 93.5107C29.6665 93.9777 29.3103 94.3955 28.9295 94.9486C28.4873 95.5999 29.556 96.2021 29.9859 95.563L29.9982 95.5507Z" fill="#1F262B"/>
<path d="M36.1157 93.0927V95.4154C36.1157 96.1896 37.3318 96.1896 37.3441 95.4154V93.105C37.3441 92.3307 36.128 92.3307 36.1157 93.105V93.0927Z" fill="#1F262B"/>
<path d="M21.7802 95.4523C21.3626 96.0299 20.7115 96.6935 20.5887 97.4186C20.4536 98.1805 21.6328 98.5001 21.7679 97.7381C21.8171 97.4677 22.0873 97.1236 22.2225 96.8779C22.3699 96.5952 22.6524 96.3371 22.8367 96.0667C23.2912 95.4277 22.2347 94.8255 21.7802 95.4646V95.4523Z" fill="#1F262B"/>
<path d="M38.7444 94.248C38.3759 94.9731 37.9828 95.6367 37.946 96.4724C37.9091 97.2466 39.1252 97.2466 39.1744 96.4724C39.2112 95.8825 39.5429 95.3786 39.8131 94.8625C40.1694 94.1742 39.1129 93.5598 38.7567 94.2603L38.7444 94.248Z" fill="#1F262B"/>
<path d="M43.1298 94.0758C42.921 93.3262 41.7417 93.6457 41.9506 94.3954C42.1839 95.2434 42.3068 96.0913 42.921 96.7672C43.4492 97.3448 44.3091 96.4846 43.7932 95.907C43.3632 95.4277 43.3018 94.6657 43.1421 94.0636L43.1298 94.0758Z" fill="#1F262B"/>
<path d="M41.5206 90.9175H39.2849C38.4988 90.9175 38.4865 92.1341 39.2849 92.1341H41.5206C42.3068 92.1341 42.3068 90.9175 41.5206 90.9175Z" fill="#1F262B"/>
<path d="M21.6942 104.374C21.9399 105.112 23.1192 104.792 22.8735 104.055C22.7752 103.76 22.677 103.453 22.5664 103.145C22.3207 102.408 21.1414 102.728 21.3871 103.465C21.4854 103.772 21.596 104.067 21.6942 104.374Z" fill="#1F262B"/>
<path d="M46.5079 92.0112H44.7759C43.9897 92.0112 43.9897 93.2279 44.7759 93.2279H46.5079C47.2941 93.2279 47.2941 92.0112 46.5079 92.0112Z" fill="#1F262B"/>
<path d="M46.2745 96.841C46.6922 97.4432 47.2818 97.7873 47.9083 98.156C48.5839 98.5493 49.1981 97.5047 48.5225 97.1114C48.0926 96.8656 47.6135 96.6444 47.3187 96.2265C46.8764 95.5875 45.82 96.202 46.2622 96.841H46.2745Z" fill="#1F262B"/>
<path d="M47.1835 100.048C46.8887 100.528 46.6676 100.847 46.1763 101.142C46.0903 101.191 46.0166 101.265 45.9551 101.363C46.1394 101.093 45.82 101.462 45.8077 101.486C45.6603 101.695 45.6726 101.88 45.7095 102.113C45.734 102.297 45.9552 102.506 46.1394 102.531C46.164 102.531 46.2008 102.531 46.2254 102.531C46.5939 102.58 46.8642 102.334 46.9502 102.064C47.5275 101.732 47.8837 101.228 48.24 100.638C48.6453 99.9624 47.5889 99.3725 47.1835 100.036V100.048Z" fill="#1F262B"/>
<path d="M34.6907 99.6798C34.3713 99.3848 34.0396 99.1145 33.7694 98.7826C33.278 98.1805 32.4059 99.0407 32.8972 99.6429C33.1306 99.9379 33.4009 100.171 33.6834 100.417C33.9905 100.688 34.2362 101.056 34.531 101.339C35.0838 101.892 35.9559 101.032 35.4032 100.479C35.1452 100.233 34.9486 99.9133 34.6907 99.6798Z" fill="#1F262B"/>
<path d="M31.3618 100.847C31.1775 101.167 30.9072 101.413 30.6493 101.695C30.4405 101.941 30.3053 102.212 30.1211 102.47C29.6665 103.109 30.723 103.711 31.1775 103.072C31.374 102.789 31.5214 102.519 31.7671 102.261C32.0128 102.003 32.2339 101.745 32.4059 101.45C32.799 100.774 31.7425 100.171 31.3495 100.847H31.3618Z" fill="#1F262B"/>
<path d="M50.4511 103.121C50.2054 103.01 50.0089 102.838 49.7878 102.691C49.5298 102.519 49.2227 102.543 48.9279 102.543C48.1417 102.543 48.1417 103.748 48.9279 103.748C49.321 103.748 49.4807 104.006 49.8369 104.166C50.5494 104.485 51.1636 103.44 50.4511 103.121Z" fill="#1F262B"/>
<path d="M49.7386 91.7039C49.6281 91.8883 49.5298 92.3921 49.3455 92.4905C48.6576 92.8591 49.2718 93.9038 49.9597 93.5351C50.4511 93.277 50.5371 92.7485 50.795 92.3184C51.1881 91.6425 50.144 91.0403 49.7509 91.7039H49.7386Z" fill="#1F262B"/>
<path d="M45.5252 89.4919C45.1444 89.6148 44.6899 89.4674 44.2968 89.4182C43.5229 89.3322 43.3632 90.5365 44.1371 90.6226C44.6408 90.684 45.1198 90.7578 45.5989 90.6963C45.6849 90.6963 45.7832 90.6963 45.8815 90.6594L45.9797 90.6226C46.7045 90.3276 46.2377 89.2584 45.5129 89.4919H45.5252Z" fill="#1F262B"/>
<path d="M22.3576 110.015C22.1856 109.831 22.0382 109.634 21.8908 109.45C21.7679 109.303 21.424 109.143 21.424 108.934C21.4117 108.16 20.1833 108.16 20.1956 108.934C20.2079 109.745 20.9695 110.31 21.4977 110.876C22.0382 111.453 22.8981 110.593 22.3698 110.015H22.3576Z" fill="#1F262B"/>
<path d="M37.9091 98.2296C37.5529 98.7212 36.9387 99.0653 36.8281 99.6921C36.693 100.454 37.8723 100.774 38.0074 99.9993C38.0443 99.7658 38.3391 99.5692 38.4988 99.4094C38.6707 99.2251 38.8181 99.0285 38.9656 98.8318C39.4323 98.1928 38.3636 97.6029 37.9091 98.2296Z" fill="#1F262B"/>
<path d="M42.3928 98.8074C42.3191 98.5984 42.2208 98.3772 42.1348 98.156C42.1717 97.8365 41.9874 97.4801 41.5698 97.4801H41.4715C41.0661 97.4801 40.8082 97.8611 40.8942 98.242C40.9679 98.5493 41.1398 98.8319 41.2381 99.1269C41.3978 99.557 41.5083 99.9872 41.5943 100.43C41.7417 101.192 42.8842 100.872 42.749 100.11C42.663 99.6676 42.5402 99.2375 42.3928 98.8074Z" fill="#1F262B"/>
<path d="M18.832 95.2065C18.6355 95.0099 18.4144 94.8378 18.181 94.6781C17.8739 94.4692 17.5299 94.3954 17.2228 94.2111C16.5595 93.8301 15.9453 94.8624 16.6209 95.2434C17.1 95.5261 17.5791 95.6489 17.9967 96.0422C18.5618 96.5707 19.3971 95.735 18.8443 95.1942L18.832 95.2065Z" fill="#1F262B"/>
<path d="M18.3039 109.339C17.8739 109.536 17.4194 109.708 17.1983 110.15C16.842 110.826 17.8739 111.441 18.2301 110.753C18.3407 110.544 18.7092 110.458 18.9058 110.372C19.606 110.052 19.004 109.02 18.3039 109.339Z" fill="#1F262B"/>
<path d="M17.0877 105.382C16.756 105.849 16.1664 106.255 16.0313 106.82C15.8593 107.57 17.014 107.889 17.186 107.14C17.2105 107.029 17.5914 106.685 17.6651 106.587C17.8125 106.39 17.9721 106.193 18.1196 105.997C18.5618 105.37 17.5299 104.768 17.0877 105.394V105.382Z" fill="#1F262B"/>
<path d="M45.8692 98.7581C45.7709 98.6721 45.6972 98.586 45.648 98.4754C45.5498 97.7258 44.3582 97.7135 44.4565 98.4754C44.5179 98.9547 44.7022 99.2497 45.0338 99.5938C45.5743 100.147 46.4219 99.2988 45.8814 98.7458L45.8692 98.7581Z" fill="#1F262B"/>
<path d="M20.9081 106.39C20.7361 106.169 20.6747 105.911 20.5027 105.689C20.0482 105.087 19.0041 105.677 19.4708 106.292C19.6428 106.513 19.7042 106.771 19.8639 106.992C20.3184 107.594 21.3626 106.992 20.8958 106.39H20.9081Z" fill="#1F262B"/>
<path d="M31.0915 96.2266C30.5264 96.5953 30.4896 97.6399 30.3913 98.2175C30.2562 98.9672 31.4109 99.299 31.546 98.537C31.5951 98.2666 31.632 97.984 31.6688 97.7013C31.6934 97.5662 31.718 97.4432 31.7671 97.3204C31.8039 97.2589 31.804 97.2466 31.8162 97.2221C32.0251 97.136 32.1725 96.8902 32.1725 96.6813V96.583C32.1725 95.9685 31.4109 95.8456 31.1038 96.2266H31.0915Z" fill="#1F262B"/>
<path d="M29.5191 99.4219C29.2735 99.1147 29.0155 98.8197 28.7575 98.5248C28.5487 98.279 28.1556 98.0332 28.0082 97.7506C27.6765 97.0624 26.6447 97.6645 26.9763 98.3528C27.136 98.6846 27.4063 98.8443 27.6642 99.0778C28.0328 99.3974 28.3644 99.8889 28.6592 100.27C29.1383 100.872 29.9736 100.024 29.5068 99.4219H29.5191Z" fill="#1F262B"/>
<path d="M26.399 94.9239C26.1779 95.1205 25.8339 95.2188 25.576 95.3663C25.2197 95.5752 24.9618 95.8825 24.8512 96.2757C24.6424 97.0254 25.7971 97.3326 26.0059 96.5952C26.1042 96.2266 26.9518 96.0176 27.2466 95.7596C27.8362 95.2557 26.9886 94.42 26.399 94.9116V94.9239Z" fill="#1F262B"/>
<path d="M26.2885 99.766C25.7971 99.8643 25.6128 100.27 25.3303 100.639C24.8635 101.253 25.8954 101.843 26.3622 101.241C26.4236 101.167 26.5096 100.934 26.6078 100.921C27.3572 100.774 27.0378 99.6186 26.2885 99.766Z" fill="#1F262B"/>
<path d="M27.4186 101.941C26.7798 102.408 26.2025 102.801 26.1288 103.649C26.0551 104.424 27.2589 104.411 27.3203 103.649C27.3449 103.342 27.7994 103.133 28.0205 102.974C28.6347 102.531 28.0451 101.487 27.4186 101.941Z" fill="#1F262B"/>
<path d="M19.348 98.3158C18.6846 98.0085 17.9722 97.8365 17.2597 97.7382C16.4981 97.6399 16.5104 98.8319 17.2597 98.9303C17.7511 98.9917 18.3038 99.1392 18.7461 99.3481C19.4463 99.6676 20.0482 98.6353 19.348 98.3158Z" fill="#1F262B"/>
<path d="M20.4535 111.908C20.085 112.191 19.8762 112.436 19.8639 112.916C19.8516 113.69 21.0432 113.69 21.0555 112.916C21.0555 112.916 21.0555 112.928 21.0555 112.94C21.6697 112.486 21.0677 111.453 20.4535 111.908Z" fill="#1F262B"/>
<path d="M48.5594 87.8943C48.2154 88.2876 47.7363 88.8283 47.6135 89.3568C47.4415 90.1064 48.5839 90.426 48.7682 89.6763C48.8419 89.3814 49.2104 88.9758 49.4069 88.7423C49.9106 88.1647 49.0753 87.3167 48.5594 87.8943Z" fill="#1F262B"/>
<path d="M26.6692 105.468C26.1779 105.112 25.2689 104.755 24.9863 104.19C24.6547 103.502 23.6228 104.104 23.9545 104.792C24.3353 105.579 25.3794 106.021 26.055 106.501C26.6815 106.955 27.2835 105.911 26.657 105.468H26.6692Z" fill="#1F262B"/>
<path d="M22.8244 99.3604C22.4804 99.5447 22.1487 99.7782 21.7679 99.9011C21.0309 100.135 21.3503 101.29 22.0873 101.056C22.5664 100.909 22.9841 100.638 23.4263 100.393C24.1019 100.036 23.5 99.004 22.8244 99.3604Z" fill="#1F262B"/>
<path d="M23.5123 107.029H23.1192C22.3453 107.029 22.3453 108.221 23.1192 108.221H23.5123C24.2862 108.221 24.2862 107.029 23.5123 107.029Z" fill="#1F262B"/>
<path d="M51.9375 87.919C51.6672 87.3659 51.3724 86.6409 51.3233 86.0264C51.2618 85.2644 50.058 85.2522 50.1317 86.0264C50.2054 86.8744 50.5371 87.7592 50.9056 88.5212C51.2373 89.2094 52.2691 88.6072 51.9375 87.919Z" fill="#1F262B"/>
<path d="M50.9916 95.2679C50.5494 95.7964 50.4634 96.3986 50.2423 97.0254C49.9843 97.7504 51.139 98.0699 51.397 97.3449C51.5444 96.9516 51.5567 96.4477 51.8392 96.1159C52.3306 95.526 51.483 94.6781 50.9916 95.2679Z" fill="#1F262B"/>
<path d="M52.0357 101.241C51.6672 100.872 51.3478 100.565 51.139 100.073C50.8319 99.3604 49.8123 99.9748 50.1071 100.675C50.2423 100.983 50.3037 101.204 50.5494 101.437L51.2004 102.089C51.7409 102.629 52.5885 101.794 52.048 101.241H52.0357Z" fill="#1F262B"/>
<path d="M53.6327 102.248C52.9939 102.863 52.478 103.354 52.1832 104.202C51.9375 104.94 53.0922 105.247 53.3379 104.522C53.5467 103.895 54.0135 103.539 54.4803 103.096C55.033 102.568 54.1854 101.72 53.6327 102.248Z" fill="#1F262B"/>
<path d="M17.014 102.912C16.5472 102.642 16.0804 102.384 15.6136 102.113C14.9503 101.72 14.3484 102.752 15.0117 103.146C15.4662 103.416 15.9453 103.674 16.3998 103.944C17.0631 104.338 17.6651 103.305 17.0017 102.912H17.014Z" fill="#1F262B"/>
<path d="M18.9303 101.523C18.832 101.511 18.7583 101.462 18.6969 101.376C18.1441 100.835 17.2966 101.683 17.8493 102.224C18.0704 102.445 18.3038 102.605 18.6109 102.678C19.3603 102.851 19.6796 101.695 18.9303 101.523Z" fill="#1F262B"/>
<path d="M54.9839 100.614C54.7259 99.8274 54.6031 99.1146 54.6031 98.2789C54.6031 97.5047 53.4116 97.5047 53.4116 98.2789C53.4116 99.2129 53.5344 100.036 53.8292 100.921C54.0749 101.646 55.2173 101.339 54.9839 100.602V100.614Z" fill="#1F262B"/>
<path d="M16.7192 91.0282C16.191 91.3231 15.5154 91.9007 15.2083 92.5152C15.0977 92.6135 15.024 92.7487 15.024 92.933V93.0314C15.024 93.695 16.0436 93.8548 16.191 93.1911C16.2893 92.7487 16.9403 92.2571 17.3088 92.0482C17.9845 91.6672 17.3825 90.6349 16.7069 91.0159L16.7192 91.0282Z" fill="#1F262B"/>
<path d="M7.66589 104.338C7.3465 104.006 6.90429 103.576 6.83058 103.109C6.70774 102.347 5.55304 102.666 5.67588 103.428C5.78644 104.092 6.37606 104.719 6.81829 105.186C7.35878 105.739 8.1941 104.891 7.66589 104.338Z" fill="#1F262B"/>
<path d="M9.39793 100.909C8.79601 100.7 8.16954 100.688 7.54305 100.688C6.76916 100.688 6.76916 101.88 7.54305 101.88C8.07126 101.88 8.57491 101.88 9.07855 102.052C9.80331 102.298 10.1227 101.155 9.39793 100.897V100.909Z" fill="#1F262B"/>
<path d="M56.8756 99.3727C56.6791 99.7168 56.544 99.9749 56.4948 100.368C56.3966 101.13 57.5881 101.118 57.6864 100.368C57.6987 100.233 57.8461 100.086 57.9075 99.9749C58.2883 99.3113 57.2564 98.7091 56.8756 99.3727Z" fill="#1F262B"/>
<path d="M7.29737 115.963C7.10082 116.308 6.9657 116.566 6.91657 116.959C6.8183 117.721 8.00985 117.709 8.10812 116.959C8.1204 116.836 8.25554 116.676 8.32924 116.566C8.71004 115.902 7.67817 115.3 7.29737 115.963Z" fill="#1F262B"/>
<path d="M56.7159 96.964L55.5244 95.7719C54.9839 95.2312 54.1363 96.0669 54.6768 96.6199L55.8683 97.812C56.4088 98.3527 57.2564 97.5047 56.7159 96.964Z" fill="#1F262B"/>
<path d="M54.4311 93.5721C54.0872 93.2525 53.6818 92.9945 53.3379 92.6749C52.7728 92.1465 51.9375 92.9945 52.4903 93.5229C52.8342 93.8424 53.2396 94.1005 53.5835 94.4201C54.1486 94.9485 54.9962 94.1005 54.4311 93.5721Z" fill="#1F262B"/>
<path d="M54.1855 88.9881C53.7187 89.4673 52.9939 90.0695 52.8342 90.7455C52.6622 91.4951 53.8169 91.8146 53.9889 91.065C54.038 90.8561 54.3328 90.598 54.468 90.4259C54.6399 90.217 54.8365 90.0204 55.0331 89.8238C55.5736 89.283 54.7382 88.435 54.1855 88.9758V88.9881Z" fill="#1F262B"/>
<path d="M54.6277 85.6086C54.4926 85.4857 54.3575 85.3874 54.21 85.2767C54.0995 85.1907 53.8047 84.9572 53.8047 84.9326C53.8661 84.1584 52.6623 84.1707 52.6131 84.9326C52.564 85.6823 53.3133 86.0264 53.7801 86.4565C54.3452 86.9727 55.1928 86.1247 54.6277 85.6086Z" fill="#1F262B"/>
<path d="M56.5931 82.5238C56.3352 82.6836 55.8684 82.9171 55.5981 82.9417C54.8365 83.0031 54.8242 84.1338 55.5981 84.1338H55.6964C55.7947 84.1338 55.8929 84.1092 55.9666 84.0723C56.3966 83.974 56.8388 83.7774 57.195 83.5562C57.8461 83.1506 57.2565 82.1183 56.5931 82.5238Z" fill="#1F262B"/>
<path d="M57.9812 86.2229C57.711 86.2229 57.4161 86.2229 57.1459 86.2843C56.9248 86.3458 56.8142 86.4687 56.63 86.5424C55.9298 86.8374 56.2369 87.9926 56.9493 87.6976C57.3302 87.5379 57.5513 87.4272 57.9812 87.415C58.7551 87.415 58.7551 86.2106 57.9812 86.2229Z" fill="#1F262B"/>
<path d="M58.9885 90.6963C58.6569 90.5242 58.3375 90.3399 58.0058 90.1678C57.6741 89.9835 57.4162 89.7254 57.0476 89.6394C56.2983 89.4673 55.9789 90.6225 56.7282 90.7946C56.9494 90.8437 57.195 91.0895 57.3916 91.2001C57.7233 91.3722 58.0427 91.5565 58.3743 91.7286C59.0622 92.085 59.6641 91.0527 58.9762 90.6963H58.9885Z" fill="#1F262B"/>
<path d="M56.4703 92.4783C56.2246 92.7364 56.0158 93.019 55.7701 93.2771C55.2419 93.8301 56.0895 94.6781 56.6177 94.1251C56.8634 93.867 57.0722 93.5843 57.3179 93.3263C57.8461 92.7609 56.9985 91.913 56.4703 92.4783Z" fill="#1F262B"/>
<path d="M58.8657 94.887C58.4726 95.4277 57.9198 95.9316 57.8092 96.6198C57.6864 97.3695 58.8288 97.7013 58.9639 96.9393C59.0622 96.374 59.5781 95.9316 59.8975 95.4892C60.352 94.8624 59.3079 94.2602 58.8657 94.887Z" fill="#1F262B"/>
<path d="M16.5841 117.328C16.2401 116.971 16.0068 116.566 15.8348 116.099C15.7242 115.804 15.4417 115.386 15.1592 115.238C14.4835 114.882 13.8816 115.914 14.5572 116.271C14.7415 116.369 14.8398 116.836 14.9503 117.069C15.1346 117.475 15.4171 117.844 15.7365 118.175C16.2647 118.741 17.1123 117.893 16.5841 117.328Z" fill="#1F262B"/>
<path d="M12.125 98.3772C11.6459 98.6722 11.0071 98.8688 10.7123 99.385C10.3438 100.061 11.3757 100.663 11.7442 99.9872C11.8916 99.7291 12.4689 99.557 12.7269 99.4096C13.378 99.004 12.7883 97.9717 12.125 98.3772Z" fill="#1F262B"/>
<path d="M11.9039 102.248C11.3142 102.789 10.1841 103.182 9.96299 104.006C9.75416 104.755 10.9089 105.063 11.1177 104.325C11.1423 104.252 11.4002 104.141 11.4616 104.092C11.6091 103.957 11.7565 103.846 11.9162 103.735C12.211 103.539 12.4935 103.33 12.7515 103.096C13.3165 102.568 12.4689 101.732 11.9039 102.248Z" fill="#1F262B"/>
<path d="M15.6136 98.1929C15.6014 97.4186 14.3975 97.4186 14.4221 98.1929C14.4344 98.9548 14.5204 99.7168 14.5204 100.479C14.5204 101.241 15.7119 101.253 15.7119 100.479C15.7119 99.7045 15.6259 98.9548 15.6136 98.1929Z" fill="#1F262B"/>
<path d="M19.3725 114.489C19.3725 114.489 19.3602 114.464 19.348 114.44C19.2865 114.329 19.2006 114.206 19.1269 114.108C18.8935 113.813 18.5864 113.604 18.3161 113.346C17.751 112.83 16.9034 113.665 17.4685 114.194C17.7756 114.477 18.0827 114.698 18.3161 115.042C18.5372 115.361 18.7092 115.73 19.176 115.669C19.8516 115.583 19.9253 114.599 19.3725 114.489Z" fill="#1F262B"/>
<path d="M62.8457 93.6949C62.5017 94.1742 62.0595 94.6535 61.6418 95.0714C61.1013 95.6244 61.9489 96.46 62.4894 95.9193C62.9808 95.4277 63.4721 94.8747 63.8775 94.2971C64.332 93.6704 63.2879 93.0804 62.8457 93.6949Z" fill="#1F262B"/>
<path d="M61.6541 90.7086C61.3593 91.1756 61.0522 91.6303 60.7574 92.0973C60.352 92.7609 61.3839 93.3508 61.7893 92.6995C62.0841 92.2325 62.4034 91.7778 62.686 91.3108C63.0914 90.6472 62.0595 90.0573 61.6541 90.7086Z" fill="#1F262B"/>
<path d="M61.1751 88.5211C61.1013 88.5211 60.7942 88.1032 60.696 88.0049C60.18 87.4396 59.3324 88.2876 59.8484 88.8529C60.2046 89.2338 60.5731 89.7869 61.1628 89.7254C61.9244 89.6394 61.9244 88.4473 61.1628 88.5334L61.1751 88.5211Z" fill="#1F262B"/>
<path d="M60.5362 83.7773C60.5731 83.3103 60.8311 82.9048 60.8802 82.4378C60.9539 81.6758 59.7624 81.6758 59.6886 82.4378C59.6641 82.659 59.5413 82.8802 59.4675 83.0891C59.3693 83.3595 59.357 83.679 59.3324 83.9617C59.2956 84.5024 59.357 85.0677 59.5044 85.5839C59.7255 86.3213 60.8802 86.014 60.6591 85.2644C60.5117 84.7728 60.4994 84.2812 60.5362 83.7773Z" fill="#1F262B"/>
<path d="M59.5781 79.943C58.9639 80.2748 58.0672 80.9016 58.3128 81.7127C58.5217 82.4132 59.5658 82.1551 59.4798 81.4915C59.4798 81.4915 59.5044 81.4915 59.529 81.4423C59.615 81.3563 59.7132 81.2826 59.8115 81.2088C59.9343 81.1228 60.0695 81.0368 60.2046 80.9753C60.8802 80.6189 60.2783 79.5866 59.6027 79.943H59.5781Z" fill="#1F262B"/>
<path d="M63.337 80.9876C63.2142 80.5206 63.1896 79.943 63.1528 79.4514C63.0913 78.6895 61.8998 78.6772 61.9612 79.4514C62.0104 80.0536 62.0349 80.7173 62.1823 81.3071C62.3789 82.0568 63.5213 81.7373 63.337 80.9876Z" fill="#1F262B"/>
<path d="M64.1723 86.3212C63.8898 85.8419 63.7669 85.3012 63.5336 84.8096C63.3861 84.4901 63.079 83.9862 62.7597 83.8265C62.3666 83.6175 61.8629 83.8756 61.8629 84.3426V84.4409C61.8629 84.7482 62.0472 84.9325 62.2806 84.994C62.3912 85.166 62.5017 85.4364 62.5386 85.5716C62.6614 86.0263 62.9071 86.5301 63.1528 86.9357C63.5458 87.5993 64.5777 86.9972 64.1846 86.3335L64.1723 86.3212Z" fill="#1F262B"/>
<path d="M65.7078 88.7423C64.9339 88.4965 64.2829 88.4842 63.4967 88.7423C62.7719 88.9758 63.079 90.131 63.8161 89.8975C64.4057 89.7132 64.8111 89.7132 65.3884 89.8975C66.1255 90.131 66.4449 88.9758 65.7078 88.7423Z" fill="#1F262B"/>
<path d="M67.8453 92.7855C67.4522 92.5274 67.0591 92.2816 66.666 92.0235C66.494 91.9129 66.322 91.8023 66.1501 91.6917C66.1501 91.6917 65.843 91.5565 65.8675 91.6057C65.5113 90.9298 64.4794 91.532 64.8357 92.2079C65.0322 92.5643 65.413 92.638 65.7201 92.8346C66.2238 93.1665 66.7397 93.486 67.2311 93.8178C67.8698 94.2479 68.4717 93.2033 67.833 92.7855H67.8453Z" fill="#1F262B"/>
<path d="M13.3534 114.034C13.1323 113.813 12.9235 113.592 12.7146 113.358C12.5672 113.198 12.4567 113.014 12.3461 112.83L12.3215 112.879C12.3215 112.879 12.3215 112.867 12.3215 112.854C12.5427 112.424 12.2356 111.785 11.6828 111.994C10.1964 112.535 11.953 114.329 12.5181 114.882C13.0586 115.423 13.9062 114.587 13.3657 114.034H13.3534Z" fill="#1F262B"/>
<path d="M16.0067 111.49C15.4048 112.461 15.5277 113.481 15.5277 114.575C15.5277 115.349 16.7192 115.349 16.7192 114.575C16.7192 113.727 16.5718 112.83 17.0386 112.092C17.4562 111.441 16.4121 110.839 16.0067 111.49Z" fill="#1F262B"/>
<path d="M6.75687 111.478C6.3515 111.687 5.95843 111.908 5.50392 112.018C4.75459 112.203 5.07397 113.358 5.82329 113.174C6.37607 113.038 6.85515 112.768 7.3588 112.522C8.0467 112.178 7.43249 111.146 6.75687 111.49V111.478Z" fill="#1F262B"/>
<path d="M48.9893 94.5184C48.8173 94.4815 48.6699 94.3586 48.4856 94.3218C47.7363 94.1497 47.4169 95.2926 48.1663 95.477C48.3382 95.5138 48.4857 95.6367 48.6699 95.6736C49.4192 95.8457 49.7386 94.6905 48.9893 94.5184Z" fill="#1F262B"/>
<path d="M13.7219 118.569C13.5499 118.532 13.4025 118.409 13.2183 118.372C12.4689 118.2 12.1495 119.355 12.8989 119.527C13.0708 119.564 13.2183 119.687 13.4025 119.724C14.1518 119.896 14.4712 118.741 13.7219 118.569Z" fill="#1F262B"/>
<path d="M65.6219 81.3317C65.3762 81.6512 65.1182 81.9585 64.8848 82.278C64.7865 82.4255 64.7006 82.5852 64.6269 82.745C64.6023 82.8064 64.5409 82.8679 64.504 82.917C64.3075 82.9908 64.1478 83.1628 64.1478 83.4455V83.5438C64.1478 83.9125 64.5286 84.2443 64.9094 84.1214C65.2779 83.9985 65.4376 83.7527 65.6096 83.4209C65.843 82.9662 66.1501 82.5852 66.4572 82.1797C66.924 81.5775 66.0886 80.7295 65.6096 81.3317H65.6219Z" fill="#1F262B"/>
<path d="M64.7128 78.1242C64.5654 78.2471 64.3812 78.3455 64.2461 78.4806C64.1601 78.5544 64.0004 78.837 63.8898 78.8739C63.1405 79.0582 63.4599 80.2134 64.2092 80.0291C64.504 79.9554 64.676 79.7956 64.8725 79.5744C65.0814 79.3409 65.3271 79.1811 65.5727 78.9722C66.1624 78.4683 65.3025 77.6204 64.7251 78.1242H64.7128Z" fill="#1F262B"/>
<path d="M68.5577 79.9062C68.3612 79.599 68.2261 79.304 68.1155 78.9476C67.9067 78.2103 66.752 78.5298 66.9608 79.2672C67.0836 79.7096 67.2802 80.1151 67.5136 80.5084C67.919 81.1597 68.9631 80.5576 68.5455 79.9062H68.5577Z" fill="#1F262B"/>
<path d="M69.651 83.8388C69.3316 83.2243 68.9017 82.4501 68.3366 82.0322C67.7224 81.5775 67.1205 82.6098 67.7347 83.0646C67.8821 83.1752 68.0418 83.5193 68.1524 83.6667C68.3243 83.9125 68.4717 84.1706 68.6192 84.441C68.9754 85.1292 70.0072 84.527 69.651 83.8388Z" fill="#1F262B"/>
<path d="M67.7592 86.9235C67.6487 86.7146 67.5135 86.5179 67.3661 86.3336C67.3293 86.2844 66.9485 85.928 66.9485 85.928C66.9239 85.6454 66.7765 85.4365 66.5063 85.3504C66.408 85.3136 66.3097 85.289 66.2114 85.2521C65.4867 85.0063 65.1673 86.1615 65.8921 86.4073C66.1009 86.8129 66.494 87.0955 66.7274 87.5257C67.0959 88.2016 68.1278 87.5994 67.7592 86.9235Z" fill="#1F262B"/>
<path d="M68.6192 88.1402C68.1278 88.7915 67.6241 89.5043 67.5382 90.3277C67.5013 90.6472 67.833 90.9298 68.1401 90.9298H68.2384C68.7051 90.9298 68.8771 90.4997 68.7911 90.1556C68.9262 89.6518 69.3685 89.1233 69.651 88.7423C70.1178 88.1278 69.0737 87.5257 68.6192 88.1402Z" fill="#1F262B"/>
<path d="M71.383 91.4705C70.9285 91.1633 70.4617 90.9913 69.9458 90.8069C69.2087 90.5611 68.9016 91.7163 69.6264 91.9621C70.0441 92.0973 70.4126 92.2571 70.7811 92.5029C71.4321 92.933 72.0218 91.8884 71.383 91.4705Z" fill="#1F262B"/>
<path d="M5.98298 107.017C5.77416 107.631 5.5899 108.221 5.56533 108.872C5.54076 109.647 6.7323 109.634 6.75686 108.872C6.78143 108.332 6.96571 107.84 7.13768 107.336C7.38336 106.611 6.22866 106.292 5.98298 107.017Z" fill="#1F262B"/>
<path d="M10.6509 110.581C9.91386 110.237 9.17681 110.028 8.35378 110.003C7.57989 109.978 7.57989 111.183 8.35378 111.195C8.9557 111.207 9.50848 111.355 10.049 111.613C10.7369 111.945 11.3388 110.912 10.6509 110.581Z" fill="#1F262B"/>
<path d="M9.70504 105.788C9.17683 106.574 9.0417 107.447 9.02942 108.381C9.02942 109.155 10.221 109.155 10.221 108.381C10.221 107.643 10.3192 107.017 10.7369 106.39C11.1668 105.751 10.135 105.149 9.70504 105.788Z" fill="#1F262B"/>
<path d="M74.4418 89.8851C74.0856 90.0695 73.717 90.2047 73.3608 90.389C73.0783 90.5365 72.98 90.9297 73.1397 91.2001L73.1888 91.2861C73.4345 91.7163 73.9627 91.6179 74.1838 91.3107C74.4664 91.1755 74.7612 91.0526 75.0314 90.9175C75.7193 90.5611 75.1174 89.5287 74.4418 89.8851Z" fill="#1F262B"/>
<path d="M72.3166 87.9066C71.9236 88.2753 71.5551 88.5825 71.2234 89.0004C70.7566 89.6026 71.5919 90.4505 72.071 89.8484C72.4027 89.4305 72.7712 89.111 73.1642 88.7546C73.7293 88.2261 72.8817 87.3782 72.3166 87.9066Z" fill="#1F262B"/>
<path d="M72.2184 85.9156C71.7393 85.5961 71.3093 85.3012 70.7197 85.2397C69.9581 85.166 69.9581 86.3581 70.7197 86.4318C71.0391 86.4687 71.3585 86.7759 71.6165 86.948C72.2552 87.3904 72.8448 86.3458 72.2184 85.9156Z" fill="#1F262B"/>
<path d="M72.5009 81.5406C72.3289 81.8847 72.1447 82.2288 71.9973 82.5852C71.8867 82.8802 71.6902 83.1505 71.641 83.4701C71.5182 84.2197 72.6606 84.5515 72.7957 83.7896C72.8449 83.5315 73.0168 83.3472 73.0905 83.0891C73.1888 82.745 73.3608 82.45 73.5205 82.1428C73.8767 81.4546 72.8449 80.8524 72.4886 81.5406H72.5009Z" fill="#1F262B"/>
<path d="M70.1178 80.0536C69.823 80.4715 69.6142 80.9384 69.3194 81.344C68.8771 81.9708 69.909 82.5729 70.3512 81.9462C70.6461 81.5283 70.8549 81.0736 71.1497 80.6558C71.5919 80.0167 70.5601 79.4269 70.1178 80.0536Z" fill="#1F262B"/>
<path d="M85.2394 82.7574C85.0183 82.5485 84.7726 82.3764 84.5024 82.2412C84.4164 82.2167 84.3304 82.1675 84.2567 82.1183C84.1216 82.02 84.0356 81.9094 84.1093 82.1183C83.8759 81.3933 82.7212 81.7005 82.9546 82.4379C83.1757 83.1138 83.9251 83.1629 84.4041 83.5931C84.9692 84.1092 85.8168 83.2613 85.2517 82.7451L85.2394 82.7574Z" fill="#1F262B"/>
<path d="M81.6402 83.0644C81.4806 82.7326 81.3454 82.4377 81.3209 82.069C81.284 81.3071 80.0802 81.2948 80.1293 82.069C80.1662 82.6589 80.3504 83.1505 80.6084 83.6666C80.9523 84.3548 81.9842 83.7527 81.6402 83.0644Z" fill="#1F262B"/>
<path d="M75.5105 85.2521C75.228 84.7359 74.8103 84.3304 74.3067 84.0477C73.6311 83.6668 73.0291 84.6991 73.7047 85.08C74.0487 85.2767 74.2944 85.5225 74.4786 85.8666C74.8594 86.5425 75.8913 85.9403 75.5105 85.2644V85.2521Z" fill="#1F262B"/>
<path d="M77.5742 82.0323C77.2548 82.6468 77.2794 83.249 77.2917 83.9249C77.2917 84.6991 78.4955 84.6991 78.4832 83.9249C78.4832 83.4947 78.3973 83.0277 78.6061 82.6345C78.9623 81.9463 77.9304 81.3441 77.5742 82.0323Z" fill="#1F262B"/>
<path d="M75.3876 87.0218C75.056 87.6731 75.0928 88.2753 75.228 88.9758C75.3754 89.7378 76.53 89.406 76.3826 88.6563C76.3089 88.2999 76.2475 87.9681 76.4195 87.624C76.7635 86.9358 75.7316 86.3336 75.3876 87.0218Z" fill="#1F262B"/>
<path d="M12.1496 116.136C11.3757 116.136 10.4667 115.963 9.75418 116.32C9.06627 116.652 9.6682 117.684 10.3561 117.352C10.5772 117.242 10.9212 117.328 11.1546 117.328C11.4862 117.328 11.8179 117.328 12.1496 117.328C12.9235 117.328 12.9235 116.136 12.1496 116.136Z" fill="#1F262B"/>
<path d="M79.2817 87.5009C79.0483 87.5992 78.8149 87.6975 78.5815 87.7959C77.8813 88.1154 78.4832 89.1477 79.1834 88.8282C79.4168 88.7176 79.6502 88.6316 79.8836 88.5332C80.5838 88.2137 79.9819 87.1814 79.2817 87.5009Z" fill="#1F262B"/>
<path d="M13.1568 105.161C12.9849 105.689 12.948 106.353 12.9357 106.918C12.9357 107.693 14.1273 107.693 14.1273 106.918C14.1273 106.673 14.2255 106.451 14.2255 106.218C14.2255 105.96 14.2256 105.726 14.2993 105.48C14.5449 104.743 13.3902 104.436 13.1446 105.161H13.1568Z" fill="#1F262B"/>
<path d="M14.852 110.679C14.6186 110.495 14.3484 110.359 14.115 110.163C13.8447 109.942 13.6605 109.598 13.4517 109.303C13.0094 108.688 11.9653 109.278 12.4198 109.905C12.6286 110.187 12.8006 110.495 13.034 110.753C13.3288 111.085 13.6728 111.257 14.0044 111.527C14.6064 112.006 15.454 111.158 14.852 110.679Z" fill="#1F262B"/>
<path d="M8.93113 112.952C8.7223 113.383 8.59947 113.899 8.23095 114.231C7.6536 114.734 8.5012 115.582 9.07855 115.079C9.53306 114.673 9.71731 114.095 9.97528 113.567C10.3069 112.879 9.27509 112.264 8.94342 112.965L8.93113 112.952Z" fill="#1F262B"/>
<path d="M7.54304 85.8174C7.73959 85.6822 7.96069 85.5716 8.16952 85.4364C8.32921 85.3381 8.55032 85.0309 8.75915 85.0554C9.53304 85.166 9.71731 83.9494 8.94342 83.8388C8.14496 83.7282 7.45705 84.3918 6.83057 84.8219C6.17952 85.2643 6.89199 86.2475 7.54304 85.8051V85.8174Z" fill="#1F262B"/>
<path d="M8.83288 81.9216C8.71004 81.4669 8.59949 80.9999 8.20641 80.7049C7.59221 80.2502 6.8306 81.1719 7.45708 81.6266C7.64134 81.7618 7.66591 82.1428 7.72733 82.364C7.93616 83.1014 9.054 82.6589 8.83288 81.9216Z" fill="#1F262B"/>
<path d="M12.9234 81.3194C12.5181 80.9262 12.1987 80.2748 11.6705 80.0536C10.958 79.771 10.4666 80.8524 11.1791 81.1474C11.2897 81.1965 11.5722 81.6144 11.6582 81.7127C11.8302 81.897 12.0021 82.0814 12.1741 82.2534C12.7269 82.7942 13.4762 81.8602 12.9234 81.3194Z" fill="#1F262B"/>
<path d="M11.3511 84.9325C11.5968 84.7973 11.8547 84.7727 12.1004 84.6498C12.7637 84.2811 12.3338 83.1751 11.6582 83.5315C11.4125 83.6666 11.1545 83.6912 10.9089 83.8141C10.2455 84.1705 10.6755 85.2888 11.3511 84.9202V84.9325Z" fill="#1F262B"/>
<path d="M5.95842 83.6421C5.7373 83.2365 5.51618 82.9784 5.04939 82.9047C4.28778 82.7695 4.11581 83.9493 4.86514 84.0845C4.86514 84.0845 4.86515 84.0845 4.85286 84.0845C5.2091 84.7604 6.32694 84.3303 5.95842 83.6421Z" fill="#1F262B"/>
<path d="M11.3757 90.7824C11.8056 90.34 12.2847 89.5043 12.8989 89.3199C13.6359 89.0987 13.1937 87.9804 12.4567 88.2139C11.6214 88.472 11.0317 89.4428 10.4421 90.0327C9.90159 90.5857 10.8352 91.3354 11.3634 90.7824H11.3757Z" fill="#1F262B"/>
<path d="M10.3192 87.4274L10.3807 87.0341C10.5035 86.2721 9.31194 86.0878 9.20138 86.8498L9.13996 87.243C9.01712 88.005 10.2087 88.1893 10.3192 87.4274Z" fill="#1F262B"/>
<path d="M13.6973 85.9157C14.0658 85.6576 14.5695 85.2766 15.0363 85.2766C15.8102 85.2766 15.6628 84.0723 14.9011 84.0846C14.2255 84.0846 13.5253 84.5761 12.9848 84.9571C12.3584 85.3995 13.0585 86.3581 13.6973 85.9157Z" fill="#1F262B"/>
<path d="M6.24092 86.7391C5.93382 86.4933 5.68815 86.3212 5.30735 86.2106C4.57031 86.0017 4.39834 87.1815 5.12309 87.3904C5.24593 87.4273 5.38105 87.587 5.47932 87.6608C6.08124 88.1401 6.83056 87.2183 6.22865 86.7391H6.24092Z" fill="#1F262B"/>
<path d="M1.2045 78.9967C1.60987 78.7141 2.0521 78.542 2.53118 78.4437C2.83828 78.3822 3.29277 78.161 3.47703 77.9152C3.93154 77.3008 3.01025 76.5388 2.54345 77.1656C2.42061 77.3376 1.94153 77.3622 1.69585 77.4237C1.26591 77.5466 0.860547 77.7678 0.492027 78.0258C-0.146742 78.4683 0.565721 79.4268 1.19221 78.9844L1.2045 78.9967Z" fill="#1F262B"/>
<path d="M3.57531 82.1919C3.57531 82.1919 3.59989 82.192 3.62446 82.1674C3.7473 82.1182 3.87013 82.0568 3.99297 81.9953C4.32463 81.811 4.57032 81.5406 4.86514 81.3071C5.46706 80.8278 4.76688 79.8692 4.16496 80.3485C3.83329 80.6066 3.57532 80.877 3.19451 81.0613C2.85056 81.2334 2.45747 81.3563 2.44519 81.8233C2.4329 82.5115 3.37878 82.7204 3.58761 82.1919H3.57531Z" fill="#1F262B"/>
<path d="M4.95113 76.3053C5.19681 76.121 5.45476 75.9489 5.71273 75.7769C5.89699 75.6662 6.08125 75.5802 6.29008 75.4942L6.25323 75.4696C6.25323 75.4696 6.2655 75.4696 6.27778 75.4696C6.65859 75.7523 7.34651 75.5557 7.23595 74.9658C6.92885 73.4173 4.8897 74.8797 4.25093 75.3467C3.62444 75.8014 4.33693 76.76 4.95113 76.3053Z" fill="#1F262B"/>
<path d="M7.05169 79.3163C6.19181 78.5666 5.15996 78.542 4.06669 78.37C3.30508 78.2471 3.12081 79.4392 3.88242 79.5498C4.73001 79.6849 5.62675 79.6604 6.29009 80.238C6.87972 80.7418 7.62905 79.8201 7.03942 79.3163H7.05169Z" fill="#1F262B"/>
<path d="M8.19409 70.9103C8.6486 70.8611 9.09083 70.812 9.55762 70.8734C10.3192 70.9717 10.4544 69.7919 9.69274 69.6813C9.12768 69.6076 8.5749 69.6813 8.02212 69.7305C7.26051 69.8042 7.43248 70.984 8.20637 70.9103H8.19409Z" fill="#1F262B"/>
<path d="M13.5254 71.6599C12.948 71.3649 12.3952 71.0823 11.7565 70.9594C10.9949 70.8119 10.8229 71.9917 11.5722 72.1392C12.1004 72.2375 12.5549 72.4956 13.034 72.7414C13.7219 73.0977 14.201 72.004 13.5254 71.6476V71.6599Z" fill="#1F262B"/>
<path d="M8.77147 74.1547C9.22597 73.4788 9.54536 72.7783 9.69277 71.9795C9.82789 71.2175 8.64862 71.0455 8.51349 71.7951C8.40294 72.385 8.18182 72.9135 7.83787 73.405C7.40793 74.0318 8.32923 74.7937 8.75917 74.1547H8.77147Z" fill="#1F262B"/>
<path d="M14.1887 75.0396C13.4885 74.4005 12.6532 74.1179 11.7319 73.9704C10.9703 73.8475 10.786 75.0273 11.5476 75.1502C12.2724 75.2731 12.8866 75.4574 13.4394 75.9613C14.0044 76.4897 14.7538 75.5557 14.1887 75.0396Z" fill="#1F262B"/>
<path d="M3.04712 74.7937C3.16996 74.0318 3.46477 73.1592 3.23138 72.3973C3.01026 71.6599 1.89241 72.1023 2.11353 72.8397C2.18723 73.0732 2.05212 73.3927 2.01527 73.6262C1.95385 73.958 1.91699 74.2775 1.86785 74.6094C1.74501 75.3713 2.93657 75.5557 3.04712 74.7937Z" fill="#1F262B"/>
<path d="M14.1396 78.2963C13.6359 78.0382 12.9971 77.9031 12.4444 77.8047C11.6828 77.6818 11.4985 78.8616 12.2601 78.9845C12.4935 79.0214 12.7023 79.1566 12.9357 79.1934C13.1937 79.2303 13.4148 79.2672 13.6482 79.3778C14.3361 79.7342 14.8275 78.6404 14.1396 78.284V78.2963Z" fill="#1F262B"/>
<path d="M8.03441 78.2962C8.25552 78.0873 8.42749 77.8415 8.66089 77.6449C8.93114 77.4114 9.28738 77.2762 9.60676 77.1165C10.2824 76.7724 9.85244 75.654 9.16454 76.0104C8.85744 76.1702 8.52577 76.3054 8.24324 76.4897C7.86243 76.7232 7.64132 77.0427 7.33421 77.3377C6.78143 77.8538 7.48163 78.8247 8.03441 78.2962Z" fill="#1F262B"/>
<path d="M6.68317 72.09C6.29008 71.8196 5.79872 71.6107 5.52847 71.2051C5.11081 70.5538 4.15266 71.2666 4.57032 71.9056C4.90199 72.4218 5.44249 72.6798 5.93385 73.0117C6.57261 73.4418 7.32194 72.5201 6.68317 72.09Z" fill="#1F262B"/>
<path d="M16.4121 88.6562C15.7365 88.4105 15.2083 88.0172 14.7783 87.4396C14.3238 86.8251 13.292 87.4273 13.7465 88.0418C14.373 88.8897 15.0977 89.4428 16.0927 89.8115C16.8175 90.0818 17.1246 88.9266 16.4121 88.6562Z" fill="#1F262B"/>
<path d="M83.0037 87.3904C82.5369 87.587 82.0824 88.0049 81.5665 88.0663C80.8172 88.1523 80.8049 89.3567 81.5665 89.2584C81.8736 89.2215 82.1193 89.1478 82.4018 89.0249C82.7212 88.8897 83.0037 88.6685 83.3108 88.5333C84.011 88.2384 83.7039 87.0832 82.9914 87.3781L83.0037 87.3904Z" fill="#1F262B"/>
<path d="M8.74689 90.34C8.52578 90.2294 8.30466 90.1065 8.08355 89.9836C7.97299 89.9222 7.86243 89.8361 7.77645 89.7378C7.73959 89.7132 7.70275 89.6764 7.65362 89.6395C7.61676 89.6149 7.61676 89.6272 7.59219 89.6149C7.39565 88.9759 6.36379 89.2954 6.47434 90.0205C6.53576 90.426 6.79372 90.4629 7.06397 90.7087C7.38335 90.9914 7.76417 91.188 8.14497 91.3723C8.83287 91.7164 9.4348 90.6841 8.74689 90.34Z" fill="#1F262B"/>
<path d="M9.26282 92.9822C8.40294 93.6335 8.25553 94.9485 7.99757 95.9317C7.78874 96.6813 8.94344 96.9886 9.15227 96.2512C9.26282 95.8456 9.36109 95.4278 9.47165 95.01C9.53307 94.7765 9.66819 94.1743 9.87702 94.0145C10.4789 93.5598 9.8893 92.5152 9.2751 92.9822H9.26282Z" fill="#1F262B"/>
<path d="M85.5588 88.3489C85.6816 88.2383 85.8291 88.1523 86.001 88.0908C86.7135 87.8082 86.3573 86.6652 85.6448 86.9479C85.2763 87.0954 84.9815 87.2797 84.6866 87.5501C84.1093 88.0539 85.006 88.8528 85.5711 88.3489H85.5588Z" fill="#1F262B"/>
<path d="M11.7074 96.7551C11.6828 96.669 11.6951 96.5584 11.6828 96.4724C11.6705 96.2758 11.6705 96.0668 11.5968 95.8825C11.3511 95.1574 10.1964 95.4647 10.4421 96.202C10.6386 96.7674 10.3684 97.6153 11.1546 97.812C11.8179 97.984 12.1373 97.1114 11.6951 96.7673L11.7074 96.7551Z" fill="#1F262B"/>
<path d="M13.5254 92.724C12.8252 92.2939 11.9407 92.0727 11.13 92.0481C10.3561 92.0235 10.3684 93.2156 11.13 93.2402C11.7319 93.2648 12.4075 93.4491 12.9234 93.7563C13.5868 94.1619 14.1887 93.1296 13.5254 92.724Z" fill="#1F262B"/>
<path d="M14.1887 94.715C13.7465 95.1206 13.4025 95.4155 13.3165 96.0423C13.2183 96.8042 14.4098 96.7919 14.5081 96.0423C14.5204 95.9071 14.9257 95.6613 15.0363 95.563C15.6014 95.0346 14.7538 94.1989 14.1887 94.715Z" fill="#1F262B"/>
<path d="M75.0314 80.5821C74.6138 80.2749 74.0978 80.2258 73.6556 79.9677C73.2011 79.6973 72.7589 80.3732 73.2011 80.6436C73.631 80.9017 74.1593 80.9631 74.5769 81.2581C75.0069 81.5653 75.4491 80.8894 75.0314 80.5821Z" fill="#1F262B"/>
</g>
<path d="M71.0882 52.095C70.646 51.9475 70.2038 51.7878 69.7861 51.6157C67.833 50.866 65.8061 50.4974 63.8038 50.5342C61.4453 50.5711 59.1236 51.161 56.9985 52.3285C52.7728 54.6389 50.0457 58.3995 44.8619 56.1259C38.2408 53.2133 37.43 46.2575 41.3855 41.2434C41.5083 41.0836 41.6435 40.9239 41.7786 40.7641C42.7982 39.5966 44.0757 38.552 45.6235 37.704C45.5866 38.0604 45.5498 38.3554 45.5498 38.5643C45.5006 39.7564 46.5816 39.3877 47.0484 39.1788C47.4661 38.9944 47.2695 38.5889 47.1099 36.979C47.2695 36.9052 47.4415 36.8438 47.6135 36.7823C48.5594 36.4259 49.8615 36.1433 51.2004 35.9958C52.9447 35.8115 54.726 35.8729 55.8438 36.3276C58.9885 37.5934 61.2979 40.4446 64.7866 40.9853C68.1401 41.5015 71.555 39.953 74.7734 40.7764C78.4464 41.7104 80.9154 45.0777 79.9573 48.9735C78.778 53.8032 74.6506 53.2994 71.076 52.095H71.0882Z" fill="#71BC9C"/>
<path style="mix-blend-mode:hard-light" d="M71.0882 52.095C70.646 51.9475 70.2038 51.7878 69.7861 51.6157C67.833 50.866 65.8061 50.4974 63.8038 50.5342C61.4453 50.5711 59.1236 51.161 56.9985 52.3285C52.7728 54.6389 50.0457 58.3995 44.8619 56.1259C38.2408 53.2133 37.43 46.2575 41.3855 41.2434C41.5083 41.0836 41.6435 40.9239 41.7786 40.7641C42.7982 39.5966 44.0757 38.552 45.6235 37.704C45.5866 38.0604 45.5498 38.3554 45.5498 38.5643C45.5006 39.7564 46.5816 39.3877 47.0484 39.1788C47.4661 38.9944 47.2695 38.5889 47.1099 36.979C47.2695 36.9052 47.4415 36.8438 47.6135 36.7823C48.5594 36.4259 49.8615 36.1433 51.2004 35.9958C52.9447 35.8115 54.726 35.8729 55.8438 36.3276C58.9885 37.5934 61.2979 40.4446 64.7866 40.9853C68.1401 41.5015 71.555 39.953 74.7734 40.7764C78.4464 41.7104 80.9154 45.0777 79.9573 48.9735C78.778 53.8032 74.6506 53.2994 71.076 52.095H71.0882Z" fill="url(#paint4_linear_81707_1740)"/>
<g style="mix-blend-mode:multiply">
<path d="M53.6327 45.5695C57.1582 43.4434 60.8557 43.3082 64.7006 44.6601C66.752 45.3852 68.3243 46.8722 70.2284 47.8308C75.7562 48.6787 77.6479 47.4129 75.9036 44.0333C75.4491 43.1362 74.8472 42.3497 74.0978 41.6737C73.7662 41.3296 73.631 40.9364 73.631 40.5677C73.4345 40.5431 73.2257 40.5431 73.0291 40.5431C73.0046 40.7152 72.98 40.8872 72.9431 41.0593C72.1078 44.9182 67.1082 44.2545 64.504 43.1976C62.0963 42.2145 59.8975 41.6983 57.2933 41.9441C55.3401 42.1285 53.043 42.6815 51.1759 41.7843C49.149 40.8135 48.2768 39.1913 48.3383 37.4462C47.3187 39.3879 46.5939 41.5631 46.1885 43.5786C45.9429 44.7953 45.169 47.9045 46.4097 48.9122C48.7559 50.8171 51.6918 46.7247 53.6204 45.5695H53.6327Z" fill="#D8F2EF"/>
</g>
<g style="mix-blend-mode:multiply">
<path d="M59.1113 38.7488C59.4184 38.7488 59.7133 38.7857 60.0204 38.8103C58.6814 37.9009 57.367 36.9423 55.8561 36.3278C54.9225 35.9591 53.5344 35.8608 52.0972 35.9346C49.7018 39.8918 57.4039 38.6874 59.1113 38.7488Z" fill="#D8F2EF"/>
</g>
<g style="mix-blend-mode:multiply">
<path d="M79.036 43.6646C80.289 47.1425 80.0802 51.0997 75.5228 51.8739C70.8549 52.6727 68.7297 50.2271 64.7374 48.3346C60.3275 46.2453 57.0968 47.0442 53.3993 49.9813C52.478 50.7064 51.569 51.5421 50.4634 51.9845C43.5721 54.7374 42.2945 49.7724 43.179 44.0701C42.012 47.929 41.7786 52.0091 45.1444 53.8402C50.7582 56.888 54.9962 48.6418 60.4872 48.6172C62.9808 48.6172 64.9462 49.4283 66.5677 50.7433C67.6487 50.9276 68.7297 51.2103 69.7984 51.6158C70.2161 51.7756 70.6583 51.9354 71.1005 52.0951C74.6752 53.2995 78.8026 53.7911 79.9819 48.9736C80.4733 46.9827 80.0556 45.127 79.0483 43.6646H79.036Z" fill="#D8F2EF"/>
</g>
<path d="M81.0015 49.035C80.6698 49.0104 80.3258 48.9981 79.9696 48.9612C80.9278 45.0655 78.4464 41.6982 74.7857 40.7642C71.5673 39.9408 68.1524 41.4893 64.7988 40.9731C61.3102 40.4324 59.0008 37.5935 55.8561 36.3154C54.7382 35.8607 52.9448 35.7992 51.2127 35.9836C51.0653 28.1798 49.063 25.8325 45.0216 26.9754C41.0784 28.106 41.5575 33.1324 41.7909 40.7396C26.4482 30.1707 29.556 22.1702 32.1848 18.9504C36.6439 13.5061 45.2918 18.3236 48.068 19.1839C53.8292 20.9781 58.7551 15.2881 63.8038 13.5061C68.8403 11.7242 73.9873 13.8502 74.7857 21.7278C75.8176 31.8666 82.279 28.9171 89.1703 32.7637C91.7622 34.2139 93.4452 38.0851 92.917 41.6982C92.315 45.7045 88.9615 49.3914 81.0138 49.0227L81.0015 49.035Z" fill="#62A58A"/>
<path style="mix-blend-mode:hard-light" d="M81.0015 49.035C80.6698 49.0104 80.3258 48.9981 79.9696 48.9612C80.9278 45.0655 78.4464 41.6982 74.7857 40.7642C71.5673 39.9408 68.1524 41.4893 64.7988 40.9731C61.3102 40.4324 59.0008 37.5935 55.8561 36.3154C54.7382 35.8607 52.9448 35.7992 51.2127 35.9836C51.0653 28.1798 49.063 25.8325 45.0216 26.9754C41.0784 28.106 41.5575 33.1324 41.7909 40.7396C26.4482 30.1707 29.556 22.1702 32.1848 18.9504C36.6439 13.5061 45.2918 18.3236 48.068 19.1839C53.8292 20.9781 58.7551 15.2881 63.8038 13.5061C68.8403 11.7242 73.9873 13.8502 74.7857 21.7278C75.8176 31.8666 82.279 28.9171 89.1703 32.7637C91.7622 34.2139 93.4452 38.0851 92.917 41.6982C92.315 45.7045 88.9615 49.3914 81.0138 49.0227L81.0015 49.035Z" fill="url(#paint5_linear_81707_1740)"/>
<g style="mix-blend-mode:multiply">
<path d="M32.1725 18.9627C30.6001 20.8799 28.8804 24.5053 30.9932 29.3596C31.1284 23.8171 33.2412 18.5203 37.7003 16.4188C35.6366 16.468 33.6711 17.1316 32.1725 18.9627Z" fill="#D8F2EF"/>
</g>
<g style="mix-blend-mode:multiply">
<path d="M39.3586 20.3391C39.4569 20.2531 39.5552 20.1916 39.6535 20.1056C34.531 22.3177 34.0765 30.4165 36.1279 36.2294C36.1648 36.2662 36.1894 36.2908 36.2262 36.3277C34.4696 30.8835 35.2926 24.1488 39.3586 20.3514V20.3391Z" fill="#D8F2EF"/>
</g>
<g style="mix-blend-mode:multiply">
<path d="M76.7635 40.4324C74.0364 40.6536 72.0341 40.2358 70.0073 38.3555C67.8084 36.3154 67.2188 35.7501 63.9881 36.6595C62.4894 37.0774 62.1086 37.1265 60.5486 37.1634C58.4726 37.2003 56.4948 35.7624 55.1559 34.3368C52.0726 31.0187 50.8074 16.3328 43.0193 21.9982C38.0197 25.6359 37.7494 34.558 41.7172 39.0068C41.4961 32.3951 41.3732 28.0446 45.0093 27.0123C49.0385 25.8571 51.0407 28.2167 51.2004 36.0205C52.9448 35.8361 54.726 35.8976 55.8438 36.3523C58.9885 37.6181 61.2979 40.4693 64.7866 41.01C68.1401 41.5262 71.555 39.9777 74.7734 40.8011C78.4464 41.7351 80.9155 45.1024 79.9573 48.9982C80.3135 49.0227 80.6575 49.0473 80.9892 49.0719C81.284 49.0842 81.5665 49.0719 81.849 49.0842C83.7654 45.3236 84.6007 39.8179 76.7512 40.4693L76.7635 40.4324Z" fill="#D8F2EF"/>
</g>
<g style="mix-blend-mode:multiply">
<path d="M65.1673 17.9672C66.4449 18.5326 67.7961 18.1762 69.1228 18.2253C71.0637 18.2991 72.8203 18.6923 74.3804 19.4051C72.9063 13.5799 68.484 11.9946 64.0863 13.4324C63.681 15.0546 63.595 17.2667 65.1796 17.9549L65.1673 17.9672Z" fill="#D8F2EF"/>
</g>
<g style="mix-blend-mode:multiply">
<path d="M89.158 32.7761C83.3477 29.5316 77.8445 31.1293 75.6456 25.6236C74.4541 23.7064 72.722 22.3054 70.2284 22.2071C68.5332 22.1334 66.6905 22.4529 65.0199 22.0351C62.1455 21.31 60.3029 18.9873 59.9835 16.0255C59.9712 15.8412 59.9712 15.6568 59.9589 15.4602C59.0253 16.0255 58.0672 16.6154 57.1213 17.1807C57.6987 17.7829 58.19 18.5203 58.5831 19.4174C59.529 21.6049 60.5977 25.894 64.2338 25.0214C65.6219 24.6896 67.2679 24.1366 68.7297 24.1734C71.4322 24.2472 73.2502 25.0214 74.9454 27.1721C75.7562 28.1921 76.2352 29.3965 76.9354 30.4779C78.9377 33.6117 82.0579 32.985 85.2271 33.0587C89.6371 33.157 91.8851 38.3186 92.6835 42.7797C92.7818 42.4233 92.8678 42.0669 92.9169 41.7105C93.4574 38.0974 91.7622 34.2262 89.1703 32.7761H89.158Z" fill="#D8F2EF"/>
</g>
<g style="mix-blend-mode:multiply">
<path d="M83.5934 36.1433C79.5028 36.5981 76.3458 35.8115 74.2329 32.0509C71.899 27.8971 69.823 27.0983 65.0568 28.02C63.4967 28.3272 62.2315 28.4256 60.6591 28.1675C56.2737 27.4301 57.4899 20.4251 54.0258 18.7415C53.0553 19.1347 52.0726 19.4174 51.0653 19.5034C53.1536 21.0027 54.8242 23.3131 55.635 26.0783C56.6423 29.4947 57.7969 35.111 63.0299 33.1447C65.3147 32.2844 67.0591 31.7806 69.3931 32.604C73.6065 34.1033 70.2652 37.7041 77.869 36.6349C80.3627 36.2908 81.9842 36.9053 83.9742 38.3432C87.0206 40.543 87.4137 45.1638 86.2467 48.5803C87.7085 48.1993 88.8878 47.6094 89.8459 46.8966C90.0425 42.8534 88.6667 35.5903 83.6056 36.1556L83.5934 36.1433Z" fill="#D8F2EF"/>
</g>
<path d="M47.1221 36.9791C47.2818 38.589 47.4661 38.9946 47.0607 39.1789C46.5939 39.3878 45.5129 39.7442 45.5621 38.5644C45.5621 38.3555 45.5989 38.0483 45.6358 37.7042C45.82 36.0697 46.2745 33.2923 46.336 33.071C46.5939 32.2108 46.901 34.0051 47.0607 36.2417C47.0853 36.5121 47.0976 36.7579 47.1221 36.9914V36.9791Z" fill="#BC6B5B"/>
<path d="M51.2127 35.996C49.8737 36.1434 48.5594 36.4261 47.6258 36.7825C47.4538 36.8562 47.2818 36.9177 47.1221 36.9791C47.0976 36.7579 47.073 36.5121 47.0607 36.2295C46.901 33.9928 46.5939 32.2108 46.3359 33.0588C46.2745 33.2677 45.82 36.0451 45.6358 37.6919C44.1003 38.5276 42.8104 39.5722 41.7909 40.752C41.5575 33.1448 41.0784 28.1184 45.0216 26.9878C49.0507 25.8326 51.053 28.1922 51.2127 35.996Z" fill="#F7AB97"/>
<path style="mix-blend-mode:hard-light" d="M51.2127 35.996C49.8737 36.1434 48.5594 36.4261 47.6258 36.7825C47.4538 36.8562 47.2818 36.9177 47.1221 36.9791C47.0976 36.7579 47.073 36.5121 47.0607 36.2295C46.901 33.9928 46.5939 32.2108 46.3359 33.0588C46.2745 33.2677 45.82 36.0451 45.6358 37.6919C44.1003 38.5276 42.8104 39.5722 41.7909 40.752C41.5575 33.1448 41.0784 28.1184 45.0216 26.9878C49.0507 25.8326 51.053 28.1922 51.2127 35.996Z" fill="url(#paint6_linear_81707_1740)"/>
<path d="M90.2022 189.037C90.2022 189.037 95.7914 190.511 95.6317 191.261C95.4843 192.011 88.2367 191.261 88.2367 191.261C82.0456 185.682 75.8667 172.999 75.8667 172.999C78.7412 172.839 81.3945 172.618 83.7162 172.311C85.0797 179.328 90.2022 189.037 90.2022 189.037Z" fill="#F7AB97"/>
<path style="mix-blend-mode:hard-light" d="M90.2022 189.037C90.2022 189.037 95.7914 190.511 95.6317 191.261C95.4843 192.011 88.2367 191.261 88.2367 191.261C82.0456 185.682 75.8667 172.999 75.8667 172.999C78.7412 172.839 81.3945 172.618 83.7162 172.311C85.0797 179.328 90.2022 189.037 90.2022 189.037Z" fill="url(#paint7_linear_81707_1740)"/>
<path d="M36.0296 172.47C35.5751 179.193 36.0296 188.705 36.0296 188.705C36.0296 188.705 29.384 189.467 28.6592 188.705C27.9222 187.955 33.7571 187.341 33.7571 187.341C31.0423 180.397 30.1456 172.126 29.9736 172.114C31.1283 172.188 33.2412 172.323 36.0296 172.47Z" fill="#F7AB97"/>
<path style="mix-blend-mode:hard-light" d="M36.0296 172.47C35.5751 179.193 36.0296 188.705 36.0296 188.705C36.0296 188.705 29.384 189.467 28.6592 188.705C27.9222 187.955 33.7571 187.341 33.7571 187.341C31.0423 180.397 30.1456 172.126 29.9736 172.114C31.1283 172.188 33.2412 172.323 36.0296 172.47Z" fill="url(#paint8_linear_81707_1740)"/>
<path d="M49.0999 81.7988L51.2127 80.9509C52.8096 78.8371 50.5125 79.6482 49.0999 81.7988Z" fill="#F7AB97"/>
<path style="mix-blend-mode:hard-light" d="M49.0999 81.7988L51.2127 80.9509C52.8096 78.8371 50.5125 79.6482 49.0999 81.7988Z" fill="url(#paint9_linear_81707_1740)"/>
<path d="M51.2127 80.9507C54.3328 80.0782 56.2491 81.2579 56.2491 81.2579C41.6066 93.6826 21.5345 94.6412 19.7288 93.2893C18.3161 92.2324 14.9135 80.8524 14.1641 69.4355C13.9553 66.1788 13.9553 62.9098 14.2993 59.8866C14.9135 54.3194 17.358 50.5834 21.0923 47.9166C30.1579 49.76 35.1452 55.9908 35.1452 55.9908C35.7594 64.446 32.2708 81.2579 32.2708 81.2579C32.7867 81.2457 33.3149 81.2334 33.8308 81.2334C40.9064 81.1965 48.068 82.4254 48.068 82.4254C48.4242 82.1919 48.7805 81.9953 49.1244 81.811C49.8737 81.4177 50.5862 81.1473 51.2373 80.963L51.2127 80.9507Z" fill="#F7AB97"/>
<path style="mix-blend-mode:hard-light" d="M51.2127 80.9507C54.3328 80.0782 56.2491 81.2579 56.2491 81.2579C41.6066 93.6826 21.5345 94.6412 19.7288 93.2893C18.3161 92.2324 14.9135 80.8524 14.1641 69.4355C13.9553 66.1788 13.9553 62.9098 14.2993 59.8866C14.9135 54.3194 17.358 50.5834 21.0923 47.9166C30.1579 49.76 35.1452 55.9908 35.1452 55.9908C35.7594 64.446 32.2708 81.2579 32.2708 81.2579C32.7867 81.2457 33.3149 81.2334 33.8308 81.2334C40.9064 81.1965 48.068 82.4254 48.068 82.4254C48.4242 82.1919 48.7805 81.9953 49.1244 81.811C49.8737 81.4177 50.5862 81.1473 51.2373 80.963L51.2127 80.9507Z" fill="url(#paint10_linear_81707_1740)"/>
<path d="M93.0029 47.0809C93.0029 47.0809 90.3864 53.2502 89.158 58.8173C85.35 53.2871 81.198 49.2193 81.0014 49.0349C80.6697 49.0103 80.3258 48.9981 79.9696 48.9612C78.7903 53.7909 74.6629 53.2871 71.0882 52.0827C71.0636 52.3408 70.4986 60.1323 65.8921 70.394C65.8921 70.394 77.3654 77.5096 86.3081 81.8109C90.5092 83.8387 94.1576 85.252 95.7791 85.0062C97.1303 84.8096 103.85 72.1391 95.1526 49.4036C94.3419 48.4819 93.5679 47.5356 92.8186 46.5402C92.8923 46.6999 92.9538 46.8843 93.0029 47.0686V47.0809Z" fill="#F7AB97"/>
<path style="mix-blend-mode:hard-light" d="M92.8184 46.5525C92.8184 46.5525 92.8185 46.5887 92.8305 46.6008V46.5887C92.8305 46.5887 92.8185 46.5646 92.8064 46.5525H92.8184Z" fill="url(#paint11_linear_81707_1740)"/>
<path style="mix-blend-mode:hard-light" d="M95.1649 49.4159C94.3664 48.5065 93.5925 47.5602 92.8555 46.5894C92.8555 46.5894 92.8555 46.5894 92.8555 46.6016C92.9169 46.7491 92.9783 46.9089 93.0152 47.0809C93.0152 47.0809 90.3987 53.2502 89.1703 58.8174C88.9983 58.5593 83.7285 72.0163 90.2636 83.5806C92.7204 84.5884 94.7104 85.166 95.8037 85.0062C97.1549 84.8096 103.874 72.1392 95.1772 49.4036L95.1649 49.4159Z" fill="url(#paint12_linear_81707_1740)"/>
<path style="mix-blend-mode:hard-light" d="M88.6298 58.0801C84.9691 52.9431 81.1857 49.2194 81.0014 49.035C80.6697 49.0105 80.3258 48.9982 79.9696 48.9613C78.7903 53.7911 74.6629 53.2872 71.0882 52.0828C71.0636 52.3409 70.4986 60.1324 65.8921 70.3941C65.8921 70.3941 77.3654 77.5097 86.3081 81.811C87.7085 82.487 89.0229 83.0769 90.2513 83.5807C86.9714 75.4451 86.6889 66.4615 88.6298 58.0678V58.0801Z" fill="url(#paint13_linear_81707_1740)"/>
<path d="M56.9985 52.3163C59.1236 51.1488 61.4453 50.5589 63.8038 50.5221C63.8038 50.5221 51.7532 67.0146 33.8063 81.2089C33.2903 81.2089 32.7621 81.2212 32.2462 81.2335C32.2462 81.2335 35.7472 64.4215 35.1207 55.9663C35.1207 55.9663 30.1334 49.7356 21.0678 47.8921C25.9814 44.3774 33.1429 42.7306 41.3732 41.2067C37.4178 46.2208 38.2285 53.1889 44.8496 56.0892C50.0335 58.3628 52.7605 54.6145 56.9862 52.2918L56.9985 52.3163Z" fill="#F7AB97"/>
<path style="mix-blend-mode:hard-light" d="M56.9985 52.3163C59.1236 51.1488 61.4453 50.5589 63.8038 50.5221C63.8038 50.5221 51.7532 67.0146 33.8063 81.2089C33.2903 81.2089 32.7621 81.2212 32.2462 81.2335C32.2462 81.2335 35.7472 64.4215 35.1207 55.9663C35.1207 55.9663 30.1334 49.7356 21.0678 47.8921C25.9814 44.3774 33.1429 42.7306 41.3732 41.2067C37.4178 46.2208 38.2285 53.1889 44.8496 56.0892C50.0335 58.3628 52.7605 54.6145 56.9862 52.2918L56.9985 52.3163Z" fill="url(#paint14_linear_81707_1740)"/>
<g style="mix-blend-mode:multiply">
<path d="M44.8742 56.1137C38.2531 53.2011 37.4424 46.2453 41.3978 41.2312C40.673 41.3664 39.9483 41.5016 39.2358 41.649C38.4251 43.8366 37.8723 46.1101 37.7249 48.482C37.5529 51.2963 38.118 57.269 40.7959 59.8129C43.5352 60.5257 46.7413 59.8989 49.5421 59.0018C49.7141 58.9403 49.9106 59.1247 49.8492 59.309C48.5471 63.3399 46.0657 66.8547 43.3018 70.0254C40.2431 73.5402 37.0738 77.141 33.622 80.2871C33.2781 80.6067 32.9095 80.9262 32.5533 81.2703C32.971 81.2703 33.4009 81.2457 33.8186 81.2457C51.7532 67.0514 63.8161 50.5589 63.8161 50.5589C61.4576 50.5958 59.1359 51.1857 57.0108 52.3532C52.7851 54.6636 50.058 58.4242 44.8742 56.1506V56.1137Z" fill="#FCD5CA"/>
</g>
<path d="M44.8742 33.9066C44.8742 34.4842 44.4074 34.9635 43.8177 34.9635C43.2281 34.9635 42.7613 34.4965 42.7613 33.9066C42.7613 33.3167 43.2281 32.8497 43.8177 32.8497C44.4074 32.8497 44.8742 33.3167 44.8742 33.9066Z" fill="#F5F5F5"/>
<path d="M50.1563 33.7346C50.1563 34.3122 49.6895 34.7915 49.0999 34.7915C48.5102 34.7915 48.0434 34.3245 48.0434 33.7346C48.0434 33.1447 48.5102 32.6777 49.0999 32.6777C49.6895 32.6777 50.1563 33.1447 50.1563 33.7346Z" fill="#F5F5F5"/>
<path d="M76.2721 82.831C76.2721 83.3963 75.8053 83.8633 75.2402 83.8633C74.6752 83.8633 74.2084 83.3963 74.2084 82.831C74.2084 82.2657 74.6752 81.7987 75.2402 81.7987C75.8053 81.7987 76.2721 82.2657 76.2721 82.831Z" fill="#FFCF03"/>
<path d="M99.71 191.568C99.7223 192.06 99.3292 192.49 98.8378 192.502H98.8132C98.3219 192.502 97.9288 192.109 97.9042 191.63L92.2167 34.5456L94.0348 34.4841L99.7222 191.568H99.71Z" fill="#825A3C"/>
<path d="M94.3787 25.6973L95.2017 34.4474L94.0225 34.4842L92.2167 34.5457L91.2094 34.5825L91.6025 25.8079L93.4206 25.7096L94.3787 25.6604V25.6973Z" fill="#147EB2"/>
<path d="M92.7327 8.406L93.3346 23.6449L93.4206 25.6604H92.3273L92.2659 23.6449L91.8359 8.33226L90.8901 7.87755L92.0079 0L93.6908 7.60718L92.7327 8.406Z" fill="#0E5E8E"/>
<path d="M100.742 21.5679C101.307 23.1409 98.973 25.4882 94.3787 25.6971V25.6726L93.4206 25.7217V25.6726L93.3346 23.6571H93.3837C97.3515 24.1855 99.2801 22.6494 99.2801 21.7276C99.2801 20.8059 96.6144 12.8547 98.5553 9.15553L97.8428 8.92202C97.8428 8.92202 99.7346 5.94797 100.484 4.35034C100.484 4.35034 100.152 7.81597 100.3 9.91747L99.3169 9.45047C99.3169 9.45047 97.6217 12.8424 100.754 21.5802L100.742 21.5679Z" fill="#0E5E8E"/>
<path d="M92.3273 25.6603H93.4206V25.7095L91.6148 25.8078C86.7504 25.7341 84.4287 23.2147 84.92 21.5679C87.1803 13.9976 85.5342 9.77005 85.5342 9.77005L84.5392 10.237C84.6989 8.12326 84.355 4.66992 84.355 4.66992C85.1043 6.25526 86.996 9.22931 86.996 9.22931L86.2836 9.4751C88.2122 13.1619 86.3818 20.7814 86.3818 21.7154C86.3818 22.6494 88.3104 24.1733 92.2659 23.6449L92.3273 25.6603Z" fill="#0E5E8E"/>
<path d="M97.2901 44.2912C97.2901 43.308 96.1845 42.8656 94.5753 41.2188C93.8751 40.506 93.4083 40.715 93.2732 41.7596C93.1872 42.3372 93.224 43.1974 93.3714 44.2912C91.8359 44.9917 92.4256 45.5939 92.8187 46.5525C93.568 47.5356 94.3542 48.4942 95.1526 49.4159C95.1035 49.293 95.0666 49.1824 95.0175 49.0595C95.0175 49.0595 97.2778 46.9457 97.2778 44.2912H97.2901Z" fill="#F7AB97"/>
<path style="mix-blend-mode:hard-light" d="M97.2901 44.2912C97.2901 43.308 96.1845 42.8656 94.5753 41.2188C93.8751 40.506 93.4083 40.715 93.2732 41.7596C93.1872 42.3372 93.224 43.1974 93.3714 44.2912C91.8359 44.9917 92.4256 45.5939 92.8187 46.5525C93.568 47.5356 94.3542 48.4942 95.1526 49.4159C95.1035 49.293 95.0666 49.1824 95.0175 49.0595C95.0175 49.0595 97.2778 46.9457 97.2778 44.2912H97.2901Z" fill="url(#paint15_linear_81707_1740)"/>
<defs>
<linearGradient id="paint0_linear_81707_1740" x1="56.6791" y1="179.193" x2="53.8881" y2="98.9304" gradientUnits="userSpaceOnUse">
<stop offset="0.01" stop-color="#4BA0B3"/>
<stop offset="0.99" stop-color="#808080"/>
</linearGradient>
<linearGradient id="paint1_linear_81707_1740" x1="51.7286" y1="85.6945" x2="52.5278" y2="64.7902" gradientUnits="userSpaceOnUse">
<stop offset="0.01" stop-color="#4BA0B3"/>
<stop offset="0.99" stop-color="#808080"/>
</linearGradient>
<linearGradient id="paint2_linear_81707_1740" x1="71.7147" y1="106.906" x2="56.5711" y2="82.6158" gradientUnits="userSpaceOnUse">
<stop offset="0.01" stop-color="#4BA0B3"/>
<stop offset="0.99" stop-color="#808080"/>
</linearGradient>
<linearGradient id="paint3_linear_81707_1740" x1="-11.0918" y1="114.968" x2="22.3586" y2="84.9105" gradientUnits="userSpaceOnUse">
<stop offset="0.01" stop-color="#4BA0B3"/>
<stop offset="0.99" stop-color="#808080"/>
</linearGradient>
<linearGradient id="paint4_linear_81707_1740" x1="60.5854" y1="32.1861" x2="59.3928" y2="50.5096" gradientUnits="userSpaceOnUse">
<stop offset="0.01" stop-color="#4BB3AC"/>
<stop offset="0.99" stop-color="#808080"/>
</linearGradient>
<linearGradient id="paint5_linear_81707_1740" x1="45.2181" y1="47.6586" x2="68.7149" y2="25.7568" gradientUnits="userSpaceOnUse">
<stop offset="0.01" stop-color="#4BABB3"/>
<stop offset="0.99" stop-color="#808080"/>
</linearGradient>
<linearGradient id="paint6_linear_81707_1740" x1="44.3951" y1="24.6528" x2="45.9811" y2="34.2138" gradientUnits="userSpaceOnUse">
<stop offset="0.01" stop-color="#D9554C"/>
<stop offset="0.99" stop-color="#808080"/>
</linearGradient>
<linearGradient id="paint7_linear_81707_1740" x1="90.8901" y1="192.76" x2="80.5272" y2="171.257" gradientUnits="userSpaceOnUse">
<stop offset="0.01" stop-color="#D9554C"/>
<stop offset="0.99" stop-color="#808080"/>
</linearGradient>
<linearGradient id="paint8_linear_81707_1740" x1="32.2216" y1="193.264" x2="32.6273" y2="171.155" gradientUnits="userSpaceOnUse">
<stop offset="0.01" stop-color="#D9554C"/>
<stop offset="0.99" stop-color="#808080"/>
</linearGradient>
<linearGradient id="paint9_linear_81707_1740" x1="49.7018" y1="81.9955" x2="52.2338" y2="78.494" gradientUnits="userSpaceOnUse">
<stop offset="0.01" stop-color="#D9554C"/>
<stop offset="0.99" stop-color="#808080"/>
</linearGradient>
<linearGradient id="paint10_linear_81707_1740" x1="48.9893" y1="90.217" x2="20.9116" y2="69.5088" gradientUnits="userSpaceOnUse">
<stop offset="0.01" stop-color="#D9554C"/>
<stop offset="0.99" stop-color="#808080"/>
</linearGradient>
<linearGradient id="paint11_linear_81707_1740" x1="92.8185" y1="46.5767" x2="92.8547" y2="46.5767" gradientUnits="userSpaceOnUse">
<stop offset="0.01" stop-color="#D9554C"/>
<stop offset="0.99" stop-color="#808080"/>
</linearGradient>
<linearGradient id="paint12_linear_81707_1740" x1="87.5611" y1="49.0718" x2="94.1261" y2="72.1745" gradientUnits="userSpaceOnUse">
<stop offset="0.01" stop-color="#D9554C"/>
<stop offset="0.99" stop-color="#808080"/>
</linearGradient>
<linearGradient id="paint13_linear_81707_1740" x1="65.8921" y1="66.2772" x2="90.2513" y2="66.2772" gradientUnits="userSpaceOnUse">
<stop offset="0.01" stop-color="#D9554C"/>
<stop offset="0.99" stop-color="#808080"/>
</linearGradient>
<linearGradient id="paint14_linear_81707_1740" x1="58.8902" y1="42.325" x2="34.3887" y2="59.6429" gradientUnits="userSpaceOnUse">
<stop offset="0.01" stop-color="#D9554C"/>
<stop offset="0.99" stop-color="#808080"/>
</linearGradient>
<linearGradient id="paint15_linear_81707_1740" x1="98.1622" y1="47.6708" x2="90.6913" y2="42.2911" gradientUnits="userSpaceOnUse">
<stop offset="0.01" stop-color="#D9554C"/>
<stop offset="0.99" stop-color="#808080"/>
</linearGradient>
</defs>
</svg>
