<svg width="550" height="550" viewBox="0 0 550 550" fill="none" xmlns="http://www.w3.org/2000/svg">
<g clip-path="url(#clip0_81702_746)">
<path d="M275.163 0C126.388 0 5.34076 120.902 5.34076 269.5C5.34076 418.097 126.388 538.999 275.163 538.999C423.939 538.999 544.986 418.097 544.986 269.5C544.986 120.902 423.953 0 275.163 0ZM275.163 510.165C142.092 510.165 34.2096 402.411 34.2096 269.5C34.2096 136.588 142.092 28.8343 275.163 28.8343C408.234 28.8343 516.117 136.588 516.117 269.5C516.117 402.411 408.234 510.165 275.163 510.165Z" fill="#FFCB47"/>
<path d="M291.233 1.44171L292.344 27.5944L266.304 25.9941L268.094 7.85734L285.776 7.35274L285.877 21.4239L273.796 20.9625L274.417 13.4224L277.91 13.7107L277.592 17.6177L282.355 17.7907L282.312 10.957L271.284 11.2598L270.144 22.7214L288.678 23.8604L287.884 5.01716L266.362 5.46409L266.29 1.97515L291.233 1.44171Z" fill="#E88F09"/>
<path d="M323.797 5.53618L322.007 31.6312L296.314 27.1619L300.095 9.34231L317.734 10.7984L316.262 24.7975L304.296 22.9953L305.768 15.5705L309.203 16.2337L308.438 20.0831L313.158 20.7895L313.88 13.9846L302.881 13.0763L300.485 24.3361L318.773 27.5223L320.073 8.70795L298.637 6.77606L298.955 3.28711L323.797 5.53618Z" fill="#E88F09"/>
<path d="M357.14 14.8353L349.461 39.8634L325.457 29.6849L333.193 13.1773L350.024 18.5981L345.419 31.8907L334.189 27.4358L337.293 20.53L340.483 21.9717L338.881 25.5328L343.312 27.2917L345.549 20.8328L335.055 17.4592L330.162 27.8828L347.253 35.1202L352.781 17.0843L332.356 10.3515L333.453 7.03558L357.14 14.8353Z" fill="#E88F09"/>
<path d="M386.658 25.403L378.994 50.4312L354.975 40.2527L362.726 23.745L379.557 29.1659L374.952 42.4585L363.708 38.0036L366.826 31.0978L370.016 32.5251L368.413 36.1005L372.845 37.8594L375.082 31.3861L364.588 28.0125L359.695 38.4505L376.785 45.6879L382.314 27.6521L361.889 20.9193L362.986 17.6033L386.658 25.403Z" fill="#E88F09"/>
<path d="M416.682 42.0836L403.648 64.7906L382.487 49.5661L393.688 35.1778L408.916 44.1741L401.483 56.1259L391.509 49.2922L396.07 43.2514L398.87 45.3563L396.503 48.4849L400.443 51.1664L404.052 45.3563L394.554 39.7481L387.481 48.8453L402.551 59.687L411.933 43.3091L393.5 32.2367L395.305 29.238L416.682 42.0836Z" fill="#E88F09"/>
<path d="M443.14 58.894L430.121 81.601L408.96 66.3765L420.146 52.0026L435.375 60.9989L427.941 72.9363L417.967 66.117L422.528 60.0618L425.328 62.1667L422.961 65.2952L426.902 67.9912L430.51 62.1811L421.027 56.5728L413.94 65.6556L429.009 76.4973L438.391 60.1339L419.959 49.0471L421.763 46.0627L443.14 58.894Z" fill="#E88F09"/>
<path d="M467.867 82.7688L450.213 102.117L432.863 82.6679L446.922 71.0621L459.827 83.1437L449.982 93.1924L441.726 84.3691L447.485 79.4529L449.766 82.1056L446.778 84.6575L450.04 88.132L454.832 83.2446L446.778 75.7188L437.901 83.0572L450.242 96.8976L462.959 82.9562L447.37 68.1354L449.78 65.6124L467.867 82.7688Z" fill="#E88F09"/>
<path d="M490.038 104.928L472.399 124.276L455.049 104.827L469.093 93.2068L482.012 105.288L472.154 115.352L463.897 106.514L469.671 101.598L471.937 104.265L468.964 106.802L472.211 110.291L477.003 105.404L468.949 97.8636L460.072 105.202L472.428 119.057L485.144 105.101L469.555 90.2946L471.966 87.7571L490.038 104.928Z" fill="#E88F09"/>
<path d="M507.835 134.512L486.415 149.578L473.698 126.828L489.951 118.538L499.925 133.128L488.118 140.812L481.983 130.403L488.681 126.856L490.326 129.942L486.848 131.773L489.273 135.882L495.018 132.147L488.796 123.05L478.534 128.284L487.584 144.474L503.029 133.618L491.019 115.784L493.935 113.838L507.835 134.512Z" fill="#E88F09"/>
<path d="M524.247 162.971L501.282 175.558L491.178 151.539L508.24 145.108L516.539 160.722L503.953 167.037L499.002 156.022L506.06 153.24L507.345 156.484L503.693 157.925L505.641 162.265L511.762 159.194L506.594 149.462L495.812 153.528L503 170.627L519.556 161.558L509.625 142.499L512.729 140.884L524.247 162.971Z" fill="#E88F09"/>
<path d="M534.221 194.415L509.986 204.377L502.625 179.392L520.292 174.894L526.802 191.315L513.595 196.203L509.899 184.698L517.218 182.723L518.142 186.096L514.345 187.12L515.803 191.661L522.226 189.283L518.17 179.032L506.998 181.887L512.252 199.663L529.718 192.483L521.952 172.443L525.214 171.189L534.221 194.415Z" fill="#E88F09"/>
<path d="M541.583 227.949L515.717 232.159L514.215 206.151L532.461 205.776L535.059 223.249L521.086 225.023L520.105 212.984L527.683 212.71L527.813 216.199L523.886 216.344L524.276 221.087L531.075 220.236L529.458 209.337L517.925 209.582L518.993 228.094L537.628 225.052L534.626 203.772L538.09 203.282L541.583 227.949Z" fill="#E88F09"/>
<path d="M545.177 259.076L519.325 263.286L517.824 237.277L536.055 236.902L538.667 254.376L524.68 256.135L523.699 244.097L531.277 243.823L531.407 247.326L527.495 247.456L527.885 252.213L534.669 251.348L533.052 240.463L521.519 240.694L522.587 259.206L541.237 256.178L538.234 234.898L541.699 234.408L545.177 259.076Z" fill="#E88F09"/>
<path d="M543.835 293.418L517.694 291.63L522.169 265.967L540.01 269.745L538.552 287.348L524.55 285.892L526.34 273.94L533.788 275.411L533.11 278.842L529.256 278.078L528.549 282.792L535.362 283.499L536.271 272.527L524.998 270.134L521.808 288.4L540.659 289.698L542.579 268.289L546.072 268.606L543.835 293.418Z" fill="#E88F09"/>
<path d="M540.241 324.53L514.1 322.742L518.575 297.08L536.416 300.871L534.958 318.475L520.956 317.004L522.746 305.067L530.18 306.523L529.516 309.954L525.662 309.204L524.955 313.919L531.768 314.625L532.677 303.654L521.404 301.261L518.214 319.527L537.051 320.81L538.985 299.415L542.478 299.718L540.241 324.53Z" fill="#E88F09"/>
<path d="M530.267 357.459L505.208 349.803L515.399 325.813L531.926 333.541L526.499 350.365L513.191 345.766L517.651 334.535L524.565 337.649L523.136 340.836L519.556 339.221L517.795 343.661L524.276 345.896L527.654 335.4L517.203 330.527L509.957 347.583L528.015 353.119L534.756 332.704L538.075 333.8L530.267 357.459Z" fill="#E88F09"/>
<path d="M519.686 386.956L494.642 379.286L504.833 355.31L521.346 363.038L515.933 379.863L502.625 375.264L507.085 364.033L513.999 367.132L512.555 370.333L508.976 368.718L507.229 373.144L513.696 375.393L517.073 364.898L506.637 360.01L499.377 377.08L517.434 382.616L524.19 362.202L527.51 363.298L519.686 386.956Z" fill="#E88F09"/>
<path d="M501.556 416.223L478.822 403.219L494.065 382.083L508.471 393.271L499.463 408.466L487.497 401.042L494.325 391.079L500.387 395.635L498.28 398.432L495.148 396.082L492.448 400.004L498.265 403.622L503.88 394.136L494.787 387.071L483.932 402.108L500.315 411.494L511.415 393.083L514.417 394.885L501.556 416.223Z" fill="#E88F09"/>
<path d="M484.711 442.649L461.977 429.645L477.22 408.51L491.626 419.697L482.618 434.907L470.652 427.483L477.48 417.52L483.542 422.076L481.435 424.859L478.303 422.509L475.603 426.445L481.42 430.049L487.035 420.562L477.942 413.498L467.087 428.55L483.485 437.921L494.57 419.51L497.573 421.312L484.711 442.649Z" fill="#E88F09"/>
<path d="M459.581 466.366L440.21 448.748L459.682 431.404L471.316 445.446L459.22 458.335L449.145 448.503L457.979 440.256L462.901 446.023L460.245 448.287L457.69 445.302L454.212 448.56L459.105 453.347L466.64 445.302L459.292 436.436L445.435 448.762L459.408 461.478L474.232 445.908L476.758 448.315L459.581 466.366Z" fill="#E88F09"/>
<path d="M435.259 488.409L417.923 468.788L439.171 453.678L449.203 468.903L435.764 480.393L426.844 469.523L436.529 462.285L440.788 468.543L437.886 470.518L435.692 467.274L431.867 470.128L436.212 475.419L444.584 468.24L438.247 458.624L423.12 469.379L435.62 483.522L452.061 469.667L454.313 472.334L435.259 488.409Z" fill="#E88F09"/>
<path d="M406.795 505.061L391.711 483.666L414.488 470.965L422.788 487.198L408.18 497.161L400.487 485.367L410.908 479.24L414.459 485.93L411.37 487.559L409.537 484.099L405.423 486.521L409.162 492.259L418.27 486.045L413.016 475.794L396.806 484.834L407.689 500.26L425.545 488.265L427.493 491.163L406.795 505.061Z" fill="#E88F09"/>
<path d="M375.631 519.406L365.656 495.2L390.686 487.847L395.189 505.508L378.734 511.996L373.841 498.804L385.359 495.113L387.351 502.437L383.974 503.346L382.949 499.568L378.402 501.024L380.784 507.44L391.032 503.389L388.189 492.23L370.376 497.463L377.565 514.908L397.629 507.166L398.899 510.424L375.631 519.406Z" fill="#E88F09"/>
<path d="M346.098 529.96L336.138 505.768L361.153 498.415L365.656 516.061L349.216 522.564L344.322 509.372L355.827 505.681L357.819 512.991L354.441 513.913L353.416 510.122L348.869 511.578L351.251 517.993L361.499 513.942L358.656 502.783L340.844 508.031L348.032 525.476L368.11 517.719L369.366 520.978L346.098 529.96Z" fill="#E88F09"/>
<path d="M312.163 535.712L307.948 509.891L333.973 508.392L334.363 526.615L316.868 529.21L315.093 515.24L327.145 514.274L327.42 521.843L323.927 521.973L323.782 518.051L319.033 518.44L319.885 525.216L330.797 523.602L330.552 512.097L312.018 513.149L315.064 531.776L336.369 528.777L336.86 532.238L312.163 535.712Z" fill="#E88F09"/>
<path d="M280.999 539.316L276.784 513.481L302.823 511.981L303.199 530.205L285.704 532.8L283.943 518.844L295.996 517.864L296.256 525.433L292.763 525.562L292.618 521.641L287.869 522.03L288.721 528.821L299.633 527.192L299.403 515.687L280.869 516.754L283.9 535.366L305.205 532.367L305.696 535.827L280.999 539.316Z" fill="#E88F09"/>
<path d="M246.616 536.318L248.406 510.208L274.099 514.677L270.317 532.497L252.678 531.041L254.151 517.056L266.102 518.844L264.644 526.283L261.209 525.606L261.96 521.756L257.254 521.05L256.532 527.855L267.531 528.763L269.927 517.503L251.639 514.317L250.34 533.131L271.775 535.063L271.458 538.552L246.616 536.318Z" fill="#E88F09"/>
<path d="M215.452 532.713L217.256 506.604L242.95 511.088L239.153 528.907L221.529 527.451L222.987 513.452L234.953 515.24L233.495 522.679L230.06 522.001L230.81 518.166L226.09 517.46L225.383 524.265L236.367 525.159L238.764 513.899L220.475 510.713L219.191 529.542L240.611 531.473L240.294 534.948L215.452 532.713Z" fill="#E88F09"/>
<path d="M182.874 521.151L190.538 496.137L214.557 506.315L206.806 522.809L189.975 517.402L194.58 504.11L205.824 508.565L202.706 515.47L199.516 514.029L201.119 510.453L196.687 508.694L194.45 515.168L204.944 518.541L209.837 508.118L192.747 500.866L187.218 518.902L207.643 525.634L206.56 528.965L182.874 521.151Z" fill="#E88F09"/>
<path d="M153.341 510.597L161.02 485.569L185.024 495.748L177.287 512.255L160.442 506.834L165.047 493.542L176.291 497.997L173.174 504.903L169.984 503.475L171.6 499.9L167.169 498.141L164.917 504.6L175.425 507.973L180.319 497.55L163.228 490.312L157.685 508.348L178.125 515.081L177.028 518.397L153.341 510.597Z" fill="#E88F09"/>
<path d="M124.746 491.033L137.766 468.326L158.927 483.551L147.726 497.939L132.497 488.943L139.931 476.991L149.905 483.81L145.344 489.866L142.558 487.761L144.911 484.632L140.97 481.936L137.362 487.746L146.86 493.355L153.933 484.272L138.863 473.43L129.481 489.808L147.913 500.88L146.109 503.879L124.746 491.033Z" fill="#E88F09"/>
<path d="M97.9847 472.017L113.415 450.867L132.786 468.312L120.084 481.388L105.938 470.777L114.628 459.719L123.793 467.591L118.597 473.098L116.057 470.705L118.741 467.851L115.118 464.751L110.889 470.129L119.723 476.746L127.748 468.471L113.949 456.057L102.835 471.311L119.954 484.329L117.832 487.112L97.9847 472.017Z" fill="#E88F09"/>
<path d="M75.5248 447.883L93.1781 428.535L110.528 447.984L96.4692 459.604L83.5648 447.522L93.4091 437.459L101.666 446.283L95.9062 451.199L93.6256 448.546L96.6135 446.009L93.3513 442.52L88.5591 447.407L96.6135 454.947L105.491 447.609L93.1493 433.754L80.4181 447.71L96.0217 462.516L93.5967 465.054L75.5248 447.883Z" fill="#E88F09"/>
<path d="M54.8547 420.606L76.2754 405.54L88.9921 428.29L72.739 436.58L62.7648 421.99L74.5721 414.305L80.7068 424.714L74.0092 428.261L72.3781 425.176L75.8424 423.33L73.4174 419.236L67.6725 422.97L73.8937 432.067L84.1566 426.819L75.1062 410.629L59.6614 421.499L71.6708 439.319L68.7695 441.28L54.8547 420.606Z" fill="#E88F09"/>
<path d="M38.0098 394.179L59.4305 379.113L72.1472 401.849L55.9085 410.153L45.9199 395.563L57.7272 387.879L63.8763 398.288L57.1643 401.834L55.5332 398.749L58.9975 396.904L56.5725 392.809L50.842 396.543L57.0488 405.641L67.3261 400.393L58.2757 384.202L42.8309 395.058L54.8259 412.892L51.9246 414.853L38.0098 394.179Z" fill="#E88F09"/>
<path d="M25.091 362.346L49.3264 352.384L56.6879 377.383L39.0202 381.881L32.5103 365.446L45.7178 360.558L49.413 372.063L42.0947 374.053L41.1709 370.679L44.9672 369.641L43.5093 365.114L37.086 367.478L41.1421 377.729L52.3143 374.889L47.0602 357.098L29.5945 364.278L37.3603 384.318L34.0981 385.586L25.091 362.346Z" fill="#E88F09"/>
<path d="M14.525 332.848L38.746 322.886L46.1219 347.886L28.4398 352.384L21.9443 335.948L35.1518 331.061L38.8326 342.566L31.5143 344.555L30.605 341.182L34.3868 340.158L32.9289 335.617L26.5056 337.995L30.5617 348.232L41.7339 345.391L36.4942 327.601L19.0286 334.78L26.7798 354.82L23.5177 356.089L14.525 332.848Z" fill="#E88F09"/>
<path d="M10.3679 298.565L36.2344 294.355L37.7356 320.363L19.4905 320.753L16.8923 303.265L30.8648 301.506L31.8463 313.544L24.2683 313.818L24.1383 310.329L28.0645 310.185L27.6748 305.427L20.8762 306.292L22.5073 317.191L34.0259 316.946L32.9578 298.435L14.3229 301.477L17.3253 322.742L13.861 323.232L10.3679 298.565Z" fill="#E88F09"/>
<path d="M6.77374 267.452L32.6258 263.243L34.1269 289.251L15.8963 289.626L13.2981 272.152L27.2706 270.379L28.2521 282.417L20.6741 282.691L20.5442 279.202L24.4559 279.058L24.0806 274.315L17.282 275.166L18.8986 286.065L30.4317 285.82L29.3636 267.308L10.7143 270.35L13.7167 291.63L10.2524 292.12L6.77374 267.452Z" fill="#E88F09"/>
<path d="M11.4361 233.111L37.5768 234.898L33.1021 260.561L15.2467 256.769L16.7046 239.166L30.7204 240.636L28.9306 252.574L21.4824 251.118L22.1608 247.686L26.0148 248.436L26.7221 243.722L19.9091 243.015L18.9997 254.001L30.273 256.38L33.463 238.113L14.6116 236.83L12.6774 258.225L9.19873 257.923L11.4361 233.111Z" fill="#E88F09"/>
<path d="M15.0302 201.984L41.171 203.772L36.6963 229.434L18.8554 225.657L20.3132 208.039L34.3146 209.51L32.5247 221.447L25.0766 219.991L25.755 216.56L29.609 217.324L30.3163 212.61L23.5032 211.889L22.5939 222.875L33.8671 225.268L37.0571 207.001L18.2202 205.704L16.286 227.113L12.7929 226.796L15.0302 201.984Z" fill="#E88F09"/>
<path d="M28.2233 169.805L53.267 177.475L43.0763 201.451L26.5633 193.723L31.9762 176.913L45.2848 181.512L40.8245 192.728L33.9104 189.629L35.3539 186.442L38.9336 188.043L40.6802 183.617L34.2136 181.382L30.8359 191.863L41.272 196.751L48.5325 179.681L30.4751 174.159L23.7198 194.559L20.3998 193.464L28.2233 169.805Z" fill="#E88F09"/>
<path d="M41.0555 139.601L65.1032 150.01L52.2999 172.703L36.754 163.188L44.0145 147.084L56.7313 153.124L51.0441 163.793L44.5198 159.929L46.2952 156.931L49.6728 158.92L51.9102 154.71L45.7322 151.769L41.2143 161.818L51.0441 167.83L60.1522 151.668L42.8165 144.171L33.8383 163.707L30.6627 162.251L41.0555 139.601Z" fill="#E88F09"/>
<path d="M59.8202 112.454L82.5544 125.472L67.3116 146.608L52.9061 135.42L61.9132 120.21L73.8793 127.635L67.0518 137.597L60.9894 133.041L63.0968 130.244L66.229 132.609L68.9283 128.673L63.1112 125.069L57.4962 134.555L66.5899 141.62L77.4446 126.568L61.0471 117.197L49.9615 135.608L46.9591 133.805L59.8202 112.454Z" fill="#E88F09"/>
<path d="M82.078 86.4452L101.449 104.063L81.977 121.392L70.3429 107.364L82.4389 94.4611L92.5141 104.308L83.6658 112.555L78.7437 106.788L81.4141 104.524L83.9545 107.509L87.4476 104.25L82.5544 99.4639L75.0052 107.509L82.3523 116.375L96.2093 104.034L82.2513 91.3326L67.4271 106.903L64.8867 104.495L82.078 86.4452Z" fill="#E88F09"/>
<path d="M104.249 64.286L123.62 81.9182L104.148 99.2476L92.5286 85.2053L104.625 72.3164L114.685 82.1488L105.852 90.3955L100.929 84.643L103.585 82.3651L106.14 85.3495L109.619 82.0912L104.726 77.3191L97.1909 85.3495L104.538 94.216L118.395 81.8893L104.437 69.1878L89.5984 84.7583L87.0724 82.3507L104.249 64.286Z" fill="#E88F09"/>
<path d="M132.555 44.8661L147.639 66.2612L124.862 78.9627L116.562 62.7434L131.169 52.7812L138.849 64.56L128.441 70.7017L124.891 64.0121L127.979 62.3686L129.813 65.8287L133.926 63.4066L130.188 57.683L121.08 63.8968L126.32 74.1474L142.529 65.1078L131.66 49.6815L113.805 61.6621L111.856 58.7643L132.555 44.8661Z" fill="#E88F09"/>
<path d="M159.013 28.0413L174.097 49.4508L151.32 62.1379L143.02 45.9186L157.628 35.9563L165.321 47.7351L154.9 53.8768L151.349 47.1873L154.438 45.5437L156.271 49.0038L160.385 46.5818L156.646 40.8582L147.538 47.0719L152.792 57.3225L169.002 48.283L158.119 32.8566L140.263 44.8517L138.315 41.9394L159.013 28.0413Z" fill="#E88F09"/>
<path d="M191.592 16.5941L201.552 40.7861L176.537 48.1532L172.033 30.4922L188.474 24.0045L193.367 37.1962L181.863 40.8726L179.871 33.5631L183.249 32.6548L184.274 36.4321L188.821 34.976L186.439 28.5603L176.19 32.6116L179.034 43.7704L196.846 38.537L189.658 21.0923L169.579 28.8343L168.324 25.576L191.592 16.5941Z" fill="#E88F09"/>
<path d="M221.11 6.02637L231.084 30.2327L206.07 37.5855L201.566 19.9245L218.007 13.4368L222.9 26.6285L211.381 30.3192L209.404 23.0098L212.782 22.0871L213.806 25.8644L218.353 24.4082L215.972 18.007L205.709 22.0438L208.567 33.2027L226.364 27.9693L219.176 10.5245L199.112 18.2809L197.856 15.0082L221.11 6.02637Z" fill="#E88F09"/>
<path d="M257.557 1.44171L261.772 27.2772L235.732 28.7766L235.357 10.5533L252.852 7.95826L254.627 21.914L242.574 22.8944L242.3 15.3254L245.793 15.1957L245.937 19.1171L250.686 18.7279L249.835 11.9374L238.922 13.5665L239.168 25.0714L257.702 24.0045L254.656 5.39201L233.351 8.39077L232.86 4.93066L257.557 1.44171Z" fill="#E88F09"/>
</g>
<defs>
<clipPath id="clip0_81702_746">
<rect width="545" height="545" fill="white"/>
</clipPath>
</defs>
</svg>